G04 DipTrace 2.4.0.2*
%INbftdi_TopMask.gbr*%
%MOIN*%
%ADD38C,0.0354*%
%ADD42R,0.0709X0.063*%
%ADD43C,0.0748*%
%ADD45R,0.0748X0.0748*%
%ADD47R,0.1063X0.0866*%
%ADD49R,0.0984X0.0276*%
%ADD51R,0.0512X0.0315*%
%ADD53R,0.0197X0.0709*%
%ADD55R,0.0709X0.0197*%
%ADD57R,0.0374X0.0433*%
%ADD59R,0.0433X0.0374*%
%ADD61R,0.0315X0.0472*%
%ADD63R,0.0472X0.0472*%
%ADD65R,0.0669X0.0591*%
%ADD67R,0.0472X0.0512*%
%ADD69R,0.0512X0.0472*%
%ADD71R,0.0591X0.0669*%
%FSLAX44Y44*%
G04*
G70*
G90*
G75*
G01*
%LNTopMask*%
%LPD*%
D71*
X17126Y11563D3*
X16378D3*
D69*
X12688Y9062D3*
X12018D3*
D67*
X14250Y10062D3*
Y10731D3*
D65*
X7437Y13063D3*
Y13811D3*
D69*
X7562Y11750D3*
X8231D3*
X7562Y12313D3*
X8231D3*
D67*
X13625Y15562D3*
Y14893D3*
X13125Y15563D3*
Y14894D3*
D69*
X14062Y13062D3*
X13393D3*
X14062Y12437D3*
X13393D3*
X8875Y10625D3*
X9544D3*
X8875Y10000D3*
X9544D3*
D67*
X12562Y16937D3*
Y16268D3*
D69*
X9375Y16938D3*
X8705D3*
X7562Y11188D3*
X8231D3*
X11647Y11585D3*
X10978D3*
X14156Y5092D3*
X13487D3*
D63*
X15562Y14875D3*
D61*
X14893D3*
Y13969D3*
X15641D3*
D59*
X16375Y10750D3*
Y10199D3*
X14250Y15481D3*
Y14930D3*
D57*
X14009Y11625D3*
X13457D3*
D55*
X11937Y13312D3*
Y13509D3*
Y13706D3*
Y13903D3*
Y14099D3*
Y14296D3*
Y14493D3*
Y14690D3*
Y14887D3*
Y15084D3*
Y15281D3*
Y15477D3*
D53*
X11366Y16048D3*
X11169D3*
X10972D3*
X10776D3*
X10579D3*
X10382D3*
X10185D3*
X9988D3*
X9791D3*
X9594D3*
X9398D3*
X9201D3*
D55*
X8630Y15477D3*
Y15281D3*
Y15084D3*
Y14887D3*
Y14690D3*
Y14493D3*
Y14296D3*
Y14099D3*
Y13903D3*
Y13706D3*
Y13509D3*
Y13312D3*
D53*
X9201Y12741D3*
X9398D3*
X9594D3*
X9791D3*
X9988D3*
X10185D3*
X10382D3*
X10579D3*
X10776D3*
X10972D3*
X11169D3*
X11366D3*
D51*
X14312Y5875D3*
Y6249D3*
Y6623D3*
X13249D3*
Y6249D3*
Y5875D3*
D49*
X16937Y13937D3*
Y14252D3*
Y14567D3*
Y14882D3*
Y15197D3*
D47*
X16976Y12815D3*
Y16319D3*
X19142Y12815D3*
Y16319D3*
D38*
X17961Y13701D3*
Y15433D3*
D71*
X14062Y13812D3*
X13314D3*
D65*
X6562Y13813D3*
Y13065D3*
X15125Y6625D3*
Y5877D3*
D45*
X4937Y20937D3*
D43*
Y21937D3*
X5937Y20937D3*
Y21937D3*
X6937Y20937D3*
Y21937D3*
X7937Y20937D3*
Y21937D3*
X8937Y20937D3*
Y21937D3*
X9937Y20937D3*
Y21937D3*
D45*
X4937Y4937D3*
D43*
Y5937D3*
X5937Y4937D3*
Y5937D3*
X6937Y4937D3*
Y5937D3*
X7937Y4937D3*
Y5937D3*
X8937Y4937D3*
Y5937D3*
X9937Y4937D3*
Y5937D3*
D42*
X12000Y9812D3*
X13496D3*
Y10718D3*
X12000D3*
M02*
