G04 DipTrace 2.4.0.2*
%INbftdi_TopSilk.gbr*%
%MOIN*%
%ADD10C,0.0098*%
%ADD12C,0.001*%
%ADD22C,0.0154*%
%ADD27C,0.0158*%
%ADD31C,0.0197*%
%ADD73C,0.0046*%
%FSLAX44Y44*%
G04*
G70*
G90*
G75*
G01*
%LNTopSilk*%
%LPD*%
X17539Y11818D2*
D10*
Y11307D1*
X7693Y12649D2*
X7181D1*
X15857Y14540D2*
X14676D1*
Y14304D1*
X15857D1*
Y14540D1*
D22*
X15949Y15002D3*
X11465Y13214D2*
D10*
X9102D1*
Y15576D1*
X11465D1*
Y13214D1*
G36*
D2*
Y13529D1*
X11150Y13214D1*
X11465D1*
G37*
D27*
X11937Y13036D3*
D22*
X14478Y5605D3*
X13938Y5658D2*
D10*
Y6839D1*
X13623Y5658D2*
Y6839D1*
X13938D2*
X13623D1*
X13938Y5658D2*
X13623D1*
X20303Y13031D2*
Y16102D1*
Y13031D2*
X19811D1*
X18480D2*
X17638D1*
X16603Y13386D2*
Y13661D1*
Y15472D2*
Y15748D1*
X17638Y16102D2*
X18480D1*
X19811D2*
X20303D1*
D31*
X16268Y13937D3*
X4437Y22437D2*
D10*
X10437D1*
Y20437D1*
X4437D1*
Y22437D1*
Y6437D2*
X10437D1*
Y4437D1*
X4437D1*
Y6437D1*
X12437Y9635D2*
X13062D1*
Y10895D2*
X12437D1*
X12879Y22241D2*
D12*
X12920D1*
X13984D2*
X13995D1*
X16021D2*
X16052D1*
X12879Y22231D2*
X12920D1*
X13984D2*
X13995D1*
X16021D2*
X16052D1*
X12879Y22221D2*
X12920D1*
X13984D2*
X13995D1*
X16021D2*
X16052D1*
X12776Y22210D2*
X13012D1*
X13984D2*
X14097D1*
X14987D2*
X15325D1*
X16021D2*
X16134D1*
X16830D2*
X16871D1*
X12776Y22200D2*
X13012D1*
X13984D2*
X14097D1*
X14987D2*
X15325D1*
X16021D2*
X16134D1*
X16830D2*
X16871D1*
X12776Y22190D2*
X13012D1*
X13984D2*
X14097D1*
X14987D2*
X15325D1*
X16021D2*
X16134D1*
X16830D2*
X16871D1*
X12736Y22180D2*
X13063D1*
X13984D2*
X14148D1*
X14987D2*
X15366D1*
X16021D2*
X16175D1*
X16830D2*
X16943D1*
X12736Y22169D2*
X13063D1*
X13984D2*
X14148D1*
X14987D2*
X15366D1*
X16021D2*
X16175D1*
X16830D2*
X16946D1*
X12736Y22159D2*
X13063D1*
X13984D2*
X14148D1*
X14987D2*
X15366D1*
X16021D2*
X16174D1*
X16830D2*
X16951D1*
X12705Y22149D2*
X13094D1*
X13984D2*
X14148D1*
X14987D2*
X15397D1*
X16021D2*
X16172D1*
X16830D2*
X16956D1*
X12705Y22139D2*
X13094D1*
X13984D2*
X14148D1*
X14987D2*
X15404D1*
X16021D2*
X16167D1*
X16830D2*
X16960D1*
X12705Y22128D2*
X13094D1*
X13984D2*
X14148D1*
X14987D2*
X15410D1*
X16021D2*
X16161D1*
X16830D2*
X16962D1*
X12705Y22118D2*
X13094D1*
X13984D2*
X14148D1*
X14987D2*
X15414D1*
X16021D2*
X16157D1*
X16830D2*
X16963D1*
X12705Y22108D2*
X13094D1*
X13984D2*
X14148D1*
X14987D2*
X15416D1*
X16021D2*
X16154D1*
X16830D2*
X16963D1*
X12684Y22098D2*
X12868D1*
X12931D2*
X13114D1*
X13984D2*
X14148D1*
X14987D2*
X15448D1*
X16830D2*
X16963D1*
X12684Y22088D2*
X12866D1*
X12932D2*
X13114D1*
X13984D2*
X14148D1*
X14987D2*
X15448D1*
X16830D2*
X16963D1*
X12684Y22077D2*
X12861D1*
X12938D2*
X13114D1*
X13984D2*
X14148D1*
X14987D2*
X15448D1*
X16830D2*
X16963D1*
X12684Y22067D2*
X12855D1*
X12944D2*
X13114D1*
X13984D2*
X14148D1*
X14987D2*
X15151D1*
X15254D2*
X15448D1*
X16830D2*
X16963D1*
X12684Y22057D2*
X12851D1*
X12947D2*
X13114D1*
X13984D2*
X14148D1*
X14987D2*
X15151D1*
X15254D2*
X15448D1*
X16830D2*
X16963D1*
X12684Y22047D2*
X12849D1*
X12949D2*
X13114D1*
X13984D2*
X14148D1*
X14987D2*
X15151D1*
X15254D2*
X15448D1*
X16830D2*
X16963D1*
X12654Y22036D2*
X12817D1*
X12950D2*
X13114D1*
X13984D2*
X14148D1*
X14987D2*
X15151D1*
X15284D2*
X15448D1*
X16830D2*
X16963D1*
X12654Y22026D2*
X12817D1*
X12950D2*
X13114D1*
X13984D2*
X14148D1*
X14987D2*
X15151D1*
X15284D2*
X15448D1*
X16830D2*
X16963D1*
X12654Y22016D2*
X12817D1*
X12950D2*
X13114D1*
X13984D2*
X14148D1*
X14987D2*
X15151D1*
X15284D2*
X15448D1*
X16830D2*
X16963D1*
X12654Y22006D2*
X12817D1*
X12981D2*
X13114D1*
X13299D2*
X13534D1*
X13790D2*
X13923D1*
X13984D2*
X14148D1*
X14322D2*
X14537D1*
X14987D2*
X15151D1*
X15284D2*
X15448D1*
X15602D2*
X15837D1*
X16021D2*
X16154D1*
X16287D2*
X16421D1*
X16482D2*
X16646D1*
X16758D2*
X17035D1*
X17219D2*
X17434D1*
X17608D2*
X17751D1*
X17813D2*
X17895D1*
X18058D2*
X18263D1*
X12654Y21995D2*
X12817D1*
X12981D2*
X13114D1*
X13299D2*
X13537D1*
X13790D2*
X13926D1*
X13984D2*
X14148D1*
X14322D2*
X14537D1*
X14987D2*
X15151D1*
X15284D2*
X15448D1*
X15602D2*
X15840D1*
X16021D2*
X16158D1*
X16284D2*
X16421D1*
X16479D2*
X16649D1*
X16758D2*
X17035D1*
X17219D2*
X17437D1*
X17608D2*
X17751D1*
X17813D2*
X17895D1*
X18058D2*
X18263D1*
X12654Y21985D2*
X12817D1*
X12981D2*
X13114D1*
X13299D2*
X13543D1*
X13790D2*
X13932D1*
X13983D2*
X14148D1*
X14322D2*
X14537D1*
X14987D2*
X15151D1*
X15284D2*
X15448D1*
X15602D2*
X15845D1*
X16021D2*
X16163D1*
X16279D2*
X16422D1*
X16472D2*
X16654D1*
X16758D2*
X17035D1*
X17219D2*
X17443D1*
X17608D2*
X17751D1*
X17813D2*
X17895D1*
X18058D2*
X18263D1*
X12654Y21975D2*
X12817D1*
X12981D2*
X13114D1*
X13268D2*
X13551D1*
X13739D2*
X13943D1*
X13980D2*
X14148D1*
X14281D2*
X14588D1*
X14987D2*
X15151D1*
X15284D2*
X15448D1*
X15550D2*
X15851D1*
X16021D2*
X16168D1*
X16274D2*
X16425D1*
X16462D2*
X16659D1*
X16758D2*
X17035D1*
X17168D2*
X17451D1*
X17608D2*
X17751D1*
X17782D2*
X17895D1*
X18007D2*
X18314D1*
X12654Y21965D2*
X12817D1*
X12981D2*
X13114D1*
X13261D2*
X13559D1*
X13739D2*
X13957D1*
X13968D2*
X14148D1*
X14281D2*
X14595D1*
X14987D2*
X15151D1*
X15284D2*
X15448D1*
X15543D2*
X15855D1*
X16021D2*
X16172D1*
X16270D2*
X16437D1*
X16448D2*
X16663D1*
X16758D2*
X17035D1*
X17161D2*
X17459D1*
X17608D2*
X17751D1*
X17782D2*
X17895D1*
X18007D2*
X18321D1*
X12654Y21954D2*
X12817D1*
X12981D2*
X13012D1*
X13255D2*
X13567D1*
X13739D2*
X14148D1*
X14281D2*
X14601D1*
X14987D2*
X15151D1*
X15284D2*
X15448D1*
X15537D2*
X15888D1*
X16021D2*
X16173D1*
X16268D2*
X16665D1*
X16758D2*
X17035D1*
X17154D2*
X17467D1*
X17608D2*
X17752D1*
X17781D2*
X17895D1*
X17976D2*
X18327D1*
X12654Y21944D2*
X12817D1*
X12981D2*
X13012D1*
X13251D2*
X13571D1*
X13739D2*
X14148D1*
X14281D2*
X14605D1*
X14987D2*
X15151D1*
X15284D2*
X15448D1*
X15534D2*
X15888D1*
X16021D2*
X16174D1*
X16268D2*
X16666D1*
X16758D2*
X17035D1*
X17147D2*
X17471D1*
X17608D2*
X17754D1*
X17779D2*
X17895D1*
X17976D2*
X18331D1*
X12654Y21934D2*
X12817D1*
X12981D2*
X13012D1*
X13249D2*
X13573D1*
X13739D2*
X14148D1*
X14281D2*
X14607D1*
X14987D2*
X15151D1*
X15284D2*
X15448D1*
X15532D2*
X15888D1*
X16021D2*
X16175D1*
X16267D2*
X16666D1*
X16758D2*
X17035D1*
X17141D2*
X17473D1*
X17608D2*
X17762D1*
X17771D2*
X17895D1*
X17976D2*
X18333D1*
X12654Y21924D2*
X12817D1*
X13217D2*
X13606D1*
X13708D2*
X14148D1*
X14250D2*
X14609D1*
X14987D2*
X15151D1*
X15284D2*
X15448D1*
X15531D2*
X15888D1*
X16021D2*
X16175D1*
X16267D2*
X16697D1*
X16758D2*
X17035D1*
X17134D2*
X17506D1*
X17608D2*
X17895D1*
X17976D2*
X18334D1*
X12654Y21914D2*
X12817D1*
X13217D2*
X13606D1*
X13708D2*
X14148D1*
X14247D2*
X14612D1*
X14987D2*
X15151D1*
X15284D2*
X15448D1*
X15530D2*
X15888D1*
X16021D2*
X16175D1*
X16267D2*
X16697D1*
X16758D2*
X17035D1*
X17130D2*
X17506D1*
X17608D2*
X17895D1*
X17974D2*
X18335D1*
X12654Y21903D2*
X12817D1*
X13217D2*
X13606D1*
X13708D2*
X14148D1*
X14242D2*
X14617D1*
X14987D2*
X15151D1*
X15284D2*
X15448D1*
X15530D2*
X15888D1*
X16021D2*
X16175D1*
X16267D2*
X16697D1*
X16758D2*
X17035D1*
X17128D2*
X17506D1*
X17608D2*
X17895D1*
X17968D2*
X18335D1*
X12654Y21893D2*
X12817D1*
X13216D2*
X13360D1*
X13443D2*
X13606D1*
X13708D2*
X13902D1*
X13934D2*
X14148D1*
X14237D2*
X14394D1*
X14476D2*
X14622D1*
X14987D2*
X15151D1*
X15284D2*
X15448D1*
X15499D2*
X15662D1*
X15745D2*
X15889D1*
X16021D2*
X16175D1*
X16267D2*
X16697D1*
X16758D2*
X17035D1*
X17127D2*
X17280D1*
X17362D2*
X17506D1*
X17608D2*
X17895D1*
X17963D2*
X18120D1*
X18202D2*
X18365D1*
X12654Y21883D2*
X12817D1*
X13214D2*
X13360D1*
X13444D2*
X13606D1*
X13708D2*
X13902D1*
X13936D2*
X14148D1*
X14233D2*
X14394D1*
X14478D2*
X14626D1*
X14987D2*
X15151D1*
X15284D2*
X15448D1*
X15499D2*
X15661D1*
X15745D2*
X15891D1*
X16021D2*
X16175D1*
X16267D2*
X16697D1*
X16758D2*
X17035D1*
X17127D2*
X17278D1*
X17362D2*
X17506D1*
X17608D2*
X17895D1*
X17959D2*
X18120D1*
X18204D2*
X18365D1*
X12654Y21873D2*
X12817D1*
X13209D2*
X13360D1*
X13450D2*
X13606D1*
X13708D2*
X13902D1*
X13941D2*
X14148D1*
X14231D2*
X14394D1*
X14484D2*
X14628D1*
X14987D2*
X15151D1*
X15284D2*
X15448D1*
X15499D2*
X15655D1*
X15745D2*
X15896D1*
X16021D2*
X16175D1*
X16267D2*
X16697D1*
X16758D2*
X17035D1*
X17127D2*
X17272D1*
X17362D2*
X17506D1*
X17608D2*
X17895D1*
X17957D2*
X18120D1*
X18210D2*
X18365D1*
X12654Y21862D2*
X12817D1*
X13203D2*
X13360D1*
X13455D2*
X13606D1*
X13708D2*
X13872D1*
X13947D2*
X14148D1*
X14231D2*
X14394D1*
X14489D2*
X14629D1*
X14987D2*
X15151D1*
X15254D2*
X15448D1*
X15499D2*
X15650D1*
X15745D2*
X15902D1*
X16021D2*
X16175D1*
X16267D2*
X16451D1*
X16533D2*
X16697D1*
X16830D2*
X16963D1*
X17127D2*
X17267D1*
X17362D2*
X17506D1*
X17608D2*
X17895D1*
X17957D2*
X18089D1*
X18215D2*
X18365D1*
X12654Y21852D2*
X12817D1*
X13200D2*
X13360D1*
X13459D2*
X13608D1*
X13708D2*
X13869D1*
X13950D2*
X14148D1*
X14230D2*
X14394D1*
X14493D2*
X14629D1*
X14987D2*
X15151D1*
X15254D2*
X15448D1*
X15499D2*
X15646D1*
X15745D2*
X15905D1*
X16021D2*
X16175D1*
X16267D2*
X16451D1*
X16533D2*
X16697D1*
X16830D2*
X16963D1*
X17127D2*
X17263D1*
X17362D2*
X17508D1*
X17608D2*
X17895D1*
X17956D2*
X18089D1*
X18219D2*
X18365D1*
X12654Y21842D2*
X12817D1*
X13198D2*
X13360D1*
X13461D2*
X13614D1*
X13708D2*
X13864D1*
X13952D2*
X14148D1*
X14230D2*
X14394D1*
X14495D2*
X14629D1*
X14987D2*
X15151D1*
X15254D2*
X15448D1*
X15499D2*
X15644D1*
X15745D2*
X15907D1*
X16021D2*
X16175D1*
X16267D2*
X16451D1*
X16533D2*
X16697D1*
X16830D2*
X16963D1*
X17127D2*
X17261D1*
X17362D2*
X17514D1*
X17608D2*
X17895D1*
X17956D2*
X18089D1*
X18221D2*
X18365D1*
X12654Y21832D2*
X12817D1*
X13197D2*
X13360D1*
X13462D2*
X13619D1*
X13708D2*
X13858D1*
X13984D2*
X14148D1*
X14230D2*
X14363D1*
X14496D2*
X14629D1*
X14987D2*
X15448D1*
X15499D2*
X15643D1*
X15745D2*
X15908D1*
X16021D2*
X16175D1*
X16267D2*
X16421D1*
X16533D2*
X16697D1*
X16830D2*
X16963D1*
X17096D2*
X17261D1*
X17362D2*
X17519D1*
X17608D2*
X17802D1*
X17956D2*
X18120D1*
X18222D2*
X18335D1*
X12654Y21821D2*
X12817D1*
X13196D2*
X13360D1*
X13462D2*
X13623D1*
X13708D2*
X13855D1*
X13984D2*
X14148D1*
X14230D2*
X14363D1*
X14496D2*
X14629D1*
X14987D2*
X15448D1*
X15499D2*
X15643D1*
X15745D2*
X15909D1*
X16021D2*
X16175D1*
X16267D2*
X16421D1*
X16533D2*
X16697D1*
X16830D2*
X16963D1*
X17096D2*
X17260D1*
X17362D2*
X17523D1*
X17608D2*
X17802D1*
X17956D2*
X18120D1*
X18222D2*
X18335D1*
X12654Y21811D2*
X12817D1*
X13196D2*
X13360D1*
X13462D2*
X13625D1*
X13708D2*
X13853D1*
X13984D2*
X14148D1*
X14230D2*
X14363D1*
X14496D2*
X14629D1*
X14987D2*
X15448D1*
X15499D2*
X15643D1*
X15745D2*
X15909D1*
X16021D2*
X16175D1*
X16267D2*
X16421D1*
X16533D2*
X16697D1*
X16830D2*
X16963D1*
X17096D2*
X17260D1*
X17362D2*
X17525D1*
X17608D2*
X17802D1*
X17956D2*
X18120D1*
X18222D2*
X18335D1*
X12654Y21801D2*
X12817D1*
X13196D2*
X13329D1*
X13462D2*
X13626D1*
X13707D2*
X13852D1*
X13984D2*
X14148D1*
X14230D2*
X14363D1*
X14496D2*
X14629D1*
X14987D2*
X15417D1*
X15744D2*
X15909D1*
X16021D2*
X16175D1*
X16267D2*
X16421D1*
X16533D2*
X16697D1*
X16830D2*
X16963D1*
X17096D2*
X17260D1*
X17362D2*
X17526D1*
X17608D2*
X17772D1*
X17956D2*
X18120D1*
X12654Y21791D2*
X12817D1*
X13196D2*
X13329D1*
X13462D2*
X13626D1*
X13705D2*
X13851D1*
X13984D2*
X14148D1*
X14230D2*
X14363D1*
X14496D2*
X14629D1*
X14987D2*
X15414D1*
X15742D2*
X15909D1*
X16021D2*
X16175D1*
X16267D2*
X16421D1*
X16533D2*
X16697D1*
X16830D2*
X16963D1*
X17096D2*
X17260D1*
X17362D2*
X17526D1*
X17608D2*
X17769D1*
X17956D2*
X18120D1*
X12654Y21780D2*
X12817D1*
X13196D2*
X13329D1*
X13462D2*
X13626D1*
X13700D2*
X13851D1*
X13984D2*
X14148D1*
X14230D2*
X14363D1*
X14496D2*
X14629D1*
X14987D2*
X15409D1*
X15737D2*
X15909D1*
X16021D2*
X16175D1*
X16267D2*
X16421D1*
X16533D2*
X16697D1*
X16830D2*
X16963D1*
X17096D2*
X17260D1*
X17362D2*
X17526D1*
X17608D2*
X17764D1*
X17957D2*
X18120D1*
X12654Y21770D2*
X12817D1*
X13196D2*
X13329D1*
X13462D2*
X13626D1*
X13694D2*
X13851D1*
X13984D2*
X14148D1*
X14230D2*
X14394D1*
X14496D2*
X14629D1*
X14987D2*
X15404D1*
X15731D2*
X15909D1*
X16021D2*
X16175D1*
X16267D2*
X16421D1*
X16533D2*
X16697D1*
X16830D2*
X16963D1*
X17096D2*
X17260D1*
X17362D2*
X17526D1*
X17608D2*
X17758D1*
X17958D2*
X18191D1*
X12654Y21760D2*
X12817D1*
X13196D2*
X13329D1*
X13462D2*
X13626D1*
X13691D2*
X13851D1*
X13984D2*
X14148D1*
X14230D2*
X14394D1*
X14496D2*
X14629D1*
X14987D2*
X15400D1*
X15727D2*
X15909D1*
X16021D2*
X16175D1*
X16267D2*
X16421D1*
X16533D2*
X16697D1*
X16830D2*
X16963D1*
X17096D2*
X17260D1*
X17362D2*
X17526D1*
X17608D2*
X17755D1*
X17964D2*
X18191D1*
X12654Y21750D2*
X12817D1*
X13196D2*
X13329D1*
X13462D2*
X13626D1*
X13689D2*
X13851D1*
X13984D2*
X14148D1*
X14230D2*
X14629D1*
X14987D2*
X15366D1*
X15622D2*
X15909D1*
X16021D2*
X16175D1*
X16267D2*
X16421D1*
X16533D2*
X16697D1*
X16830D2*
X16963D1*
X17096D2*
X17526D1*
X17608D2*
X17753D1*
X17970D2*
X18263D1*
X12654Y21740D2*
X12817D1*
X13196D2*
X13329D1*
X13462D2*
X13626D1*
X13688D2*
X13851D1*
X13984D2*
X14148D1*
X14230D2*
X14629D1*
X14987D2*
X15366D1*
X15622D2*
X15909D1*
X16021D2*
X16175D1*
X16267D2*
X16421D1*
X16533D2*
X16697D1*
X16830D2*
X16963D1*
X17096D2*
X17526D1*
X17608D2*
X17752D1*
X17973D2*
X18263D1*
X12654Y21729D2*
X12817D1*
X13196D2*
X13329D1*
X13462D2*
X13626D1*
X13688D2*
X13851D1*
X13984D2*
X14148D1*
X14230D2*
X14629D1*
X14987D2*
X15366D1*
X15622D2*
X15909D1*
X16021D2*
X16175D1*
X16267D2*
X16421D1*
X16533D2*
X16697D1*
X16830D2*
X16963D1*
X17096D2*
X17526D1*
X17608D2*
X17751D1*
X17975D2*
X18263D1*
X12654Y21719D2*
X12817D1*
X13196D2*
X13329D1*
X13462D2*
X13626D1*
X13688D2*
X13851D1*
X13984D2*
X14148D1*
X14230D2*
X14629D1*
X14987D2*
X15325D1*
X15550D2*
X15909D1*
X16021D2*
X16175D1*
X16267D2*
X16421D1*
X16533D2*
X16697D1*
X16830D2*
X16963D1*
X17096D2*
X17526D1*
X17608D2*
X17751D1*
X17976D2*
X18314D1*
X12654Y21709D2*
X12817D1*
X13196D2*
X13329D1*
X13462D2*
X13626D1*
X13688D2*
X13851D1*
X13984D2*
X14148D1*
X14230D2*
X14629D1*
X14987D2*
X15325D1*
X15547D2*
X15909D1*
X16021D2*
X16175D1*
X16267D2*
X16421D1*
X16533D2*
X16697D1*
X16830D2*
X16963D1*
X17096D2*
X17526D1*
X17608D2*
X17751D1*
X17976D2*
X18317D1*
X12654Y21699D2*
X12817D1*
X13196D2*
X13329D1*
X13462D2*
X13626D1*
X13688D2*
X13851D1*
X13984D2*
X14148D1*
X14230D2*
X14629D1*
X14987D2*
X15325D1*
X15542D2*
X15909D1*
X16021D2*
X16175D1*
X16267D2*
X16421D1*
X16533D2*
X16697D1*
X16830D2*
X16963D1*
X17096D2*
X17526D1*
X17608D2*
X17751D1*
X17976D2*
X18323D1*
X12654Y21688D2*
X12817D1*
X12981D2*
X12991D1*
X13196D2*
X13329D1*
X13462D2*
X13626D1*
X13687D2*
X13851D1*
X13984D2*
X14148D1*
X14230D2*
X14629D1*
X14987D2*
X15151D1*
X15537D2*
X15909D1*
X16021D2*
X16175D1*
X16267D2*
X16421D1*
X16533D2*
X16697D1*
X16830D2*
X16963D1*
X17096D2*
X17526D1*
X17608D2*
X17751D1*
X18028D2*
X18328D1*
X12654Y21678D2*
X12817D1*
X12981D2*
X12991D1*
X13196D2*
X13329D1*
X13462D2*
X13626D1*
X13687D2*
X13851D1*
X13984D2*
X14148D1*
X14230D2*
X14629D1*
X14987D2*
X15151D1*
X15533D2*
X15909D1*
X16021D2*
X16175D1*
X16267D2*
X16421D1*
X16533D2*
X16697D1*
X16830D2*
X16963D1*
X17096D2*
X17526D1*
X17608D2*
X17751D1*
X18028D2*
X18331D1*
X12654Y21668D2*
X12817D1*
X12981D2*
X12991D1*
X13196D2*
X13329D1*
X13462D2*
X13626D1*
X13687D2*
X13851D1*
X13984D2*
X14148D1*
X14230D2*
X14629D1*
X14987D2*
X15151D1*
X15531D2*
X15909D1*
X16021D2*
X16175D1*
X16267D2*
X16421D1*
X16533D2*
X16697D1*
X16830D2*
X16963D1*
X17096D2*
X17526D1*
X17608D2*
X17751D1*
X18028D2*
X18333D1*
X12654Y21658D2*
X12817D1*
X12981D2*
X13094D1*
X13196D2*
X13329D1*
X13462D2*
X13626D1*
X13687D2*
X13851D1*
X13984D2*
X14148D1*
X14230D2*
X14394D1*
X14987D2*
X15151D1*
X15499D2*
X15694D1*
X15745D2*
X15909D1*
X16021D2*
X16175D1*
X16267D2*
X16421D1*
X16533D2*
X16697D1*
X16830D2*
X16963D1*
X17096D2*
X17260D1*
X17608D2*
X17751D1*
X18058D2*
X18334D1*
X12654Y21647D2*
X12817D1*
X12981D2*
X13094D1*
X13196D2*
X13329D1*
X13462D2*
X13626D1*
X13687D2*
X13851D1*
X13984D2*
X14148D1*
X14230D2*
X14394D1*
X14987D2*
X15151D1*
X15499D2*
X15694D1*
X15745D2*
X15909D1*
X16021D2*
X16175D1*
X16267D2*
X16421D1*
X16533D2*
X16697D1*
X16830D2*
X16963D1*
X17096D2*
X17260D1*
X17608D2*
X17751D1*
X18058D2*
X18335D1*
X12654Y21637D2*
X12817D1*
X12981D2*
X13094D1*
X13196D2*
X13329D1*
X13462D2*
X13626D1*
X13687D2*
X13851D1*
X13984D2*
X14148D1*
X14230D2*
X14394D1*
X14987D2*
X15151D1*
X15499D2*
X15694D1*
X15745D2*
X15909D1*
X16021D2*
X16175D1*
X16267D2*
X16421D1*
X16533D2*
X16697D1*
X16830D2*
X16963D1*
X17096D2*
X17260D1*
X17608D2*
X17751D1*
X18058D2*
X18335D1*
X12654Y21627D2*
X12817D1*
X12981D2*
X13135D1*
X13196D2*
X13329D1*
X13462D2*
X13626D1*
X13687D2*
X13851D1*
X13984D2*
X14148D1*
X14230D2*
X14363D1*
X14987D2*
X15151D1*
X15499D2*
X15663D1*
X15745D2*
X15909D1*
X16021D2*
X16175D1*
X16267D2*
X16421D1*
X16533D2*
X16697D1*
X16830D2*
X16963D1*
X17096D2*
X17260D1*
X17608D2*
X17751D1*
X18130D2*
X18365D1*
X12654Y21617D2*
X12817D1*
X12981D2*
X13135D1*
X13196D2*
X13329D1*
X13462D2*
X13626D1*
X13688D2*
X13851D1*
X13984D2*
X14148D1*
X14230D2*
X14363D1*
X14987D2*
X15151D1*
X15499D2*
X15660D1*
X15745D2*
X15909D1*
X16021D2*
X16175D1*
X16267D2*
X16421D1*
X16533D2*
X16697D1*
X16830D2*
X16963D1*
X17096D2*
X17260D1*
X17608D2*
X17751D1*
X18130D2*
X18365D1*
X12654Y21606D2*
X12817D1*
X12981D2*
X13134D1*
X13196D2*
X13329D1*
X13462D2*
X13626D1*
X13688D2*
X13851D1*
X13984D2*
X14148D1*
X14230D2*
X14363D1*
X14987D2*
X15151D1*
X15499D2*
X15655D1*
X15745D2*
X15909D1*
X16021D2*
X16175D1*
X16267D2*
X16421D1*
X16533D2*
X16697D1*
X16830D2*
X16963D1*
X17096D2*
X17260D1*
X17608D2*
X17751D1*
X18130D2*
X18365D1*
X12654Y21596D2*
X12817D1*
X12981D2*
X13132D1*
X13196D2*
X13329D1*
X13462D2*
X13626D1*
X13690D2*
X13851D1*
X13984D2*
X14148D1*
X14230D2*
X14363D1*
X14987D2*
X15151D1*
X15497D2*
X15650D1*
X15745D2*
X15909D1*
X16021D2*
X16175D1*
X16267D2*
X16421D1*
X16533D2*
X16697D1*
X16830D2*
X16963D1*
X17096D2*
X17260D1*
X17608D2*
X17751D1*
X18181D2*
X18365D1*
X12654Y21586D2*
X12817D1*
X12981D2*
X13127D1*
X13196D2*
X13329D1*
X13462D2*
X13626D1*
X13696D2*
X13851D1*
X13984D2*
X14148D1*
X14230D2*
X14363D1*
X14987D2*
X15151D1*
X15491D2*
X15646D1*
X15745D2*
X15909D1*
X16021D2*
X16175D1*
X16267D2*
X16421D1*
X16533D2*
X16697D1*
X16830D2*
X16963D1*
X17096D2*
X17260D1*
X17608D2*
X17751D1*
X18188D2*
X18365D1*
X12654Y21576D2*
X12817D1*
X12981D2*
X13121D1*
X13196D2*
X13329D1*
X13462D2*
X13625D1*
X13701D2*
X13852D1*
X13984D2*
X14148D1*
X14230D2*
X14363D1*
X14496D2*
X14629D1*
X14987D2*
X15151D1*
X15486D2*
X15644D1*
X15745D2*
X15909D1*
X16021D2*
X16175D1*
X16267D2*
X16421D1*
X16533D2*
X16697D1*
X16830D2*
X16963D1*
X17096D2*
X17260D1*
X17393D2*
X17526D1*
X17608D2*
X17751D1*
X17956D2*
X18089D1*
X18195D2*
X18365D1*
X12654Y21565D2*
X12817D1*
X12981D2*
X13118D1*
X13196D2*
X13329D1*
X13462D2*
X13624D1*
X13705D2*
X13854D1*
X13984D2*
X14148D1*
X14230D2*
X14363D1*
X14496D2*
X14629D1*
X14987D2*
X15151D1*
X15482D2*
X15643D1*
X15745D2*
X15909D1*
X16021D2*
X16175D1*
X16267D2*
X16421D1*
X16533D2*
X16697D1*
X16830D2*
X16963D1*
X17096D2*
X17260D1*
X17393D2*
X17526D1*
X17608D2*
X17751D1*
X17956D2*
X18089D1*
X18202D2*
X18365D1*
X12654Y21555D2*
X12817D1*
X12981D2*
X13116D1*
X13196D2*
X13329D1*
X13462D2*
X13618D1*
X13707D2*
X13859D1*
X13984D2*
X14148D1*
X14230D2*
X14363D1*
X14496D2*
X14629D1*
X14987D2*
X15151D1*
X15480D2*
X15643D1*
X15745D2*
X15909D1*
X16021D2*
X16175D1*
X16267D2*
X16421D1*
X16533D2*
X16697D1*
X16830D2*
X16963D1*
X17096D2*
X17260D1*
X17393D2*
X17526D1*
X17608D2*
X17751D1*
X17956D2*
X18089D1*
X18208D2*
X18365D1*
X12684Y21545D2*
X12848D1*
X12950D2*
X13115D1*
X13196D2*
X13360D1*
X13462D2*
X13613D1*
X13707D2*
X13865D1*
X13984D2*
X14148D1*
X14230D2*
X14363D1*
X14496D2*
X14629D1*
X14987D2*
X15151D1*
X15479D2*
X15643D1*
X15745D2*
X15909D1*
X16021D2*
X16175D1*
X16267D2*
X16421D1*
X16533D2*
X16697D1*
X16830D2*
X16963D1*
X17127D2*
X17260D1*
X17362D2*
X17525D1*
X17608D2*
X17751D1*
X17956D2*
X18089D1*
X18215D2*
X18365D1*
X12684Y21535D2*
X12848D1*
X12950D2*
X13114D1*
X13196D2*
X13360D1*
X13462D2*
X13609D1*
X13708D2*
X13868D1*
X13984D2*
X14148D1*
X14230D2*
X14363D1*
X14496D2*
X14629D1*
X14987D2*
X15151D1*
X15479D2*
X15643D1*
X15745D2*
X15909D1*
X16021D2*
X16175D1*
X16267D2*
X16421D1*
X16533D2*
X16697D1*
X16830D2*
X16963D1*
X17127D2*
X17260D1*
X17362D2*
X17524D1*
X17608D2*
X17751D1*
X17956D2*
X18089D1*
X18219D2*
X18365D1*
X12684Y21525D2*
X12848D1*
X12950D2*
X13114D1*
X13196D2*
X13360D1*
X13462D2*
X13607D1*
X13708D2*
X13870D1*
X13984D2*
X14148D1*
X14230D2*
X14363D1*
X14496D2*
X14629D1*
X14987D2*
X15151D1*
X15479D2*
X15643D1*
X15745D2*
X15909D1*
X16021D2*
X16175D1*
X16267D2*
X16421D1*
X16533D2*
X16697D1*
X16830D2*
X16963D1*
X17127D2*
X17260D1*
X17362D2*
X17518D1*
X17608D2*
X17751D1*
X17956D2*
X18089D1*
X18221D2*
X18365D1*
X12684Y21514D2*
X12848D1*
X12950D2*
X13114D1*
X13196D2*
X13360D1*
X13462D2*
X13606D1*
X13708D2*
X13871D1*
X13954D2*
X14148D1*
X14230D2*
X14394D1*
X14496D2*
X14629D1*
X14987D2*
X15151D1*
X15479D2*
X15643D1*
X15745D2*
X15909D1*
X16021D2*
X16175D1*
X16267D2*
X16421D1*
X16533D2*
X16697D1*
X16830D2*
X16994D1*
X17127D2*
X17260D1*
X17362D2*
X17513D1*
X17608D2*
X17751D1*
X17956D2*
X18089D1*
X18222D2*
X18365D1*
X12684Y21504D2*
X12848D1*
X12950D2*
X13114D1*
X13196D2*
X13360D1*
X13462D2*
X13606D1*
X13708D2*
X13872D1*
X13954D2*
X14148D1*
X14230D2*
X14394D1*
X14496D2*
X14629D1*
X14987D2*
X15151D1*
X15479D2*
X15643D1*
X15745D2*
X15909D1*
X16021D2*
X16175D1*
X16267D2*
X16421D1*
X16533D2*
X16697D1*
X16830D2*
X16994D1*
X17127D2*
X17260D1*
X17362D2*
X17509D1*
X17608D2*
X17751D1*
X17956D2*
X18089D1*
X18222D2*
X18365D1*
X12684Y21494D2*
X12848D1*
X12950D2*
X13114D1*
X13196D2*
X13360D1*
X13462D2*
X13606D1*
X13708D2*
X13872D1*
X13954D2*
X14148D1*
X14230D2*
X14394D1*
X14496D2*
X14629D1*
X14987D2*
X15151D1*
X15479D2*
X15643D1*
X15745D2*
X15909D1*
X16021D2*
X16175D1*
X16267D2*
X16421D1*
X16533D2*
X16697D1*
X16830D2*
X16994D1*
X17127D2*
X17260D1*
X17362D2*
X17507D1*
X17608D2*
X17751D1*
X17956D2*
X18089D1*
X18222D2*
X18365D1*
X12685Y21484D2*
X13113D1*
X13217D2*
X13380D1*
X13442D2*
X13606D1*
X13708D2*
X14148D1*
X14250D2*
X14394D1*
X14476D2*
X14628D1*
X14987D2*
X15151D1*
X15499D2*
X15909D1*
X16021D2*
X16175D1*
X16267D2*
X16421D1*
X16533D2*
X16697D1*
X16830D2*
X17035D1*
X17128D2*
X17280D1*
X17342D2*
X17506D1*
X17608D2*
X17751D1*
X17957D2*
X18120D1*
X18202D2*
X18365D1*
X12687Y21473D2*
X13112D1*
X13217D2*
X13380D1*
X13442D2*
X13606D1*
X13708D2*
X14148D1*
X14250D2*
X14394D1*
X14476D2*
X14627D1*
X14987D2*
X15151D1*
X15499D2*
X15909D1*
X16021D2*
X16175D1*
X16267D2*
X16421D1*
X16533D2*
X16697D1*
X16830D2*
X17035D1*
X17129D2*
X17280D1*
X17342D2*
X17506D1*
X17608D2*
X17751D1*
X17958D2*
X18120D1*
X18202D2*
X18365D1*
X12692Y21463D2*
X13106D1*
X13217D2*
X13380D1*
X13442D2*
X13606D1*
X13708D2*
X14148D1*
X14250D2*
X14394D1*
X14476D2*
X14621D1*
X14987D2*
X15151D1*
X15499D2*
X15909D1*
X16021D2*
X16175D1*
X16267D2*
X16421D1*
X16533D2*
X16697D1*
X16830D2*
X17035D1*
X17135D2*
X17280D1*
X17342D2*
X17506D1*
X17608D2*
X17751D1*
X17964D2*
X18120D1*
X18202D2*
X18365D1*
X12698Y21453D2*
X13101D1*
X13217D2*
X13575D1*
X13739D2*
X14148D1*
X14250D2*
X14615D1*
X14987D2*
X15151D1*
X15499D2*
X15909D1*
X16021D2*
X16175D1*
X16267D2*
X16421D1*
X16533D2*
X16697D1*
X16830D2*
X17035D1*
X17140D2*
X17506D1*
X17608D2*
X17751D1*
X17970D2*
X18335D1*
X12701Y21443D2*
X13097D1*
X13217D2*
X13575D1*
X13739D2*
X14148D1*
X14250D2*
X14609D1*
X14987D2*
X15151D1*
X15499D2*
X15909D1*
X16021D2*
X16175D1*
X16267D2*
X16421D1*
X16533D2*
X16697D1*
X16830D2*
X17035D1*
X17144D2*
X17506D1*
X17608D2*
X17751D1*
X17973D2*
X18332D1*
X12703Y21432D2*
X13095D1*
X13217D2*
X13575D1*
X13739D2*
X14148D1*
X14250D2*
X14602D1*
X14987D2*
X15151D1*
X15499D2*
X15909D1*
X16021D2*
X16175D1*
X16267D2*
X16421D1*
X16533D2*
X16697D1*
X16830D2*
X17035D1*
X17146D2*
X17506D1*
X17608D2*
X17751D1*
X17975D2*
X18326D1*
X12704Y21422D2*
X13063D1*
X13247D2*
X13575D1*
X13739D2*
X14148D1*
X14281D2*
X14596D1*
X14987D2*
X15151D1*
X15499D2*
X15909D1*
X16021D2*
X16175D1*
X16267D2*
X16421D1*
X16533D2*
X16697D1*
X16831D2*
X17035D1*
X17148D2*
X17475D1*
X17608D2*
X17751D1*
X17976D2*
X18320D1*
X12705Y21412D2*
X13060D1*
X13250D2*
X13575D1*
X13741D2*
X14148D1*
X14284D2*
X14592D1*
X14988D2*
X15151D1*
X15499D2*
X15909D1*
X16021D2*
X16175D1*
X16267D2*
X16421D1*
X16533D2*
X16697D1*
X16832D2*
X17035D1*
X17151D2*
X17472D1*
X17608D2*
X17751D1*
X17976D2*
X18314D1*
X12705Y21402D2*
X13055D1*
X13256D2*
X13575D1*
X13747D2*
X14148D1*
X14289D2*
X14590D1*
X14988D2*
X15151D1*
X15499D2*
X15909D1*
X16021D2*
X16174D1*
X16268D2*
X16421D1*
X16534D2*
X16697D1*
X16838D2*
X17035D1*
X17156D2*
X17467D1*
X17608D2*
X17751D1*
X17976D2*
X18307D1*
X12756Y21391D2*
X13049D1*
X13261D2*
X13534D1*
X13752D2*
X13940D1*
X13988D2*
X14148D1*
X14295D2*
X14558D1*
X14990D2*
X15151D1*
X15530D2*
X15711D1*
X15776D2*
X15909D1*
X16021D2*
X16172D1*
X16270D2*
X16421D1*
X16536D2*
X16697D1*
X16844D2*
X17035D1*
X17161D2*
X17461D1*
X17608D2*
X17751D1*
X18007D2*
X18301D1*
X12763Y21381D2*
X13046D1*
X13265D2*
X13534D1*
X13756D2*
X13935D1*
X13993D2*
X14148D1*
X14299D2*
X14558D1*
X14996D2*
X15151D1*
X15537D2*
X15706D1*
X15776D2*
X15909D1*
X16021D2*
X16167D1*
X16275D2*
X16421D1*
X16541D2*
X16697D1*
X16847D2*
X17035D1*
X17165D2*
X17457D1*
X17608D2*
X17751D1*
X18007D2*
X18297D1*
X12769Y21371D2*
X12991D1*
X13319D2*
X13503D1*
X13790D2*
X13930D1*
X13998D2*
X14117D1*
X14353D2*
X14506D1*
X15001D2*
X15151D1*
X15543D2*
X15701D1*
X15776D2*
X15909D1*
X16021D2*
X16161D1*
X16281D2*
X16421D1*
X16547D2*
X16697D1*
X16902D2*
X17035D1*
X17219D2*
X17403D1*
X17608D2*
X17751D1*
X18058D2*
X18243D1*
X12773Y21361D2*
X12991D1*
X13319D2*
X13503D1*
X13790D2*
X13926D1*
X14002D2*
X14117D1*
X14353D2*
X14506D1*
X15005D2*
X15151D1*
X15547D2*
X15697D1*
X15776D2*
X15909D1*
X16021D2*
X16157D1*
X16285D2*
X16421D1*
X16551D2*
X16697D1*
X16902D2*
X17035D1*
X17219D2*
X17403D1*
X17608D2*
X17751D1*
X18058D2*
X18243D1*
X12776Y21351D2*
X12991D1*
X13319D2*
X13503D1*
X13790D2*
X13923D1*
X14005D2*
X14117D1*
X14353D2*
X14506D1*
X15008D2*
X15151D1*
X15550D2*
X15694D1*
X15776D2*
X15909D1*
X16021D2*
X16154D1*
X16287D2*
X16421D1*
X16554D2*
X16697D1*
X16902D2*
X17035D1*
X17219D2*
X17403D1*
X17608D2*
X17751D1*
X18058D2*
X18243D1*
X15458Y21105D2*
X15489D1*
X15530D2*
X15540D1*
X16062D2*
X16083D1*
X15458Y21095D2*
X15493D1*
X15526D2*
X15540D1*
X16062D2*
X16083D1*
X15458Y21084D2*
X15505D1*
X15514D2*
X15540D1*
X16062D2*
X16083D1*
X15284Y21074D2*
X15325D1*
X15376D2*
X15540D1*
X16062D2*
X16206D1*
X17270D2*
X17383D1*
X15284Y21064D2*
X15331D1*
X15371D2*
X15540D1*
X16062D2*
X16206D1*
X17270D2*
X17383D1*
X15284Y21054D2*
X15347D1*
X15355D2*
X15540D1*
X16062D2*
X16206D1*
X17270D2*
X17383D1*
X14496Y21043D2*
X14609D1*
X14639D2*
X14732D1*
X14865D2*
X14906D1*
X14936D2*
X15080D1*
X15110D2*
X15172D1*
X15237D2*
X15571D1*
X15704D2*
X15735D1*
X15827D2*
X15980D1*
X16033D2*
X16451D1*
X16584D2*
X16595D1*
X16728D2*
X16820D1*
X16850D2*
X17086D1*
X17199D2*
X17475D1*
X14489Y21033D2*
X14618D1*
X14630D2*
X14732D1*
X14865D2*
X14915D1*
X14927D2*
X15089D1*
X15101D2*
X15186D1*
X15208D2*
X15571D1*
X15704D2*
X15735D1*
X15827D2*
X15995D1*
X16012D2*
X16451D1*
X16584D2*
X16595D1*
X16728D2*
X16829D1*
X16841D2*
X17086D1*
X17199D2*
X17475D1*
X14483Y21023D2*
X17577D1*
X17782D2*
X17802D1*
X14479Y21013D2*
X17577D1*
X17782D2*
X17802D1*
X14477Y21003D2*
X17577D1*
X17782D2*
X17802D1*
X13862Y20992D2*
X13872D1*
X14056D2*
X14414D1*
X14476D2*
X16011D1*
X16041D2*
X16594D1*
X16636D2*
X16963D1*
X17044D2*
X17874D1*
X17976D2*
X17997D1*
X18376D2*
X18386D1*
X13862Y20982D2*
X13872D1*
X14056D2*
X14414D1*
X14476D2*
X16011D1*
X16039D2*
X16592D1*
X16636D2*
X16963D1*
X17042D2*
X17874D1*
X17973D2*
X17997D1*
X18376D2*
X18386D1*
X13862Y20972D2*
X13872D1*
X14056D2*
X14414D1*
X14476D2*
X16011D1*
X16034D2*
X16587D1*
X16636D2*
X16963D1*
X17037D2*
X17874D1*
X17968D2*
X17997D1*
X18376D2*
X18386D1*
X13862Y20962D2*
X14414D1*
X14476D2*
X15980D1*
X16028D2*
X16174D1*
X16236D2*
X16581D1*
X16636D2*
X16962D1*
X17031D2*
X17208D1*
X17271D2*
X17751D1*
X17833D2*
X17874D1*
X17960D2*
X18089D1*
X18222D2*
X18243D1*
X13862Y20951D2*
X14414D1*
X14476D2*
X15980D1*
X16025D2*
X16172D1*
X16236D2*
X16577D1*
X16636D2*
X16961D1*
X17024D2*
X17206D1*
X17273D2*
X17751D1*
X17833D2*
X17874D1*
X17949D2*
X18089D1*
X18222D2*
X18243D1*
X13862Y20941D2*
X14414D1*
X14476D2*
X15980D1*
X16023D2*
X16167D1*
X16236D2*
X16575D1*
X16636D2*
X16955D1*
X17018D2*
X17201D1*
X17278D2*
X17751D1*
X17833D2*
X17874D1*
X17920D2*
X18089D1*
X18222D2*
X18243D1*
X13462Y20931D2*
X13483D1*
X13636D2*
X15980D1*
X16022D2*
X16161D1*
X16236D2*
X16543D1*
X16636D2*
X16871D1*
X16902D2*
X16950D1*
X17012D2*
X17195D1*
X17284D2*
X17597D1*
X17833D2*
X17966D1*
X18008D2*
X18048D1*
X18202D2*
X18212D1*
X18304D2*
X18314D1*
X13462Y20921D2*
X13483D1*
X13636D2*
X15980D1*
X16022D2*
X16158D1*
X16236D2*
X16543D1*
X16636D2*
X16871D1*
X16902D2*
X16946D1*
X17008D2*
X17192D1*
X17285D2*
X17595D1*
X17833D2*
X17966D1*
X18010D2*
X18048D1*
X18202D2*
X18212D1*
X18304D2*
X18314D1*
X13462Y20910D2*
X13483D1*
X13636D2*
X15980D1*
X16021D2*
X16156D1*
X16236D2*
X16543D1*
X16636D2*
X16871D1*
X16902D2*
X16944D1*
X17005D2*
X17190D1*
X17281D2*
X17590D1*
X17833D2*
X17966D1*
X18015D2*
X18048D1*
X18202D2*
X18212D1*
X18304D2*
X18314D1*
X13247Y20900D2*
X13534D1*
X13565D2*
X15346D1*
X15407D2*
X15765D1*
X15868D2*
X15909D1*
X16062D2*
X16103D1*
X16165D2*
X16257D1*
X16410D2*
X16472D1*
X16584D2*
X16595D1*
X16676D2*
X16697D1*
X16759D2*
X16840D1*
X16902D2*
X16912D1*
X16973D2*
X17035D1*
X17095D2*
X17189D1*
X17277D2*
X17383D1*
X17516D2*
X17584D1*
X17834D2*
X17925D1*
X18021D2*
X18048D1*
X18202D2*
X18212D1*
X18304D2*
X18314D1*
X13247Y20890D2*
X13537D1*
X13562D2*
X15346D1*
X15407D2*
X15765D1*
X15868D2*
X15909D1*
X16062D2*
X16103D1*
X16165D2*
X16257D1*
X16410D2*
X16472D1*
X16584D2*
X16595D1*
X16676D2*
X16697D1*
X16761D2*
X16840D1*
X16902D2*
X16912D1*
X16970D2*
X17035D1*
X17094D2*
X17188D1*
X17273D2*
X17383D1*
X17516D2*
X17581D1*
X17836D2*
X17925D1*
X18025D2*
X18048D1*
X18202D2*
X18212D1*
X18304D2*
X18314D1*
X13247Y20880D2*
X13545D1*
X13554D2*
X15346D1*
X15407D2*
X15765D1*
X15868D2*
X15909D1*
X16062D2*
X16103D1*
X16165D2*
X16257D1*
X16410D2*
X16472D1*
X16584D2*
X16595D1*
X16676D2*
X16697D1*
X16766D2*
X16840D1*
X16902D2*
X16912D1*
X16965D2*
X17035D1*
X17088D2*
X17188D1*
X17272D2*
X17383D1*
X17516D2*
X17579D1*
X17841D2*
X17925D1*
X18028D2*
X18048D1*
X18202D2*
X18212D1*
X18304D2*
X18314D1*
X13145Y20869D2*
X13165D1*
X13196D2*
X15202D1*
X15376D2*
X15417D1*
X15530D2*
X15571D1*
X15602D2*
X15612D1*
X16772D2*
X16789D1*
X16960D2*
X16994D1*
X17083D2*
X17188D1*
X17271D2*
X17311D1*
X17342D2*
X17352D1*
X17567D2*
X17578D1*
X17608D2*
X17628D1*
X17847D2*
X17925D1*
X18150D2*
X18212D1*
X13145Y20859D2*
X13168D1*
X13194D2*
X15202D1*
X15376D2*
X15417D1*
X15530D2*
X15571D1*
X15602D2*
X15612D1*
X16776D2*
X16789D1*
X16958D2*
X16994D1*
X17079D2*
X17188D1*
X17270D2*
X17311D1*
X17342D2*
X17352D1*
X17567D2*
X17577D1*
X17608D2*
X17628D1*
X17851D2*
X17925D1*
X18150D2*
X18212D1*
X13145Y20849D2*
X13176D1*
X13185D2*
X15202D1*
X15376D2*
X15417D1*
X15530D2*
X15571D1*
X15602D2*
X15612D1*
X16779D2*
X16789D1*
X16962D2*
X16994D1*
X17076D2*
X17188D1*
X17270D2*
X17311D1*
X17342D2*
X17352D1*
X17567D2*
X17577D1*
X17608D2*
X17628D1*
X17854D2*
X17925D1*
X18150D2*
X18212D1*
X13073Y20839D2*
X13797D1*
X13831D2*
X13977D1*
X14056D2*
X14394D1*
X14425D2*
X14486D1*
X14547D2*
X14588D1*
X14639D2*
X14957D1*
X15059D2*
X15121D1*
X15428D2*
X15469D1*
X16850D2*
X16871D1*
X16967D2*
X16994D1*
X17025D2*
X17035D1*
X17199D2*
X17209D1*
X18150D2*
X18171D1*
X18202D2*
X18212D1*
X13073Y20828D2*
X13792D1*
X13831D2*
X13982D1*
X14056D2*
X14394D1*
X14425D2*
X14486D1*
X14547D2*
X14588D1*
X14639D2*
X14957D1*
X15059D2*
X15121D1*
X15428D2*
X15469D1*
X16850D2*
X16871D1*
X16971D2*
X16994D1*
X17025D2*
X17028D1*
X17199D2*
X17209D1*
X18150D2*
X18171D1*
X18202D2*
X18212D1*
X12950Y20818D2*
X13677D1*
X13708D2*
X13787D1*
X13882D2*
X13988D1*
X14056D2*
X14148D1*
X14230D2*
X14312D1*
X14691D2*
X14732D1*
X17004D2*
X17022D1*
X12950Y20808D2*
X13677D1*
X13708D2*
X13783D1*
X13882D2*
X13992D1*
X14056D2*
X14148D1*
X14230D2*
X14312D1*
X14691D2*
X14732D1*
X17004D2*
X17017D1*
X12950Y20798D2*
X13677D1*
X13708D2*
X13781D1*
X13882D2*
X13995D1*
X14056D2*
X14148D1*
X14230D2*
X14312D1*
X14691D2*
X14732D1*
X17004D2*
X17014D1*
X12858Y20788D2*
X13626D1*
X13708D2*
X13749D1*
X12858Y20777D2*
X13626D1*
X13708D2*
X13749D1*
X12858Y20767D2*
X13626D1*
X13708D2*
X13749D1*
X12684Y20757D2*
X13432D1*
X12684Y20747D2*
X13432D1*
X12684Y20736D2*
X13432D1*
X12684Y20726D2*
X13360D1*
X12684Y20716D2*
X13360D1*
X12684Y20706D2*
X13360D1*
X12582Y20695D2*
X13237D1*
X12579Y20685D2*
X13237D1*
X12574Y20675D2*
X13237D1*
X12568Y20665D2*
X12991D1*
X13176D2*
X13186D1*
X12565Y20654D2*
X12991D1*
X13176D2*
X13186D1*
X12563Y20644D2*
X12971D1*
X12562Y20634D2*
X12971D1*
X12562Y20624D2*
X12971D1*
X12613Y20614D2*
X12746D1*
X12613Y20603D2*
X12746D1*
X12613Y20593D2*
X12746D1*
X12684Y20583D2*
X12695D1*
X12684Y20573D2*
X12695D1*
X12684Y20562D2*
X12695D1*
X12879Y22241D2*
Y22231D1*
Y22221D1*
Y22210D1*
X12776D1*
Y22200D1*
Y22190D1*
Y22180D1*
X12736D1*
Y22169D1*
Y22159D1*
Y22149D1*
X12705D1*
Y22139D1*
Y22128D1*
Y22118D1*
Y22108D1*
Y22098D1*
X12684D1*
Y22088D1*
Y22077D1*
Y22067D1*
Y22057D1*
Y22047D1*
Y22036D1*
X12654D1*
Y22026D1*
Y22016D1*
Y22006D1*
Y21995D1*
Y21985D1*
Y21975D1*
Y21965D1*
Y21954D1*
Y21944D1*
Y21934D1*
Y21924D1*
Y21914D1*
Y21903D1*
Y21893D1*
Y21883D1*
Y21873D1*
Y21862D1*
Y21852D1*
Y21842D1*
Y21832D1*
Y21821D1*
Y21811D1*
Y21801D1*
Y21791D1*
Y21780D1*
Y21770D1*
Y21760D1*
Y21750D1*
Y21740D1*
Y21729D1*
Y21719D1*
Y21709D1*
Y21699D1*
Y21688D1*
Y21678D1*
Y21668D1*
Y21658D1*
Y21647D1*
Y21637D1*
Y21627D1*
Y21617D1*
Y21606D1*
Y21596D1*
Y21586D1*
Y21576D1*
Y21565D1*
Y21555D1*
Y21545D1*
X12684D1*
Y21535D1*
Y21525D1*
Y21514D1*
Y21504D1*
Y21494D1*
X12685Y21484D1*
X12687Y21473D1*
X12692Y21463D1*
X12698Y21453D1*
X12701Y21443D1*
X12703Y21432D1*
X12704Y21422D1*
X12705Y21412D1*
Y21402D1*
Y21391D1*
X12756D1*
X12763Y21381D1*
X12769Y21371D1*
X12773Y21361D1*
X12776Y21351D1*
X12920Y22241D2*
Y22231D1*
Y22221D1*
Y22210D1*
X13012D1*
Y22200D1*
Y22190D1*
Y22180D1*
X13063D1*
Y22169D1*
Y22159D1*
Y22149D1*
X13094D1*
Y22139D1*
Y22128D1*
Y22118D1*
Y22108D1*
Y22098D1*
X13114D1*
Y22088D1*
Y22077D1*
Y22067D1*
Y22057D1*
Y22047D1*
Y22036D1*
Y22026D1*
Y22016D1*
Y22006D1*
Y21995D1*
Y21985D1*
Y21975D1*
Y21965D1*
Y21954D1*
X13012D1*
Y21944D1*
Y21934D1*
X13984Y22241D2*
Y22231D1*
Y22221D1*
Y22210D1*
Y22200D1*
Y22190D1*
Y22180D1*
Y22169D1*
Y22159D1*
Y22149D1*
Y22139D1*
Y22128D1*
Y22118D1*
Y22108D1*
Y22098D1*
Y22088D1*
Y22077D1*
Y22067D1*
Y22057D1*
Y22047D1*
Y22036D1*
Y22026D1*
Y22016D1*
Y22006D1*
Y21995D1*
X13983Y21985D1*
X13980Y21975D1*
X13968Y21965D1*
X13954Y21954D1*
X13995Y22241D2*
Y22231D1*
Y22221D1*
Y22210D1*
X14097D1*
Y22200D1*
Y22190D1*
Y22180D1*
X14148D1*
Y22169D1*
Y22159D1*
Y22149D1*
Y22139D1*
Y22128D1*
Y22118D1*
Y22108D1*
Y22098D1*
Y22088D1*
Y22077D1*
Y22067D1*
Y22057D1*
Y22047D1*
Y22036D1*
Y22026D1*
Y22016D1*
Y22006D1*
Y21995D1*
Y21985D1*
Y21975D1*
Y21965D1*
Y21954D1*
Y21944D1*
Y21934D1*
Y21924D1*
Y21914D1*
Y21903D1*
Y21893D1*
Y21883D1*
Y21873D1*
Y21862D1*
Y21852D1*
Y21842D1*
Y21832D1*
Y21821D1*
Y21811D1*
Y21801D1*
Y21791D1*
Y21780D1*
Y21770D1*
Y21760D1*
Y21750D1*
Y21740D1*
Y21729D1*
Y21719D1*
Y21709D1*
Y21699D1*
Y21688D1*
Y21678D1*
Y21668D1*
Y21658D1*
Y21647D1*
Y21637D1*
Y21627D1*
Y21617D1*
Y21606D1*
Y21596D1*
Y21586D1*
Y21576D1*
Y21565D1*
Y21555D1*
Y21545D1*
Y21535D1*
Y21525D1*
Y21514D1*
Y21504D1*
Y21494D1*
Y21484D1*
Y21473D1*
Y21463D1*
Y21453D1*
Y21443D1*
Y21432D1*
Y21422D1*
Y21412D1*
Y21402D1*
Y21391D1*
Y21381D1*
Y21371D1*
X14117D1*
Y21361D1*
Y21351D1*
X16021Y22241D2*
Y22231D1*
Y22221D1*
Y22210D1*
Y22200D1*
Y22190D1*
Y22180D1*
Y22169D1*
Y22159D1*
Y22149D1*
Y22139D1*
Y22128D1*
Y22118D1*
Y22108D1*
X16052Y22241D2*
Y22231D1*
Y22221D1*
Y22210D1*
X16134D1*
Y22200D1*
Y22190D1*
Y22180D1*
X16175D1*
Y22169D1*
X16174Y22159D1*
X16172Y22149D1*
X16167Y22139D1*
X16161Y22128D1*
X16157Y22118D1*
X16154Y22108D1*
X14987Y22210D2*
Y22200D1*
Y22190D1*
Y22180D1*
Y22169D1*
Y22159D1*
Y22149D1*
Y22139D1*
Y22128D1*
Y22118D1*
Y22108D1*
Y22098D1*
Y22088D1*
Y22077D1*
Y22067D1*
Y22057D1*
Y22047D1*
Y22036D1*
Y22026D1*
Y22016D1*
Y22006D1*
Y21995D1*
Y21985D1*
Y21975D1*
Y21965D1*
Y21954D1*
Y21944D1*
Y21934D1*
Y21924D1*
Y21914D1*
Y21903D1*
Y21893D1*
Y21883D1*
Y21873D1*
Y21862D1*
Y21852D1*
Y21842D1*
Y21832D1*
Y21821D1*
Y21811D1*
Y21801D1*
Y21791D1*
Y21780D1*
Y21770D1*
Y21760D1*
Y21750D1*
Y21740D1*
Y21729D1*
Y21719D1*
Y21709D1*
Y21699D1*
Y21688D1*
Y21678D1*
Y21668D1*
Y21658D1*
Y21647D1*
Y21637D1*
Y21627D1*
Y21617D1*
Y21606D1*
Y21596D1*
Y21586D1*
Y21576D1*
Y21565D1*
Y21555D1*
Y21545D1*
Y21535D1*
Y21525D1*
Y21514D1*
Y21504D1*
Y21494D1*
Y21484D1*
Y21473D1*
Y21463D1*
Y21453D1*
Y21443D1*
Y21432D1*
Y21422D1*
X14988Y21412D1*
Y21402D1*
X14990Y21391D1*
X14996Y21381D1*
X15001Y21371D1*
X15005Y21361D1*
X15008Y21351D1*
X15325Y22210D2*
Y22200D1*
Y22190D1*
Y22180D1*
X15366D1*
Y22169D1*
Y22159D1*
Y22149D1*
X15397D1*
X15404Y22139D1*
X15410Y22128D1*
X15414Y22118D1*
X15416Y22108D1*
X15417Y22098D1*
X15448D1*
Y22088D1*
Y22077D1*
Y22067D1*
Y22057D1*
Y22047D1*
Y22036D1*
Y22026D1*
Y22016D1*
Y22006D1*
Y21995D1*
Y21985D1*
Y21975D1*
Y21965D1*
Y21954D1*
Y21944D1*
Y21934D1*
Y21924D1*
Y21914D1*
Y21903D1*
Y21893D1*
Y21883D1*
Y21873D1*
Y21862D1*
Y21852D1*
Y21842D1*
Y21832D1*
Y21821D1*
Y21811D1*
Y21801D1*
X15417D1*
X15414Y21791D1*
X15409Y21780D1*
X15404Y21770D1*
X15400Y21760D1*
X15397Y21750D1*
X15366D1*
Y21740D1*
Y21729D1*
Y21719D1*
X15325D1*
Y21709D1*
Y21699D1*
X16830Y22210D2*
Y22200D1*
Y22190D1*
Y22180D1*
Y22169D1*
Y22159D1*
Y22149D1*
Y22139D1*
Y22128D1*
Y22118D1*
Y22108D1*
Y22098D1*
Y22088D1*
Y22077D1*
Y22067D1*
Y22057D1*
Y22047D1*
Y22036D1*
Y22026D1*
Y22016D1*
Y22006D1*
X16758D1*
Y21995D1*
Y21985D1*
Y21975D1*
Y21965D1*
Y21954D1*
Y21944D1*
Y21934D1*
Y21924D1*
Y21914D1*
Y21903D1*
Y21893D1*
Y21883D1*
Y21873D1*
Y21862D1*
X16830D1*
Y21852D1*
Y21842D1*
Y21832D1*
Y21821D1*
Y21811D1*
Y21801D1*
Y21791D1*
Y21780D1*
Y21770D1*
Y21760D1*
Y21750D1*
Y21740D1*
Y21729D1*
Y21719D1*
Y21709D1*
Y21699D1*
Y21688D1*
Y21678D1*
Y21668D1*
Y21658D1*
Y21647D1*
Y21637D1*
Y21627D1*
Y21617D1*
Y21606D1*
Y21596D1*
Y21586D1*
Y21576D1*
Y21565D1*
Y21555D1*
Y21545D1*
Y21535D1*
Y21525D1*
Y21514D1*
Y21504D1*
Y21494D1*
Y21484D1*
Y21473D1*
Y21463D1*
Y21453D1*
Y21443D1*
Y21432D1*
X16831Y21422D1*
X16832Y21412D1*
X16838Y21402D1*
X16844Y21391D1*
X16847Y21381D1*
X16850Y21371D1*
X16902D1*
Y21361D1*
Y21351D1*
X16871Y22210D2*
Y22200D1*
Y22190D1*
Y22180D1*
X16943D1*
X16946Y22169D1*
X16951Y22159D1*
X16956Y22149D1*
X16960Y22139D1*
X16962Y22128D1*
X16963Y22118D1*
Y22108D1*
Y22098D1*
Y22088D1*
Y22077D1*
Y22067D1*
Y22057D1*
Y22047D1*
Y22036D1*
Y22026D1*
Y22016D1*
Y22006D1*
X17035D1*
Y21995D1*
Y21985D1*
Y21975D1*
Y21965D1*
Y21954D1*
Y21944D1*
Y21934D1*
Y21924D1*
Y21914D1*
Y21903D1*
Y21893D1*
Y21883D1*
Y21873D1*
Y21862D1*
X16963D1*
Y21852D1*
Y21842D1*
Y21832D1*
Y21821D1*
Y21811D1*
Y21801D1*
Y21791D1*
Y21780D1*
Y21770D1*
Y21760D1*
Y21750D1*
Y21740D1*
Y21729D1*
Y21719D1*
Y21709D1*
Y21699D1*
Y21688D1*
Y21678D1*
Y21668D1*
Y21658D1*
Y21647D1*
Y21637D1*
Y21627D1*
Y21617D1*
Y21606D1*
Y21596D1*
Y21586D1*
Y21576D1*
Y21565D1*
Y21555D1*
Y21545D1*
Y21535D1*
Y21525D1*
Y21514D1*
X16994D1*
Y21504D1*
Y21494D1*
Y21484D1*
X17035D1*
Y21473D1*
Y21463D1*
Y21453D1*
Y21443D1*
Y21432D1*
Y21422D1*
Y21412D1*
Y21402D1*
Y21391D1*
Y21381D1*
Y21371D1*
Y21361D1*
Y21351D1*
X12869Y22108D2*
X12868Y22098D1*
X12866Y22088D1*
X12861Y22077D1*
X12855Y22067D1*
X12851Y22057D1*
X12849Y22047D1*
X12848Y22036D1*
X12817D1*
Y22026D1*
Y22016D1*
Y22006D1*
Y21995D1*
Y21985D1*
Y21975D1*
Y21965D1*
Y21954D1*
Y21944D1*
Y21934D1*
Y21924D1*
Y21914D1*
Y21903D1*
Y21893D1*
Y21883D1*
Y21873D1*
Y21862D1*
Y21852D1*
Y21842D1*
Y21832D1*
Y21821D1*
Y21811D1*
Y21801D1*
Y21791D1*
Y21780D1*
Y21770D1*
Y21760D1*
Y21750D1*
Y21740D1*
Y21729D1*
Y21719D1*
Y21709D1*
Y21699D1*
Y21688D1*
Y21678D1*
Y21668D1*
Y21658D1*
Y21647D1*
Y21637D1*
Y21627D1*
Y21617D1*
Y21606D1*
Y21596D1*
Y21586D1*
Y21576D1*
Y21565D1*
Y21555D1*
Y21545D1*
X12848D1*
Y21535D1*
Y21525D1*
Y21514D1*
Y21504D1*
Y21494D1*
X12940Y21484D1*
X12930Y22108D2*
X12931Y22098D1*
X12932Y22088D1*
X12938Y22077D1*
X12944Y22067D1*
X12947Y22057D1*
X12949Y22047D1*
X12950Y22036D1*
Y22026D1*
Y22016D1*
Y22006D1*
X12981D1*
Y21995D1*
Y21985D1*
Y21975D1*
Y21965D1*
Y21954D1*
Y21944D1*
Y21934D1*
X15151Y22077D2*
Y22067D1*
Y22057D1*
Y22047D1*
Y22036D1*
Y22026D1*
Y22016D1*
Y22006D1*
Y21995D1*
Y21985D1*
Y21975D1*
Y21965D1*
Y21954D1*
Y21944D1*
Y21934D1*
Y21924D1*
Y21914D1*
Y21903D1*
Y21893D1*
Y21883D1*
Y21873D1*
Y21862D1*
Y21852D1*
Y21842D1*
X15243Y21832D1*
X15254Y22077D2*
Y22067D1*
Y22057D1*
Y22047D1*
Y22036D1*
X15284D1*
Y22026D1*
Y22016D1*
Y22006D1*
Y21995D1*
Y21985D1*
Y21975D1*
Y21965D1*
Y21954D1*
Y21944D1*
Y21934D1*
Y21924D1*
Y21914D1*
Y21903D1*
Y21893D1*
Y21883D1*
Y21873D1*
Y21862D1*
X15254D1*
Y21852D1*
Y21842D1*
X15162Y21832D1*
X13299Y22006D2*
Y21995D1*
Y21985D1*
Y21975D1*
X13268D1*
X13261Y21965D1*
X13255Y21954D1*
X13251Y21944D1*
X13249Y21934D1*
X13247Y21924D1*
X13217D1*
Y21914D1*
Y21903D1*
X13216Y21893D1*
X13214Y21883D1*
X13209Y21873D1*
X13203Y21862D1*
X13200Y21852D1*
X13198Y21842D1*
X13197Y21832D1*
X13196Y21821D1*
Y21811D1*
Y21801D1*
Y21791D1*
Y21780D1*
Y21770D1*
Y21760D1*
Y21750D1*
Y21740D1*
Y21729D1*
Y21719D1*
Y21709D1*
Y21699D1*
Y21688D1*
Y21678D1*
Y21668D1*
Y21658D1*
Y21647D1*
Y21637D1*
Y21627D1*
Y21617D1*
Y21606D1*
Y21596D1*
Y21586D1*
Y21576D1*
Y21565D1*
Y21555D1*
Y21545D1*
Y21535D1*
Y21525D1*
Y21514D1*
Y21504D1*
Y21494D1*
Y21484D1*
X13217D1*
Y21473D1*
Y21463D1*
Y21453D1*
Y21443D1*
Y21432D1*
Y21422D1*
X13247D1*
X13250Y21412D1*
X13256Y21402D1*
X13261Y21391D1*
X13265Y21381D1*
X13268Y21371D1*
X13319D1*
Y21361D1*
Y21351D1*
X13534Y22006D2*
X13537Y21995D1*
X13543Y21985D1*
X13551Y21975D1*
X13559Y21965D1*
X13567Y21954D1*
X13571Y21944D1*
X13573Y21934D1*
X13575Y21924D1*
X13606D1*
Y21914D1*
Y21903D1*
Y21893D1*
Y21883D1*
Y21873D1*
Y21862D1*
X13608Y21852D1*
X13614Y21842D1*
X13619Y21832D1*
X13623Y21821D1*
X13625Y21811D1*
X13626Y21801D1*
Y21791D1*
Y21780D1*
Y21770D1*
Y21760D1*
Y21750D1*
Y21740D1*
Y21729D1*
Y21719D1*
Y21709D1*
Y21699D1*
Y21688D1*
Y21678D1*
Y21668D1*
Y21658D1*
Y21647D1*
Y21637D1*
Y21627D1*
Y21617D1*
Y21606D1*
Y21596D1*
Y21586D1*
X13625Y21576D1*
X13624Y21565D1*
X13618Y21555D1*
X13613Y21545D1*
X13609Y21535D1*
X13607Y21525D1*
X13606Y21514D1*
Y21504D1*
Y21494D1*
Y21484D1*
Y21473D1*
Y21463D1*
Y21453D1*
X13575D1*
Y21443D1*
Y21432D1*
Y21422D1*
Y21412D1*
Y21402D1*
Y21391D1*
X13534D1*
Y21381D1*
Y21371D1*
X13503D1*
Y21361D1*
Y21351D1*
X13790Y22006D2*
Y21995D1*
Y21985D1*
Y21975D1*
X13739D1*
Y21965D1*
Y21954D1*
Y21944D1*
Y21934D1*
Y21924D1*
X13708D1*
Y21914D1*
Y21903D1*
Y21893D1*
Y21883D1*
Y21873D1*
Y21862D1*
Y21852D1*
Y21842D1*
Y21832D1*
Y21821D1*
Y21811D1*
X13707Y21801D1*
X13705Y21791D1*
X13700Y21780D1*
X13694Y21770D1*
X13691Y21760D1*
X13689Y21750D1*
X13688Y21740D1*
Y21729D1*
Y21719D1*
Y21709D1*
Y21699D1*
X13687Y21688D1*
Y21678D1*
Y21668D1*
Y21658D1*
Y21647D1*
Y21637D1*
Y21627D1*
X13688Y21617D1*
Y21606D1*
X13690Y21596D1*
X13696Y21586D1*
X13701Y21576D1*
X13705Y21565D1*
X13707Y21555D1*
Y21545D1*
X13708Y21535D1*
Y21525D1*
Y21514D1*
Y21504D1*
Y21494D1*
Y21484D1*
Y21473D1*
Y21463D1*
Y21453D1*
X13739D1*
Y21443D1*
Y21432D1*
Y21422D1*
X13741Y21412D1*
X13747Y21402D1*
X13752Y21391D1*
X13756Y21381D1*
X13759Y21371D1*
X13790D1*
Y21361D1*
Y21351D1*
X13923Y22006D2*
X13926Y21995D1*
X13932Y21985D1*
X13943Y21975D1*
X13957Y21965D1*
X13974Y21954D1*
X14322Y22006D2*
Y21995D1*
Y21985D1*
Y21975D1*
X14281D1*
Y21965D1*
Y21954D1*
Y21944D1*
Y21934D1*
Y21924D1*
X14250D1*
X14247Y21914D1*
X14242Y21903D1*
X14237Y21893D1*
X14233Y21883D1*
X14231Y21873D1*
Y21862D1*
X14230Y21852D1*
Y21842D1*
Y21832D1*
Y21821D1*
Y21811D1*
Y21801D1*
Y21791D1*
Y21780D1*
Y21770D1*
Y21760D1*
Y21750D1*
Y21740D1*
Y21729D1*
Y21719D1*
Y21709D1*
Y21699D1*
Y21688D1*
Y21678D1*
Y21668D1*
Y21658D1*
Y21647D1*
Y21637D1*
Y21627D1*
Y21617D1*
Y21606D1*
Y21596D1*
Y21586D1*
Y21576D1*
Y21565D1*
Y21555D1*
Y21545D1*
Y21535D1*
Y21525D1*
Y21514D1*
Y21504D1*
Y21494D1*
Y21484D1*
X14250D1*
Y21473D1*
Y21463D1*
Y21453D1*
Y21443D1*
Y21432D1*
Y21422D1*
X14281D1*
X14284Y21412D1*
X14289Y21402D1*
X14295Y21391D1*
X14299Y21381D1*
X14302Y21371D1*
X14353D1*
Y21361D1*
Y21351D1*
X14537Y22006D2*
Y21995D1*
Y21985D1*
Y21975D1*
X14588D1*
X14595Y21965D1*
X14601Y21954D1*
X14605Y21944D1*
X14607Y21934D1*
X14609Y21924D1*
X14612Y21914D1*
X14617Y21903D1*
X14622Y21893D1*
X14626Y21883D1*
X14628Y21873D1*
X14629Y21862D1*
Y21852D1*
Y21842D1*
Y21832D1*
Y21821D1*
Y21811D1*
Y21801D1*
Y21791D1*
Y21780D1*
Y21770D1*
Y21760D1*
Y21750D1*
Y21740D1*
Y21729D1*
Y21719D1*
Y21709D1*
Y21699D1*
Y21688D1*
Y21678D1*
Y21668D1*
X15602Y22006D2*
Y21995D1*
Y21985D1*
Y21975D1*
X15550D1*
X15543Y21965D1*
X15537Y21954D1*
X15534Y21944D1*
X15532Y21934D1*
X15531Y21924D1*
X15530Y21914D1*
Y21903D1*
Y21893D1*
X15499D1*
Y21883D1*
Y21873D1*
Y21862D1*
Y21852D1*
Y21842D1*
Y21832D1*
Y21821D1*
Y21811D1*
X15837Y22006D2*
X15840Y21995D1*
X15845Y21985D1*
X15851Y21975D1*
X15855Y21965D1*
X15858Y21954D1*
X15888D1*
Y21944D1*
Y21934D1*
Y21924D1*
Y21914D1*
Y21903D1*
X15889Y21893D1*
X15891Y21883D1*
X15896Y21873D1*
X15902Y21862D1*
X15905Y21852D1*
X15907Y21842D1*
X15908Y21832D1*
X15909Y21821D1*
Y21811D1*
Y21801D1*
Y21791D1*
Y21780D1*
Y21770D1*
Y21760D1*
Y21750D1*
Y21740D1*
Y21729D1*
Y21719D1*
Y21709D1*
Y21699D1*
Y21688D1*
Y21678D1*
Y21668D1*
Y21658D1*
Y21647D1*
Y21637D1*
Y21627D1*
Y21617D1*
Y21606D1*
Y21596D1*
Y21586D1*
Y21576D1*
Y21565D1*
Y21555D1*
Y21545D1*
Y21535D1*
Y21525D1*
Y21514D1*
Y21504D1*
Y21494D1*
Y21484D1*
Y21473D1*
Y21463D1*
Y21453D1*
Y21443D1*
Y21432D1*
Y21422D1*
Y21412D1*
Y21402D1*
Y21391D1*
Y21381D1*
Y21371D1*
Y21361D1*
Y21351D1*
X16021Y22006D2*
Y21995D1*
Y21985D1*
Y21975D1*
Y21965D1*
Y21954D1*
Y21944D1*
Y21934D1*
Y21924D1*
Y21914D1*
Y21903D1*
Y21893D1*
Y21883D1*
Y21873D1*
Y21862D1*
Y21852D1*
Y21842D1*
Y21832D1*
Y21821D1*
Y21811D1*
Y21801D1*
Y21791D1*
Y21780D1*
Y21770D1*
Y21760D1*
Y21750D1*
Y21740D1*
Y21729D1*
Y21719D1*
Y21709D1*
Y21699D1*
Y21688D1*
Y21678D1*
Y21668D1*
Y21658D1*
Y21647D1*
Y21637D1*
Y21627D1*
Y21617D1*
Y21606D1*
Y21596D1*
Y21586D1*
Y21576D1*
Y21565D1*
Y21555D1*
Y21545D1*
Y21535D1*
Y21525D1*
Y21514D1*
Y21504D1*
Y21494D1*
Y21484D1*
Y21473D1*
Y21463D1*
Y21453D1*
Y21443D1*
Y21432D1*
Y21422D1*
Y21412D1*
Y21402D1*
Y21391D1*
Y21381D1*
Y21371D1*
Y21361D1*
Y21351D1*
X16154Y22006D2*
X16158Y21995D1*
X16163Y21985D1*
X16168Y21975D1*
X16172Y21965D1*
X16173Y21954D1*
X16174Y21944D1*
X16175Y21934D1*
Y21924D1*
Y21914D1*
Y21903D1*
Y21893D1*
Y21883D1*
Y21873D1*
Y21862D1*
Y21852D1*
Y21842D1*
Y21832D1*
Y21821D1*
Y21811D1*
Y21801D1*
Y21791D1*
Y21780D1*
Y21770D1*
Y21760D1*
Y21750D1*
Y21740D1*
Y21729D1*
Y21719D1*
Y21709D1*
Y21699D1*
Y21688D1*
Y21678D1*
Y21668D1*
Y21658D1*
Y21647D1*
Y21637D1*
Y21627D1*
Y21617D1*
Y21606D1*
Y21596D1*
Y21586D1*
Y21576D1*
Y21565D1*
Y21555D1*
Y21545D1*
Y21535D1*
Y21525D1*
Y21514D1*
Y21504D1*
Y21494D1*
Y21484D1*
Y21473D1*
Y21463D1*
Y21453D1*
Y21443D1*
Y21432D1*
Y21422D1*
Y21412D1*
X16174Y21402D1*
X16172Y21391D1*
X16167Y21381D1*
X16161Y21371D1*
X16157Y21361D1*
X16154Y21351D1*
X16287Y22006D2*
X16284Y21995D1*
X16279Y21985D1*
X16274Y21975D1*
X16270Y21965D1*
X16268Y21954D1*
Y21944D1*
X16267Y21934D1*
Y21924D1*
Y21914D1*
Y21903D1*
Y21893D1*
Y21883D1*
Y21873D1*
Y21862D1*
Y21852D1*
Y21842D1*
Y21832D1*
Y21821D1*
Y21811D1*
Y21801D1*
Y21791D1*
Y21780D1*
Y21770D1*
Y21760D1*
Y21750D1*
Y21740D1*
Y21729D1*
Y21719D1*
Y21709D1*
Y21699D1*
Y21688D1*
Y21678D1*
Y21668D1*
Y21658D1*
Y21647D1*
Y21637D1*
Y21627D1*
Y21617D1*
Y21606D1*
Y21596D1*
Y21586D1*
Y21576D1*
Y21565D1*
Y21555D1*
Y21545D1*
Y21535D1*
Y21525D1*
Y21514D1*
Y21504D1*
Y21494D1*
Y21484D1*
Y21473D1*
Y21463D1*
Y21453D1*
Y21443D1*
Y21432D1*
Y21422D1*
Y21412D1*
X16268Y21402D1*
X16270Y21391D1*
X16275Y21381D1*
X16281Y21371D1*
X16285Y21361D1*
X16287Y21351D1*
X16421Y22006D2*
Y21995D1*
X16422Y21985D1*
X16425Y21975D1*
X16437Y21965D1*
X16451Y21954D1*
X16482Y22006D2*
X16479Y21995D1*
X16472Y21985D1*
X16462Y21975D1*
X16448Y21965D1*
X16431Y21954D1*
X16646Y22006D2*
X16649Y21995D1*
X16654Y21985D1*
X16659Y21975D1*
X16663Y21965D1*
X16665Y21954D1*
X16666Y21944D1*
Y21934D1*
Y21924D1*
X16697D1*
Y21914D1*
Y21903D1*
Y21893D1*
Y21883D1*
Y21873D1*
Y21862D1*
Y21852D1*
Y21842D1*
Y21832D1*
Y21821D1*
Y21811D1*
Y21801D1*
Y21791D1*
Y21780D1*
Y21770D1*
Y21760D1*
Y21750D1*
Y21740D1*
Y21729D1*
Y21719D1*
Y21709D1*
Y21699D1*
Y21688D1*
Y21678D1*
Y21668D1*
Y21658D1*
Y21647D1*
Y21637D1*
Y21627D1*
Y21617D1*
Y21606D1*
Y21596D1*
Y21586D1*
Y21576D1*
Y21565D1*
Y21555D1*
Y21545D1*
Y21535D1*
Y21525D1*
Y21514D1*
Y21504D1*
Y21494D1*
Y21484D1*
Y21473D1*
Y21463D1*
Y21453D1*
Y21443D1*
Y21432D1*
Y21422D1*
Y21412D1*
Y21402D1*
Y21391D1*
Y21381D1*
Y21371D1*
Y21361D1*
Y21351D1*
X17219Y22006D2*
Y21995D1*
Y21985D1*
Y21975D1*
X17168D1*
X17161Y21965D1*
X17154Y21954D1*
X17147Y21944D1*
X17141Y21934D1*
X17134Y21924D1*
X17130Y21914D1*
X17128Y21903D1*
X17127Y21893D1*
Y21883D1*
Y21873D1*
Y21862D1*
Y21852D1*
Y21842D1*
Y21832D1*
X17096D1*
Y21821D1*
Y21811D1*
Y21801D1*
Y21791D1*
Y21780D1*
Y21770D1*
Y21760D1*
Y21750D1*
Y21740D1*
Y21729D1*
Y21719D1*
Y21709D1*
Y21699D1*
Y21688D1*
Y21678D1*
Y21668D1*
Y21658D1*
Y21647D1*
Y21637D1*
Y21627D1*
Y21617D1*
Y21606D1*
Y21596D1*
Y21586D1*
Y21576D1*
Y21565D1*
Y21555D1*
Y21545D1*
X17127D1*
Y21535D1*
Y21525D1*
Y21514D1*
Y21504D1*
Y21494D1*
X17128Y21484D1*
X17129Y21473D1*
X17135Y21463D1*
X17140Y21453D1*
X17144Y21443D1*
X17146Y21432D1*
X17148Y21422D1*
X17151Y21412D1*
X17156Y21402D1*
X17161Y21391D1*
X17165Y21381D1*
X17168Y21371D1*
X17219D1*
Y21361D1*
Y21351D1*
X17434Y22006D2*
X17437Y21995D1*
X17443Y21985D1*
X17451Y21975D1*
X17459Y21965D1*
X17467Y21954D1*
X17471Y21944D1*
X17473Y21934D1*
X17475Y21924D1*
X17506D1*
Y21914D1*
Y21903D1*
Y21893D1*
Y21883D1*
Y21873D1*
Y21862D1*
X17508Y21852D1*
X17514Y21842D1*
X17519Y21832D1*
X17523Y21821D1*
X17525Y21811D1*
X17526Y21801D1*
Y21791D1*
Y21780D1*
Y21770D1*
Y21760D1*
Y21750D1*
Y21740D1*
Y21729D1*
Y21719D1*
Y21709D1*
Y21699D1*
Y21688D1*
Y21678D1*
Y21668D1*
X17608Y22006D2*
Y21995D1*
Y21985D1*
Y21975D1*
Y21965D1*
Y21954D1*
Y21944D1*
Y21934D1*
Y21924D1*
Y21914D1*
Y21903D1*
Y21893D1*
Y21883D1*
Y21873D1*
Y21862D1*
Y21852D1*
Y21842D1*
Y21832D1*
Y21821D1*
Y21811D1*
Y21801D1*
Y21791D1*
Y21780D1*
Y21770D1*
Y21760D1*
Y21750D1*
Y21740D1*
Y21729D1*
Y21719D1*
Y21709D1*
Y21699D1*
Y21688D1*
Y21678D1*
Y21668D1*
Y21658D1*
Y21647D1*
Y21637D1*
Y21627D1*
Y21617D1*
Y21606D1*
Y21596D1*
Y21586D1*
Y21576D1*
Y21565D1*
Y21555D1*
Y21545D1*
Y21535D1*
Y21525D1*
Y21514D1*
Y21504D1*
Y21494D1*
Y21484D1*
Y21473D1*
Y21463D1*
Y21453D1*
Y21443D1*
Y21432D1*
Y21422D1*
Y21412D1*
Y21402D1*
Y21391D1*
Y21381D1*
Y21371D1*
Y21361D1*
Y21351D1*
X17751Y22006D2*
Y21995D1*
Y21985D1*
Y21975D1*
Y21965D1*
X17752Y21954D1*
X17754Y21944D1*
X17762Y21934D1*
X17772Y21924D1*
X17813Y22006D2*
Y21995D1*
Y21985D1*
Y21975D1*
X17782D1*
Y21965D1*
X17781Y21954D1*
X17779Y21944D1*
X17771Y21934D1*
X17762Y21924D1*
X17895Y22006D2*
Y21995D1*
Y21985D1*
Y21975D1*
Y21965D1*
Y21954D1*
Y21944D1*
Y21934D1*
Y21924D1*
Y21914D1*
Y21903D1*
Y21893D1*
Y21883D1*
Y21873D1*
Y21862D1*
Y21852D1*
Y21842D1*
Y21832D1*
X17802D1*
Y21821D1*
Y21811D1*
Y21801D1*
X17772D1*
X17769Y21791D1*
X17764Y21780D1*
X17758Y21770D1*
X17755Y21760D1*
X17753Y21750D1*
X17752Y21740D1*
X17751Y21729D1*
Y21719D1*
Y21709D1*
Y21699D1*
Y21688D1*
Y21678D1*
Y21668D1*
Y21658D1*
Y21647D1*
Y21637D1*
Y21627D1*
Y21617D1*
Y21606D1*
Y21596D1*
Y21586D1*
Y21576D1*
Y21565D1*
Y21555D1*
Y21545D1*
Y21535D1*
Y21525D1*
Y21514D1*
Y21504D1*
Y21494D1*
Y21484D1*
Y21473D1*
Y21463D1*
Y21453D1*
Y21443D1*
Y21432D1*
Y21422D1*
Y21412D1*
Y21402D1*
Y21391D1*
Y21381D1*
Y21371D1*
Y21361D1*
Y21351D1*
X18058Y22006D2*
Y21995D1*
Y21985D1*
Y21975D1*
X18007D1*
Y21965D1*
Y21954D1*
X17976D1*
Y21944D1*
Y21934D1*
Y21924D1*
X17974Y21914D1*
X17968Y21903D1*
X17963Y21893D1*
X17959Y21883D1*
X17957Y21873D1*
Y21862D1*
X17956Y21852D1*
Y21842D1*
Y21832D1*
Y21821D1*
Y21811D1*
Y21801D1*
Y21791D1*
X17957Y21780D1*
X17958Y21770D1*
X17964Y21760D1*
X17970Y21750D1*
X17973Y21740D1*
X17975Y21729D1*
X17976Y21719D1*
Y21709D1*
Y21699D1*
Y21688D1*
X18028D1*
Y21678D1*
Y21668D1*
Y21658D1*
X18058D1*
Y21647D1*
Y21637D1*
Y21627D1*
X18130D1*
Y21617D1*
Y21606D1*
Y21596D1*
X18181D1*
X18188Y21586D1*
X18195Y21576D1*
X18202Y21565D1*
X18208Y21555D1*
X18215Y21545D1*
X18219Y21535D1*
X18221Y21525D1*
X18222Y21514D1*
Y21504D1*
Y21494D1*
Y21484D1*
X18202D1*
Y21473D1*
Y21463D1*
X18130Y21453D1*
X18263Y22006D2*
Y21995D1*
Y21985D1*
Y21975D1*
X18314D1*
X18321Y21965D1*
X18327Y21954D1*
X18331Y21944D1*
X18333Y21934D1*
X18334Y21924D1*
X18335Y21914D1*
Y21903D1*
Y21893D1*
X18365D1*
Y21883D1*
Y21873D1*
Y21862D1*
Y21852D1*
Y21842D1*
Y21832D1*
X18335D1*
Y21821D1*
Y21811D1*
X13360Y21903D2*
Y21893D1*
Y21883D1*
Y21873D1*
Y21862D1*
Y21852D1*
Y21842D1*
Y21832D1*
Y21821D1*
Y21811D1*
Y21801D1*
X13329D1*
Y21791D1*
Y21780D1*
Y21770D1*
Y21760D1*
Y21750D1*
Y21740D1*
Y21729D1*
Y21719D1*
Y21709D1*
Y21699D1*
Y21688D1*
Y21678D1*
Y21668D1*
Y21658D1*
Y21647D1*
Y21637D1*
Y21627D1*
Y21617D1*
Y21606D1*
Y21596D1*
Y21586D1*
Y21576D1*
Y21565D1*
Y21555D1*
Y21545D1*
X13360D1*
Y21535D1*
Y21525D1*
Y21514D1*
Y21504D1*
Y21494D1*
Y21484D1*
X13380D1*
Y21473D1*
Y21463D1*
X13432Y21453D1*
X13442Y21903D2*
X13443Y21893D1*
X13444Y21883D1*
X13450Y21873D1*
X13455Y21862D1*
X13459Y21852D1*
X13461Y21842D1*
X13462Y21832D1*
Y21821D1*
Y21811D1*
Y21801D1*
Y21791D1*
Y21780D1*
Y21770D1*
Y21760D1*
Y21750D1*
Y21740D1*
Y21729D1*
Y21719D1*
Y21709D1*
Y21699D1*
Y21688D1*
Y21678D1*
Y21668D1*
Y21658D1*
Y21647D1*
Y21637D1*
Y21627D1*
Y21617D1*
Y21606D1*
Y21596D1*
Y21586D1*
Y21576D1*
Y21565D1*
Y21555D1*
Y21545D1*
Y21535D1*
Y21525D1*
Y21514D1*
Y21504D1*
Y21494D1*
Y21484D1*
X13442D1*
Y21473D1*
Y21463D1*
X13391Y21453D1*
X13902Y21903D2*
Y21893D1*
Y21883D1*
Y21873D1*
Y21862D1*
X13872D1*
X13869Y21852D1*
X13864Y21842D1*
X13858Y21832D1*
X13855Y21821D1*
X13853Y21811D1*
X13852Y21801D1*
X13851Y21791D1*
Y21780D1*
Y21770D1*
Y21760D1*
Y21750D1*
Y21740D1*
Y21729D1*
Y21719D1*
Y21709D1*
Y21699D1*
Y21688D1*
Y21678D1*
Y21668D1*
Y21658D1*
Y21647D1*
Y21637D1*
Y21627D1*
Y21617D1*
Y21606D1*
Y21596D1*
Y21586D1*
X13852Y21576D1*
X13854Y21565D1*
X13859Y21555D1*
X13865Y21545D1*
X13868Y21535D1*
X13870Y21525D1*
X13871Y21514D1*
X13872Y21504D1*
Y21494D1*
X13943Y21484D1*
X13933Y21903D2*
X13934Y21893D1*
X13936Y21883D1*
X13941Y21873D1*
X13947Y21862D1*
X13950Y21852D1*
X13952Y21842D1*
X13954Y21832D1*
X13984D1*
Y21821D1*
Y21811D1*
Y21801D1*
Y21791D1*
Y21780D1*
Y21770D1*
Y21760D1*
Y21750D1*
Y21740D1*
Y21729D1*
Y21719D1*
Y21709D1*
Y21699D1*
Y21688D1*
Y21678D1*
Y21668D1*
Y21658D1*
Y21647D1*
Y21637D1*
Y21627D1*
Y21617D1*
Y21606D1*
Y21596D1*
Y21586D1*
Y21576D1*
Y21565D1*
Y21555D1*
Y21545D1*
Y21535D1*
Y21525D1*
Y21514D1*
X13954D1*
Y21504D1*
Y21494D1*
X13882Y21484D1*
X14394Y21903D2*
Y21893D1*
Y21883D1*
Y21873D1*
Y21862D1*
Y21852D1*
Y21842D1*
Y21832D1*
X14363D1*
Y21821D1*
Y21811D1*
Y21801D1*
Y21791D1*
Y21780D1*
Y21770D1*
X14394D1*
Y21760D1*
X14486Y21750D1*
X14476Y21903D2*
Y21893D1*
X14478Y21883D1*
X14484Y21873D1*
X14489Y21862D1*
X14493Y21852D1*
X14495Y21842D1*
X14496Y21832D1*
Y21821D1*
Y21811D1*
Y21801D1*
Y21791D1*
Y21780D1*
Y21770D1*
Y21760D1*
X14404Y21750D1*
X15663Y21903D2*
X15662Y21893D1*
X15661Y21883D1*
X15655Y21873D1*
X15650Y21862D1*
X15646Y21852D1*
X15644Y21842D1*
X15643Y21832D1*
Y21821D1*
Y21811D1*
X15745Y21903D2*
Y21893D1*
Y21883D1*
Y21873D1*
Y21862D1*
Y21852D1*
Y21842D1*
Y21832D1*
Y21821D1*
Y21811D1*
X15744Y21801D1*
X15742Y21791D1*
X15737Y21780D1*
X15731Y21770D1*
X15727Y21760D1*
X15725Y21750D1*
X15622D1*
Y21740D1*
Y21729D1*
Y21719D1*
X15550D1*
X15547Y21709D1*
X15542Y21699D1*
X15537Y21688D1*
X15533Y21678D1*
X15531Y21668D1*
X15530Y21658D1*
X15499D1*
Y21647D1*
Y21637D1*
Y21627D1*
Y21617D1*
Y21606D1*
X15497Y21596D1*
X15491Y21586D1*
X15486Y21576D1*
X15482Y21565D1*
X15480Y21555D1*
X15479Y21545D1*
Y21535D1*
Y21525D1*
Y21514D1*
Y21504D1*
Y21494D1*
Y21484D1*
X15499D1*
Y21473D1*
Y21463D1*
Y21453D1*
Y21443D1*
Y21432D1*
Y21422D1*
Y21412D1*
Y21402D1*
Y21391D1*
X15530D1*
X15537Y21381D1*
X15543Y21371D1*
X15547Y21361D1*
X15550Y21351D1*
X17280Y21903D2*
Y21893D1*
X17278Y21883D1*
X17272Y21873D1*
X17267Y21862D1*
X17263Y21852D1*
X17261Y21842D1*
Y21832D1*
X17260Y21821D1*
Y21811D1*
Y21801D1*
Y21791D1*
Y21780D1*
Y21770D1*
Y21760D1*
X17352Y21750D1*
X17362Y21903D2*
Y21893D1*
Y21883D1*
Y21873D1*
Y21862D1*
Y21852D1*
Y21842D1*
Y21832D1*
Y21821D1*
Y21811D1*
Y21801D1*
Y21791D1*
Y21780D1*
Y21770D1*
Y21760D1*
X17270Y21750D1*
X18120Y21903D2*
Y21893D1*
Y21883D1*
Y21873D1*
Y21862D1*
X18089D1*
Y21852D1*
Y21842D1*
Y21832D1*
X18120D1*
Y21821D1*
Y21811D1*
Y21801D1*
Y21791D1*
Y21780D1*
Y21770D1*
X18191D1*
Y21760D1*
Y21750D1*
X18263D1*
Y21740D1*
Y21729D1*
Y21719D1*
X18314D1*
X18317Y21709D1*
X18323Y21699D1*
X18328Y21688D1*
X18331Y21678D1*
X18333Y21668D1*
X18334Y21658D1*
X18335Y21647D1*
Y21637D1*
Y21627D1*
X18365D1*
Y21617D1*
Y21606D1*
Y21596D1*
Y21586D1*
Y21576D1*
Y21565D1*
Y21555D1*
Y21545D1*
Y21535D1*
Y21525D1*
Y21514D1*
Y21504D1*
Y21494D1*
Y21484D1*
Y21473D1*
Y21463D1*
Y21453D1*
X18335D1*
X18332Y21443D1*
X18326Y21432D1*
X18320Y21422D1*
X18314Y21412D1*
X18307Y21402D1*
X18301Y21391D1*
X18297Y21381D1*
X18294Y21371D1*
X18243D1*
Y21361D1*
Y21351D1*
X18202Y21903D2*
Y21893D1*
X18204Y21883D1*
X18210Y21873D1*
X18215Y21862D1*
X18219Y21852D1*
X18221Y21842D1*
X18222Y21832D1*
Y21821D1*
Y21811D1*
X16451Y21873D2*
Y21862D1*
Y21852D1*
Y21842D1*
Y21832D1*
X16421D1*
Y21821D1*
Y21811D1*
Y21801D1*
Y21791D1*
Y21780D1*
Y21770D1*
Y21760D1*
Y21750D1*
Y21740D1*
Y21729D1*
Y21719D1*
Y21709D1*
Y21699D1*
Y21688D1*
Y21678D1*
Y21668D1*
Y21658D1*
Y21647D1*
Y21637D1*
Y21627D1*
Y21617D1*
Y21606D1*
Y21596D1*
Y21586D1*
Y21576D1*
Y21565D1*
Y21555D1*
Y21545D1*
Y21535D1*
Y21525D1*
Y21514D1*
Y21504D1*
Y21494D1*
Y21484D1*
Y21473D1*
Y21463D1*
Y21453D1*
Y21443D1*
Y21432D1*
Y21422D1*
Y21412D1*
Y21402D1*
Y21391D1*
Y21381D1*
Y21371D1*
Y21361D1*
Y21351D1*
X16533Y21873D2*
Y21862D1*
Y21852D1*
Y21842D1*
Y21832D1*
Y21821D1*
Y21811D1*
Y21801D1*
Y21791D1*
Y21780D1*
Y21770D1*
Y21760D1*
Y21750D1*
Y21740D1*
Y21729D1*
Y21719D1*
Y21709D1*
Y21699D1*
Y21688D1*
Y21678D1*
Y21668D1*
Y21658D1*
Y21647D1*
Y21637D1*
Y21627D1*
Y21617D1*
Y21606D1*
Y21596D1*
Y21586D1*
Y21576D1*
Y21565D1*
Y21555D1*
Y21545D1*
Y21535D1*
Y21525D1*
Y21514D1*
Y21504D1*
Y21494D1*
Y21484D1*
Y21473D1*
Y21463D1*
Y21453D1*
Y21443D1*
Y21432D1*
Y21422D1*
Y21412D1*
X16534Y21402D1*
X16536Y21391D1*
X16541Y21381D1*
X16547Y21371D1*
X16551Y21361D1*
X16554Y21351D1*
X12981Y21688D2*
Y21678D1*
Y21668D1*
Y21658D1*
Y21647D1*
Y21637D1*
Y21627D1*
Y21617D1*
Y21606D1*
Y21596D1*
Y21586D1*
Y21576D1*
Y21565D1*
Y21555D1*
Y21545D1*
X12950D1*
Y21535D1*
Y21525D1*
Y21514D1*
Y21504D1*
Y21494D1*
X12858Y21484D1*
X12991Y21688D2*
Y21678D1*
Y21668D1*
Y21658D1*
X13094D1*
Y21647D1*
Y21637D1*
Y21627D1*
X13135D1*
Y21617D1*
X13134Y21606D1*
X13132Y21596D1*
X13127Y21586D1*
X13121Y21576D1*
X13118Y21565D1*
X13116Y21555D1*
X13115Y21545D1*
X13114Y21535D1*
Y21525D1*
Y21514D1*
Y21504D1*
Y21494D1*
X13113Y21484D1*
X13112Y21473D1*
X13106Y21463D1*
X13101Y21453D1*
X13097Y21443D1*
X13095Y21432D1*
X13094Y21422D1*
X13063D1*
X13060Y21412D1*
X13055Y21402D1*
X13049Y21391D1*
X13046Y21381D1*
X13043Y21371D1*
X12991D1*
Y21361D1*
Y21351D1*
X15151Y21699D2*
Y21688D1*
Y21678D1*
Y21668D1*
Y21658D1*
Y21647D1*
Y21637D1*
Y21627D1*
Y21617D1*
Y21606D1*
Y21596D1*
Y21586D1*
Y21576D1*
Y21565D1*
Y21555D1*
Y21545D1*
Y21535D1*
Y21525D1*
Y21514D1*
Y21504D1*
Y21494D1*
Y21484D1*
Y21473D1*
Y21463D1*
Y21453D1*
Y21443D1*
Y21432D1*
Y21422D1*
Y21412D1*
Y21402D1*
Y21391D1*
Y21381D1*
Y21371D1*
Y21361D1*
Y21351D1*
X14394Y21668D2*
Y21658D1*
Y21647D1*
Y21637D1*
Y21627D1*
X14363D1*
Y21617D1*
Y21606D1*
Y21596D1*
Y21586D1*
Y21576D1*
Y21565D1*
Y21555D1*
Y21545D1*
Y21535D1*
Y21525D1*
Y21514D1*
X14394D1*
Y21504D1*
Y21494D1*
Y21484D1*
Y21473D1*
Y21463D1*
X14465Y21453D1*
X15694Y21668D2*
Y21658D1*
Y21647D1*
Y21637D1*
Y21627D1*
X15663D1*
X15660Y21617D1*
X15655Y21606D1*
X15650Y21596D1*
X15646Y21586D1*
X15644Y21576D1*
X15643Y21565D1*
Y21555D1*
Y21545D1*
Y21535D1*
Y21525D1*
Y21514D1*
Y21504D1*
Y21494D1*
X15735Y21484D1*
X15745Y21668D2*
Y21658D1*
Y21647D1*
Y21637D1*
Y21627D1*
Y21617D1*
Y21606D1*
Y21596D1*
Y21586D1*
Y21576D1*
Y21565D1*
Y21555D1*
Y21545D1*
Y21535D1*
Y21525D1*
Y21514D1*
Y21504D1*
Y21494D1*
X15653Y21484D1*
X17260Y21668D2*
Y21658D1*
Y21647D1*
Y21637D1*
Y21627D1*
Y21617D1*
Y21606D1*
Y21596D1*
Y21586D1*
Y21576D1*
Y21565D1*
Y21555D1*
Y21545D1*
Y21535D1*
Y21525D1*
Y21514D1*
Y21504D1*
Y21494D1*
Y21484D1*
X17280D1*
Y21473D1*
Y21463D1*
X17332Y21453D1*
X14496Y21576D2*
Y21565D1*
Y21555D1*
Y21545D1*
Y21535D1*
Y21525D1*
Y21514D1*
Y21504D1*
Y21494D1*
Y21484D1*
X14476D1*
Y21473D1*
Y21463D1*
X14404Y21453D1*
X14629Y21576D2*
Y21565D1*
Y21555D1*
Y21545D1*
Y21535D1*
Y21525D1*
Y21514D1*
Y21504D1*
Y21494D1*
X14628Y21484D1*
X14627Y21473D1*
X14621Y21463D1*
X14615Y21453D1*
X14609Y21443D1*
X14602Y21432D1*
X14596Y21422D1*
X14592Y21412D1*
X14590Y21402D1*
X14588Y21391D1*
X14558D1*
Y21381D1*
Y21371D1*
X14506D1*
Y21361D1*
Y21351D1*
X17393Y21576D2*
Y21565D1*
Y21555D1*
Y21545D1*
X17362D1*
Y21535D1*
Y21525D1*
Y21514D1*
Y21504D1*
Y21494D1*
Y21484D1*
X17342D1*
Y21473D1*
Y21463D1*
X17291Y21453D1*
X17526Y21576D2*
Y21565D1*
Y21555D1*
X17525Y21545D1*
X17524Y21535D1*
X17518Y21525D1*
X17513Y21514D1*
X17509Y21504D1*
X17507Y21494D1*
X17506Y21484D1*
Y21473D1*
Y21463D1*
Y21453D1*
Y21443D1*
Y21432D1*
Y21422D1*
X17475D1*
X17472Y21412D1*
X17467Y21402D1*
X17461Y21391D1*
X17457Y21381D1*
X17454Y21371D1*
X17403D1*
Y21361D1*
Y21351D1*
X17956Y21576D2*
Y21565D1*
Y21555D1*
Y21545D1*
Y21535D1*
Y21525D1*
Y21514D1*
Y21504D1*
Y21494D1*
X17957Y21484D1*
X17958Y21473D1*
X17964Y21463D1*
X17970Y21453D1*
X17973Y21443D1*
X17975Y21432D1*
X17976Y21422D1*
Y21412D1*
Y21402D1*
Y21391D1*
X18007D1*
Y21381D1*
Y21371D1*
X18058D1*
Y21361D1*
Y21351D1*
X18089Y21576D2*
Y21565D1*
Y21555D1*
Y21545D1*
Y21535D1*
Y21525D1*
Y21514D1*
Y21504D1*
Y21494D1*
Y21484D1*
X18120D1*
Y21473D1*
Y21463D1*
X18191Y21453D1*
X13943Y21402D2*
X13940Y21391D1*
X13935Y21381D1*
X13930Y21371D1*
X13926Y21361D1*
X13923Y21351D1*
X13984Y21402D2*
X13988Y21391D1*
X13993Y21381D1*
X13998Y21371D1*
X14002Y21361D1*
X14005Y21351D1*
X15714Y21402D2*
X15711Y21391D1*
X15706Y21381D1*
X15701Y21371D1*
X15697Y21361D1*
X15694Y21351D1*
X15776Y21402D2*
Y21391D1*
Y21381D1*
Y21371D1*
Y21361D1*
Y21351D1*
X15458Y21105D2*
Y21095D1*
Y21084D1*
Y21074D1*
X15376D1*
X15371Y21064D1*
X15355Y21054D1*
X15336Y21043D1*
X15489Y21105D2*
X15493Y21095D1*
X15505Y21084D1*
X15520Y21074D1*
X15530Y21105D2*
X15526Y21095D1*
X15514Y21084D1*
X15499Y21074D1*
X15540Y21105D2*
Y21095D1*
Y21084D1*
Y21074D1*
Y21064D1*
Y21054D1*
Y21043D1*
X15571D1*
Y21033D1*
Y21023D1*
X16062Y21105D2*
Y21095D1*
Y21084D1*
Y21074D1*
Y21064D1*
Y21054D1*
Y21043D1*
X16033D1*
X16012Y21033D1*
X15991Y21023D1*
X16083Y21105D2*
Y21095D1*
Y21084D1*
Y21074D1*
X15284D2*
Y21064D1*
Y21054D1*
Y21043D1*
X15237D1*
X15208Y21033D1*
X15182Y21023D1*
X15325Y21074D2*
X15331Y21064D1*
X15347Y21054D1*
X15366Y21043D1*
X16206Y21074D2*
Y21064D1*
Y21054D1*
Y21043D1*
X17270Y21074D2*
Y21064D1*
Y21054D1*
Y21043D1*
X17199D1*
Y21033D1*
X17096Y21023D1*
X17383Y21074D2*
Y21064D1*
Y21054D1*
Y21043D1*
X17475D1*
Y21033D1*
Y21023D1*
X17577D1*
Y21013D1*
Y21003D1*
Y20992D1*
X14496Y21043D2*
X14489Y21033D1*
X14483Y21023D1*
X14479Y21013D1*
X14477Y21003D1*
X14476Y20992D1*
Y20982D1*
Y20972D1*
Y20962D1*
Y20951D1*
Y20941D1*
X14425Y20931D1*
X14609Y21043D2*
X14618Y21033D1*
X14629Y21023D1*
X14639Y21043D2*
X14630Y21033D1*
X14619Y21023D1*
X14732Y21043D2*
Y21033D1*
Y21023D1*
X14865Y21043D2*
Y21033D1*
Y21023D1*
X14906Y21043D2*
X14915Y21033D1*
X14926Y21023D1*
X14936Y21043D2*
X14927Y21033D1*
X14916Y21023D1*
X15080Y21043D2*
X15089Y21033D1*
X15100Y21023D1*
X15110Y21043D2*
X15101Y21033D1*
X15090Y21023D1*
X15172Y21043D2*
X15186Y21033D1*
X15202Y21023D1*
X15704Y21043D2*
Y21033D1*
Y21023D1*
X15735Y21043D2*
Y21033D1*
X15817Y21023D1*
X15827Y21043D2*
Y21033D1*
X15745Y21023D1*
X15980Y21043D2*
X15995Y21033D1*
X16011Y21023D1*
X16451Y21043D2*
Y21033D1*
Y21023D1*
X16584Y21043D2*
Y21033D1*
Y21023D1*
X16595Y21043D2*
Y21033D1*
Y21023D1*
X16728Y21043D2*
Y21033D1*
Y21023D1*
X16820Y21043D2*
X16829Y21033D1*
X16840Y21023D1*
X16850Y21043D2*
X16841Y21033D1*
X16830Y21023D1*
X17086Y21043D2*
Y21033D1*
X17188Y21023D1*
X17782D2*
Y21013D1*
Y21003D1*
Y20992D1*
X17802Y21023D2*
Y21013D1*
Y21003D1*
Y20992D1*
X17874D1*
Y20982D1*
Y20972D1*
Y20962D1*
Y20951D1*
Y20941D1*
X17946Y20931D1*
X13862Y20992D2*
Y20982D1*
Y20972D1*
Y20962D1*
Y20951D1*
Y20941D1*
Y20931D1*
X13872Y20992D2*
Y20982D1*
Y20972D1*
Y20962D1*
X14056Y20992D2*
Y20982D1*
Y20972D1*
Y20962D1*
X14414Y20992D2*
Y20982D1*
Y20972D1*
Y20962D1*
Y20951D1*
Y20941D1*
X14465Y20931D1*
X16011Y21003D2*
Y20992D1*
Y20982D1*
Y20972D1*
Y20962D1*
X15980D1*
Y20951D1*
Y20941D1*
Y20931D1*
Y20921D1*
Y20910D1*
Y20900D1*
X15909D1*
Y20890D1*
Y20880D1*
X16042Y21003D2*
X16041Y20992D1*
X16039Y20982D1*
X16034Y20972D1*
X16028Y20962D1*
X16025Y20951D1*
X16023Y20941D1*
X16022Y20931D1*
Y20921D1*
X16021Y20910D1*
Y20900D1*
X16062D1*
Y20890D1*
Y20880D1*
X16595Y21003D2*
X16594Y20992D1*
X16592Y20982D1*
X16587Y20972D1*
X16581Y20962D1*
X16577Y20951D1*
X16575Y20941D1*
X16574Y20931D1*
X16543D1*
Y20921D1*
Y20910D1*
Y20900D1*
X16472D1*
Y20890D1*
Y20880D1*
X16636Y21003D2*
Y20992D1*
Y20982D1*
Y20972D1*
Y20962D1*
Y20951D1*
Y20941D1*
Y20931D1*
Y20921D1*
Y20910D1*
Y20900D1*
X16676D1*
Y20890D1*
Y20880D1*
X16963Y21003D2*
Y20992D1*
Y20982D1*
Y20972D1*
X16962Y20962D1*
X16961Y20951D1*
X16955Y20941D1*
X16950Y20931D1*
X16946Y20921D1*
X16944Y20910D1*
X16943Y20900D1*
X16912D1*
Y20890D1*
Y20880D1*
X17045Y21003D2*
X17044Y20992D1*
X17042Y20982D1*
X17037Y20972D1*
X17031Y20962D1*
X17024Y20951D1*
X17018Y20941D1*
X17012Y20931D1*
X17008Y20921D1*
X17005Y20910D1*
X17004Y20900D1*
X16973D1*
X16970Y20890D1*
X16965Y20880D1*
X16960Y20869D1*
X16958Y20859D1*
X16962Y20849D1*
X16967Y20839D1*
X16971Y20828D1*
X16973Y20818D1*
X17004D1*
Y20808D1*
Y20798D1*
X17976Y20992D2*
X17973Y20982D1*
X17968Y20972D1*
X17960Y20962D1*
X17949Y20951D1*
X17920Y20941D1*
X17884Y20931D1*
X17997Y20992D2*
Y20982D1*
Y20972D1*
Y20962D1*
X18089D1*
Y20951D1*
Y20941D1*
Y20931D1*
X18048D1*
Y20921D1*
Y20910D1*
Y20900D1*
Y20890D1*
Y20880D1*
X18376Y20992D2*
Y20982D1*
Y20972D1*
X18386Y20992D2*
Y20982D1*
Y20972D1*
X16175D2*
X16174Y20962D1*
X16172Y20951D1*
X16167Y20941D1*
X16161Y20931D1*
X16158Y20921D1*
X16156Y20910D1*
X16154Y20900D1*
X16103D1*
Y20890D1*
Y20880D1*
X16236Y20972D2*
Y20962D1*
Y20951D1*
Y20941D1*
Y20931D1*
Y20921D1*
Y20910D1*
Y20900D1*
X16165D1*
Y20890D1*
Y20880D1*
X17209Y20972D2*
X17208Y20962D1*
X17206Y20951D1*
X17201Y20941D1*
X17195Y20931D1*
X17192Y20921D1*
X17190Y20910D1*
X17189Y20900D1*
X17188Y20890D1*
Y20880D1*
Y20869D1*
Y20859D1*
Y20849D1*
X17270Y20972D2*
X17271Y20962D1*
X17273Y20951D1*
X17278Y20941D1*
X17284Y20931D1*
X17285Y20921D1*
X17281Y20910D1*
X17277Y20900D1*
X17273Y20890D1*
X17272Y20880D1*
X17271Y20869D1*
X17270Y20859D1*
Y20849D1*
X17751Y20972D2*
Y20962D1*
Y20951D1*
Y20941D1*
X17833Y20972D2*
Y20962D1*
Y20951D1*
Y20941D1*
Y20931D1*
Y20921D1*
Y20910D1*
X17834Y20900D1*
X17836Y20890D1*
X17841Y20880D1*
X17847Y20869D1*
X17851Y20859D1*
X17854Y20849D1*
X18222Y20962D2*
Y20951D1*
Y20941D1*
X18243Y20962D2*
Y20951D1*
Y20941D1*
Y20931D1*
X18212D1*
Y20921D1*
Y20910D1*
Y20900D1*
Y20890D1*
Y20880D1*
Y20869D1*
Y20859D1*
Y20849D1*
Y20839D1*
Y20828D1*
X13462Y20931D2*
Y20921D1*
Y20910D1*
Y20900D1*
X13483Y20931D2*
Y20921D1*
Y20910D1*
Y20900D1*
X13534D1*
X13537Y20890D1*
X13545Y20880D1*
X13554Y20869D1*
X13636Y20931D2*
Y20921D1*
Y20910D1*
Y20900D1*
X13565D1*
X13562Y20890D1*
X13554Y20880D1*
X13544Y20869D1*
X16871Y20941D2*
Y20931D1*
Y20921D1*
Y20910D1*
Y20900D1*
X16840D1*
Y20890D1*
Y20880D1*
Y20869D1*
X16789D1*
Y20859D1*
Y20849D1*
X16902Y20941D2*
Y20931D1*
Y20921D1*
Y20910D1*
Y20900D1*
Y20890D1*
Y20880D1*
X17598Y20941D2*
X17597Y20931D1*
X17595Y20921D1*
X17590Y20910D1*
X17584Y20900D1*
X17581Y20890D1*
X17579Y20880D1*
X17578Y20869D1*
X17577Y20859D1*
Y20849D1*
X17966Y20941D2*
Y20931D1*
Y20921D1*
Y20910D1*
Y20900D1*
X17925D1*
Y20890D1*
Y20880D1*
Y20869D1*
Y20859D1*
Y20849D1*
X18007Y20941D2*
X18008Y20931D1*
X18010Y20921D1*
X18015Y20910D1*
X18021Y20900D1*
X18025Y20890D1*
X18028Y20880D1*
X18202Y20931D2*
Y20921D1*
Y20910D1*
Y20900D1*
Y20890D1*
Y20880D1*
Y20869D1*
X18150D1*
Y20859D1*
Y20849D1*
Y20839D1*
Y20828D1*
X18304Y20931D2*
Y20921D1*
Y20910D1*
Y20900D1*
Y20890D1*
Y20880D1*
X18314Y20931D2*
Y20921D1*
Y20910D1*
Y20900D1*
Y20890D1*
Y20880D1*
X13247Y20900D2*
Y20890D1*
Y20880D1*
Y20869D1*
X13196D1*
X13194Y20859D1*
X13185Y20849D1*
X13176Y20839D1*
X15346Y20910D2*
Y20900D1*
Y20890D1*
Y20880D1*
X15407Y20910D2*
Y20900D1*
Y20890D1*
Y20880D1*
Y20869D1*
X15376D1*
Y20859D1*
Y20849D1*
Y20839D1*
X15428D1*
Y20828D1*
X15765Y20910D2*
Y20900D1*
Y20890D1*
Y20880D1*
X15868Y20910D2*
Y20900D1*
Y20890D1*
Y20880D1*
X16257Y20910D2*
Y20900D1*
Y20890D1*
Y20880D1*
X16410Y20910D2*
Y20900D1*
Y20890D1*
Y20880D1*
X16584Y20900D2*
Y20890D1*
Y20880D1*
X16595Y20900D2*
Y20890D1*
Y20880D1*
X16697Y20910D2*
Y20900D1*
Y20890D1*
Y20880D1*
X16758Y20910D2*
X16759Y20900D1*
X16761Y20890D1*
X16766Y20880D1*
X16772Y20869D1*
X16776Y20859D1*
X16779Y20849D1*
X17035Y20910D2*
Y20900D1*
Y20890D1*
Y20880D1*
Y20869D1*
X16994D1*
Y20859D1*
Y20849D1*
Y20839D1*
Y20828D1*
X17096Y20910D2*
X17095Y20900D1*
X17094Y20890D1*
X17088Y20880D1*
X17083Y20869D1*
X17079Y20859D1*
X17076Y20849D1*
X17383Y20910D2*
Y20900D1*
Y20890D1*
Y20880D1*
Y20869D1*
X17352D1*
Y20859D1*
Y20849D1*
X17516Y20910D2*
Y20900D1*
Y20890D1*
Y20880D1*
Y20869D1*
X17567D1*
Y20859D1*
Y20849D1*
X13145Y20869D2*
Y20859D1*
Y20849D1*
Y20839D1*
X13073D1*
Y20828D1*
Y20818D1*
X13165Y20869D2*
X13168Y20859D1*
X13176Y20849D1*
X13186Y20839D1*
X15202Y20880D2*
Y20869D1*
Y20859D1*
Y20849D1*
Y20839D1*
X15121D1*
Y20828D1*
X15417Y20880D2*
Y20869D1*
Y20859D1*
Y20849D1*
X15530Y20880D2*
Y20869D1*
Y20859D1*
Y20849D1*
X15571Y20880D2*
Y20869D1*
Y20859D1*
Y20849D1*
X15602Y20880D2*
Y20869D1*
Y20859D1*
Y20849D1*
X15612Y20880D2*
Y20869D1*
Y20859D1*
Y20849D1*
X17311Y20880D2*
Y20869D1*
Y20859D1*
Y20849D1*
X17342Y20880D2*
Y20869D1*
Y20859D1*
Y20849D1*
X17608Y20869D2*
Y20859D1*
Y20849D1*
X17628Y20869D2*
Y20859D1*
Y20849D1*
X13800D2*
X13797Y20839D1*
X13792Y20828D1*
X13787Y20818D1*
X13783Y20808D1*
X13781Y20798D1*
X13780Y20788D1*
X13749D1*
Y20777D1*
Y20767D1*
X13831Y20849D2*
Y20839D1*
Y20828D1*
Y20818D1*
X13882D1*
Y20808D1*
Y20798D1*
X13974Y20849D2*
X13977Y20839D1*
X13982Y20828D1*
X13988Y20818D1*
X13992Y20808D1*
X13995Y20798D1*
X14056Y20849D2*
Y20839D1*
Y20828D1*
Y20818D1*
Y20808D1*
Y20798D1*
X14394Y20849D2*
Y20839D1*
Y20828D1*
Y20818D1*
X14312D1*
Y20808D1*
Y20798D1*
X14425Y20849D2*
Y20839D1*
Y20828D1*
X14486Y20849D2*
Y20839D1*
Y20828D1*
X14547Y20849D2*
Y20839D1*
Y20828D1*
X14588Y20849D2*
Y20839D1*
Y20828D1*
X14639Y20849D2*
Y20839D1*
Y20828D1*
Y20818D1*
X14691D1*
Y20808D1*
Y20798D1*
X14957Y20849D2*
Y20839D1*
Y20828D1*
X15059Y20849D2*
Y20839D1*
Y20828D1*
X15469Y20839D2*
Y20828D1*
X16850Y20839D2*
Y20828D1*
X16871Y20839D2*
Y20828D1*
X17025Y20839D2*
Y20828D1*
X17035Y20839D2*
X17028Y20828D1*
X17022Y20818D1*
X17017Y20808D1*
X17014Y20798D1*
X17199Y20839D2*
Y20828D1*
X17209Y20839D2*
Y20828D1*
X18171Y20849D2*
Y20839D1*
Y20828D1*
X18202Y20849D2*
Y20839D1*
Y20828D1*
X12950Y20818D2*
Y20808D1*
Y20798D1*
Y20788D1*
X12858D1*
Y20777D1*
Y20767D1*
Y20757D1*
X13677Y20828D2*
Y20818D1*
Y20808D1*
Y20798D1*
Y20788D1*
X13626D1*
Y20777D1*
Y20767D1*
X13708Y20828D2*
Y20818D1*
Y20808D1*
Y20798D1*
Y20788D1*
Y20777D1*
Y20767D1*
X14148Y20828D2*
Y20818D1*
Y20808D1*
Y20798D1*
X14230Y20828D2*
Y20818D1*
Y20808D1*
Y20798D1*
X14732Y20828D2*
Y20818D1*
Y20808D1*
Y20798D1*
X12684Y20757D2*
Y20747D1*
Y20736D1*
Y20726D1*
Y20716D1*
Y20706D1*
Y20695D1*
X12582D1*
X12579Y20685D1*
X12574Y20675D1*
X12568Y20665D1*
X12565Y20654D1*
X12563Y20644D1*
X12562Y20634D1*
Y20624D1*
Y20614D1*
X12613D1*
Y20603D1*
Y20593D1*
Y20583D1*
X12684D1*
Y20573D1*
Y20562D1*
X13432Y20767D2*
Y20757D1*
Y20747D1*
Y20736D1*
Y20726D1*
X13360D1*
Y20716D1*
Y20706D1*
X13237D2*
Y20695D1*
Y20685D1*
Y20675D1*
Y20665D1*
X13186D1*
Y20654D1*
X12991Y20675D2*
Y20665D1*
Y20654D1*
Y20644D1*
X12971D1*
Y20634D1*
Y20624D1*
X13176Y20675D2*
Y20665D1*
Y20654D1*
X12746Y20624D2*
Y20614D1*
Y20603D1*
Y20593D1*
Y20583D1*
X12695D1*
Y20573D1*
Y20562D1*
X17981Y11663D2*
D73*
X17967Y11692D1*
X17938Y11720D1*
X17909Y11735D1*
X17852D1*
X17823Y11720D1*
X17794Y11692D1*
X17780Y11663D1*
X17766Y11620D1*
Y11548D1*
X17780Y11505D1*
X17794Y11476D1*
X17823Y11448D1*
X17852Y11433D1*
X17909D1*
X17938Y11448D1*
X17967Y11476D1*
X17981Y11505D1*
X18073Y11677D2*
X18102Y11692D1*
X18145Y11734D1*
Y11433D1*
X11189Y9127D2*
X11174Y9155D1*
X11146Y9184D1*
X11117Y9199D1*
X11060D1*
X11031Y9184D1*
X11002Y9155D1*
X10988Y9127D1*
X10973Y9084D1*
Y9012D1*
X10988Y8969D1*
X11002Y8940D1*
X11031Y8912D1*
X11060Y8897D1*
X11117D1*
X11146Y8912D1*
X11174Y8940D1*
X11189Y8969D1*
X11296Y9127D2*
Y9141D1*
X11310Y9170D1*
X11324Y9184D1*
X11353Y9198D1*
X11411D1*
X11439Y9184D1*
X11453Y9170D1*
X11468Y9141D1*
Y9112D1*
X11453Y9084D1*
X11425Y9041D1*
X11281Y8897D1*
X11482D1*
X14435Y9295D2*
X14407Y9281D1*
X14378Y9252D1*
X14363Y9223D1*
Y9166D1*
X14378Y9137D1*
X14407Y9108D1*
X14435Y9094D1*
X14478Y9080D1*
X14550D1*
X14593Y9094D1*
X14622Y9108D1*
X14650Y9137D1*
X14665Y9166D1*
Y9223D1*
X14650Y9252D1*
X14622Y9281D1*
X14593Y9295D1*
X14364Y9416D2*
Y9574D1*
X14478Y9488D1*
Y9531D1*
X14493Y9560D1*
X14507Y9574D1*
X14550Y9588D1*
X14579D1*
X14622Y9574D1*
X14651Y9545D1*
X14665Y9502D1*
Y9459D1*
X14651Y9416D1*
X14636Y9402D1*
X14607Y9388D1*
X7337Y14499D2*
X7308Y14485D1*
X7279Y14456D1*
X7265Y14428D1*
Y14370D1*
X7279Y14341D1*
X7308Y14313D1*
X7337Y14298D1*
X7380Y14284D1*
X7452D1*
X7494Y14298D1*
X7523Y14313D1*
X7552Y14341D1*
X7566Y14370D1*
Y14428D1*
X7552Y14456D1*
X7523Y14485D1*
X7494Y14499D1*
X7566Y14736D2*
X7265D1*
X7466Y14592D1*
Y14807D1*
X6170Y11815D2*
X6156Y11843D1*
X6127Y11872D1*
X6098Y11886D1*
X6041D1*
X6012Y11872D1*
X5983Y11843D1*
X5969Y11815D1*
X5955Y11772D1*
Y11700D1*
X5969Y11657D1*
X5983Y11628D1*
X6012Y11600D1*
X6041Y11585D1*
X6098D1*
X6127Y11600D1*
X6156Y11628D1*
X6170Y11657D1*
X6435Y11886D2*
X6291D1*
X6277Y11757D1*
X6291Y11771D1*
X6334Y11786D1*
X6377D1*
X6420Y11771D1*
X6449Y11743D1*
X6463Y11700D1*
Y11671D1*
X6449Y11628D1*
X6420Y11599D1*
X6377Y11585D1*
X6334D1*
X6291Y11599D1*
X6277Y11614D1*
X6262Y11642D1*
X6177Y12440D2*
X6163Y12468D1*
X6134Y12497D1*
X6106Y12511D1*
X6048D1*
X6019Y12497D1*
X5991Y12468D1*
X5976Y12440D1*
X5962Y12397D1*
Y12325D1*
X5976Y12282D1*
X5991Y12253D1*
X6019Y12225D1*
X6048Y12210D1*
X6106D1*
X6134Y12225D1*
X6163Y12253D1*
X6177Y12282D1*
X6442Y12468D2*
X6428Y12497D1*
X6385Y12511D1*
X6356D1*
X6313Y12497D1*
X6284Y12454D1*
X6270Y12382D1*
Y12310D1*
X6284Y12253D1*
X6313Y12224D1*
X6356Y12210D1*
X6370D1*
X6413Y12224D1*
X6442Y12253D1*
X6456Y12296D1*
Y12310D1*
X6442Y12354D1*
X6413Y12382D1*
X6370Y12396D1*
X6356D1*
X6313Y12382D1*
X6284Y12354D1*
X6270Y12310D1*
X13560Y16126D2*
X13531Y16112D1*
X13503Y16083D1*
X13488Y16054D1*
Y15997D1*
X13503Y15968D1*
X13531Y15939D1*
X13560Y15925D1*
X13603Y15911D1*
X13675D1*
X13718Y15925D1*
X13747Y15939D1*
X13775Y15968D1*
X13790Y15997D1*
Y16054D1*
X13775Y16083D1*
X13747Y16112D1*
X13718Y16126D1*
X13790Y16276D2*
X13489Y16419D1*
Y16218D1*
X13061Y17127D2*
X13032Y17113D1*
X13003Y17084D1*
X12989Y17056D1*
Y16998D1*
X13003Y16969D1*
X13032Y16941D1*
X13061Y16926D1*
X13104Y16912D1*
X13176D1*
X13219Y16926D1*
X13247Y16941D1*
X13276Y16969D1*
X13290Y16998D1*
Y17056D1*
X13276Y17084D1*
X13247Y17113D1*
X13219Y17127D1*
X12989Y17291D2*
X13004Y17249D1*
X13032Y17234D1*
X13061D1*
X13090Y17249D1*
X13104Y17277D1*
X13118Y17335D1*
X13133Y17378D1*
X13161Y17406D1*
X13190Y17420D1*
X13233D1*
X13262Y17406D1*
X13276Y17392D1*
X13290Y17349D1*
Y17291D1*
X13276Y17249D1*
X13262Y17234D1*
X13233Y17220D1*
X13190D1*
X13161Y17234D1*
X13133Y17263D1*
X13118Y17306D1*
X13104Y17363D1*
X13090Y17392D1*
X13061Y17406D1*
X13032D1*
X13004Y17392D1*
X12989Y17349D1*
Y17291D1*
X15195Y13314D2*
X15181Y13343D1*
X15152Y13371D1*
X15124Y13386D1*
X15066D1*
X15038Y13371D1*
X15009Y13343D1*
X14995Y13314D1*
X14980Y13271D1*
Y13199D1*
X14995Y13156D1*
X15009Y13127D1*
X15038Y13099D1*
X15066Y13084D1*
X15124D1*
X15152Y13099D1*
X15181Y13127D1*
X15195Y13156D1*
X15475Y13285D2*
X15460Y13242D1*
X15432Y13213D1*
X15389Y13199D1*
X15374D1*
X15331Y13213D1*
X15303Y13242D1*
X15288Y13285D1*
Y13299D1*
X15303Y13343D1*
X15331Y13371D1*
X15374Y13385D1*
X15389D1*
X15432Y13371D1*
X15460Y13343D1*
X15475Y13285D1*
Y13213D1*
X15460Y13142D1*
X15432Y13098D1*
X15389Y13084D1*
X15360D1*
X15317Y13098D1*
X15303Y13127D1*
X15169Y12564D2*
X15154Y12593D1*
X15125Y12621D1*
X15097Y12636D1*
X15040D1*
X15011Y12621D1*
X14982Y12593D1*
X14968Y12564D1*
X14953Y12521D1*
Y12449D1*
X14968Y12406D1*
X14982Y12377D1*
X15011Y12349D1*
X15040Y12334D1*
X15097D1*
X15125Y12349D1*
X15154Y12377D1*
X15169Y12406D1*
X15261Y12578D2*
X15290Y12593D1*
X15333Y12635D1*
Y12334D1*
X15512Y12635D2*
X15469Y12621D1*
X15440Y12578D1*
X15426Y12506D1*
Y12463D1*
X15440Y12392D1*
X15469Y12348D1*
X15512Y12334D1*
X15541D1*
X15584Y12348D1*
X15612Y12392D1*
X15627Y12463D1*
Y12506D1*
X15612Y12578D1*
X15584Y12621D1*
X15541Y12635D1*
X15512D1*
X15612Y12578D2*
X15440Y12392D1*
X8027Y10752D2*
X8013Y10781D1*
X7984Y10809D1*
X7956Y10824D1*
X7898D1*
X7869Y10809D1*
X7841Y10781D1*
X7826Y10752D1*
X7812Y10709D1*
Y10637D1*
X7826Y10594D1*
X7841Y10565D1*
X7869Y10537D1*
X7898Y10522D1*
X7956D1*
X7984Y10537D1*
X8013Y10565D1*
X8027Y10594D1*
X8120Y10766D2*
X8149Y10781D1*
X8192Y10823D1*
Y10522D1*
X8284Y10766D2*
X8313Y10781D1*
X8356Y10823D1*
Y10522D1*
X7963Y10127D2*
X7948Y10156D1*
X7920Y10184D1*
X7891Y10199D1*
X7834D1*
X7805Y10184D1*
X7776Y10156D1*
X7762Y10127D1*
X7748Y10084D1*
Y10012D1*
X7762Y9969D1*
X7776Y9940D1*
X7805Y9912D1*
X7834Y9897D1*
X7891D1*
X7920Y9912D1*
X7948Y9940D1*
X7963Y9969D1*
X8055Y10141D2*
X8084Y10156D1*
X8127Y10198D1*
Y9897D1*
X8235Y10127D2*
Y10141D1*
X8249Y10170D1*
X8263Y10184D1*
X8292Y10198D1*
X8349D1*
X8378Y10184D1*
X8392Y10170D1*
X8407Y10141D1*
Y10112D1*
X8392Y10084D1*
X8364Y10041D1*
X8220Y9897D1*
X8421D1*
X12435Y17606D2*
X12406Y17592D1*
X12378Y17563D1*
X12363Y17534D1*
Y17477D1*
X12378Y17448D1*
X12406Y17420D1*
X12435Y17405D1*
X12478Y17391D1*
X12550D1*
X12593Y17405D1*
X12622Y17420D1*
X12650Y17448D1*
X12665Y17477D1*
Y17534D1*
X12650Y17563D1*
X12622Y17592D1*
X12593Y17606D1*
X12421Y17699D2*
X12406Y17727D1*
X12364Y17771D1*
X12665D1*
X12364Y17892D2*
Y18050D1*
X12478Y17964D1*
Y18007D1*
X12493Y18035D1*
X12507Y18050D1*
X12550Y18064D1*
X12579D1*
X12622Y18050D1*
X12651Y18021D1*
X12665Y17978D1*
Y17935D1*
X12651Y17892D1*
X12636Y17878D1*
X12607Y17863D1*
X7786Y17440D2*
X7772Y17469D1*
X7743Y17498D1*
X7715Y17512D1*
X7657D1*
X7629Y17498D1*
X7600Y17469D1*
X7585Y17440D1*
X7571Y17397D1*
Y17325D1*
X7585Y17282D1*
X7600Y17254D1*
X7629Y17225D1*
X7657Y17211D1*
X7715D1*
X7743Y17225D1*
X7772Y17254D1*
X7786Y17282D1*
X7879Y17454D2*
X7908Y17469D1*
X7951Y17512D1*
Y17211D1*
X8187D2*
Y17512D1*
X8044Y17311D1*
X8259D1*
X6088Y11252D2*
X6073Y11281D1*
X6044Y11310D1*
X6016Y11324D1*
X5959D1*
X5930Y11310D1*
X5901Y11281D1*
X5887Y11252D1*
X5872Y11209D1*
Y11137D1*
X5887Y11094D1*
X5901Y11065D1*
X5930Y11037D1*
X5959Y11022D1*
X6016D1*
X6044Y11037D1*
X6073Y11065D1*
X6088Y11094D1*
X6180Y11266D2*
X6209Y11281D1*
X6252Y11323D1*
Y11022D1*
X6517Y11323D2*
X6374D1*
X6359Y11194D1*
X6374Y11209D1*
X6417Y11223D1*
X6460D1*
X6503Y11209D1*
X6531Y11180D1*
X6546Y11137D1*
Y11109D1*
X6531Y11065D1*
X6503Y11037D1*
X6460Y11022D1*
X6417D1*
X6374Y11037D1*
X6359Y11051D1*
X6345Y11080D1*
X10073Y11649D2*
X10059Y11678D1*
X10030Y11707D1*
X10002Y11721D1*
X9944D1*
X9915Y11707D1*
X9887Y11678D1*
X9872Y11649D1*
X9858Y11606D1*
Y11534D1*
X9872Y11491D1*
X9887Y11463D1*
X9915Y11434D1*
X9944Y11420D1*
X10002D1*
X10030Y11434D1*
X10059Y11463D1*
X10073Y11491D1*
X10166Y11663D2*
X10195Y11678D1*
X10238Y11721D1*
Y11420D1*
X10502Y11678D2*
X10488Y11706D1*
X10445Y11721D1*
X10417D1*
X10374Y11706D1*
X10345Y11663D1*
X10330Y11592D1*
Y11520D1*
X10345Y11463D1*
X10374Y11434D1*
X10417Y11420D1*
X10431D1*
X10474Y11434D1*
X10502Y11463D1*
X10517Y11506D1*
Y11520D1*
X10502Y11563D1*
X10474Y11592D1*
X10431Y11606D1*
X10417D1*
X10374Y11592D1*
X10345Y11563D1*
X10330Y11520D1*
X12513Y5157D2*
X12498Y5185D1*
X12470Y5214D1*
X12441Y5228D1*
X12384D1*
X12355Y5214D1*
X12326Y5185D1*
X12312Y5157D1*
X12297Y5113D1*
Y5041D1*
X12312Y4999D1*
X12326Y4970D1*
X12355Y4941D1*
X12384Y4927D1*
X12441D1*
X12470Y4941D1*
X12498Y4970D1*
X12513Y4999D1*
X12605Y5170D2*
X12634Y5185D1*
X12677Y5228D1*
Y4927D1*
X12827D2*
X12971Y5228D1*
X12770D1*
X15043Y15706D2*
Y15405D1*
X15144D1*
X15187Y15419D1*
X15216Y15448D1*
X15230Y15477D1*
X15244Y15519D1*
Y15591D1*
X15230Y15635D1*
X15216Y15663D1*
X15187Y15692D1*
X15144Y15706D1*
X15043D1*
X15337Y15648D2*
X15366Y15663D1*
X15409Y15706D1*
Y15405D1*
X17162Y10470D2*
X16975D1*
Y10168D1*
Y10326D2*
X17090D1*
X17254Y10470D2*
Y10168D1*
X17384D1*
X17427Y10183D1*
X17441Y10197D1*
X17455Y10226D1*
Y10269D1*
X17441Y10298D1*
X17427Y10312D1*
X17384Y10326D1*
X17427Y10341D1*
X17441Y10355D1*
X17455Y10384D1*
Y10413D1*
X17441Y10441D1*
X17427Y10456D1*
X17384Y10470D1*
X17254D1*
Y10326D2*
X17384D1*
X17548Y10412D2*
X17577Y10427D1*
X17620Y10470D1*
Y10168D1*
X14071Y17068D2*
Y16881D1*
X14373D1*
X14215D2*
Y16996D1*
X14071Y17160D2*
X14373D1*
Y17290D1*
X14358Y17333D1*
X14344Y17347D1*
X14315Y17361D1*
X14272D1*
X14243Y17347D1*
X14229Y17333D1*
X14215Y17290D1*
X14200Y17333D1*
X14186Y17347D1*
X14158Y17361D1*
X14129D1*
X14100Y17347D1*
X14086Y17333D1*
X14071Y17290D1*
Y17160D1*
X14215D2*
Y17290D1*
X14143Y17469D2*
X14129D1*
X14100Y17483D1*
X14086Y17497D1*
X14072Y17526D1*
Y17583D1*
X14086Y17612D1*
X14100Y17626D1*
X14129Y17641D1*
X14158D1*
X14186Y17626D1*
X14229Y17598D1*
X14373Y17454D1*
Y17655D1*
X14595Y11742D2*
X14409D1*
Y11440D1*
Y11598D2*
X14523D1*
X14688Y11742D2*
Y11440D1*
X14817D1*
X14860Y11455D1*
X14875Y11469D1*
X14889Y11498D1*
Y11541D1*
X14875Y11570D1*
X14860Y11584D1*
X14817Y11598D1*
X14860Y11613D1*
X14875Y11627D1*
X14889Y11655D1*
Y11684D1*
X14875Y11713D1*
X14860Y11727D1*
X14817Y11742D1*
X14688D1*
Y11598D2*
X14817D1*
X15010Y11741D2*
X15168D1*
X15082Y11627D1*
X15125D1*
X15154Y11612D1*
X15168Y11598D1*
X15183Y11555D1*
Y11526D1*
X15168Y11483D1*
X15139Y11454D1*
X15096Y11440D1*
X15053D1*
X15010Y11454D1*
X14996Y11469D1*
X14982Y11498D1*
X10047Y16803D2*
Y16501D1*
X10355Y16731D2*
X10341Y16759D1*
X10312Y16788D1*
X10283Y16803D1*
X10226D1*
X10197Y16788D1*
X10169Y16759D1*
X10154Y16731D1*
X10140Y16688D1*
Y16616D1*
X10154Y16573D1*
X10169Y16544D1*
X10197Y16516D1*
X10226Y16501D1*
X10283D1*
X10312Y16516D1*
X10341Y16544D1*
X10355Y16573D1*
X10448Y16745D2*
X10477Y16759D1*
X10520Y16802D1*
Y16501D1*
X11930Y6966D2*
Y6664D1*
X12238Y6894D2*
X12224Y6923D1*
X12195Y6952D1*
X12167Y6966D1*
X12109D1*
X12080Y6952D1*
X12052Y6923D1*
X12037Y6894D1*
X12023Y6851D1*
Y6779D1*
X12037Y6736D1*
X12052Y6708D1*
X12080Y6679D1*
X12109Y6664D1*
X12167D1*
X12195Y6679D1*
X12224Y6708D1*
X12238Y6736D1*
X12346Y6894D2*
Y6908D1*
X12360Y6937D1*
X12374Y6951D1*
X12403Y6966D1*
X12460D1*
X12489Y6951D1*
X12503Y6937D1*
X12518Y6908D1*
Y6880D1*
X12503Y6851D1*
X12475Y6808D1*
X12331Y6664D1*
X12532D1*
X18226Y17152D2*
Y16922D1*
X18211Y16879D1*
X18197Y16865D1*
X18168Y16850D1*
X18139D1*
X18111Y16865D1*
X18097Y16879D1*
X18082Y16922D1*
Y16951D1*
X18318Y17094D2*
X18347Y17109D1*
X18390Y17152D1*
Y16850D1*
X12443Y13715D2*
X12572D1*
X12615Y13730D1*
X12629Y13744D1*
X12644Y13773D1*
Y13802D1*
X12629Y13830D1*
X12615Y13845D1*
X12572Y13859D1*
X12443D1*
Y13558D1*
X12543Y13715D2*
X12644Y13558D1*
X12736Y13801D2*
X12765Y13816D1*
X12808Y13859D1*
Y13558D1*
X6534Y14317D2*
Y14446D1*
X6519Y14489D1*
X6505Y14503D1*
X6476Y14518D1*
X6447D1*
X6419Y14503D1*
X6404Y14489D1*
X6390Y14446D1*
Y14317D1*
X6691D1*
X6534Y14417D2*
X6691Y14518D1*
X6462Y14625D2*
X6448D1*
X6419Y14639D1*
X6405Y14653D1*
X6390Y14682D1*
Y14740D1*
X6405Y14768D1*
X6419Y14782D1*
X6448Y14797D1*
X6476D1*
X6505Y14782D1*
X6548Y14754D1*
X6691Y14610D1*
Y14811D1*
X15847Y6003D2*
Y6132D1*
X15832Y6176D1*
X15818Y6190D1*
X15790Y6204D1*
X15761D1*
X15732Y6190D1*
X15718Y6176D1*
X15703Y6132D1*
Y6003D1*
X16005D1*
X15847Y6104D2*
X16005Y6204D1*
X15704Y6326D2*
Y6483D1*
X15818Y6397D1*
Y6441D1*
X15833Y6469D1*
X15847Y6483D1*
X15890Y6498D1*
X15919D1*
X15962Y6483D1*
X15991Y6455D1*
X16005Y6412D1*
Y6369D1*
X15991Y6326D1*
X15976Y6312D1*
X15947Y6297D1*
X10815Y21564D2*
Y21348D1*
X10829Y21305D1*
X10858Y21277D1*
X10901Y21262D1*
X10930D1*
X10973Y21277D1*
X11002Y21305D1*
X11016Y21348D1*
Y21564D1*
X11281Y21563D2*
X11138D1*
X11123Y21434D1*
X11138Y21449D1*
X11181Y21463D1*
X11223D1*
X11267Y21449D1*
X11295Y21420D1*
X11310Y21377D1*
Y21348D1*
X11295Y21305D1*
X11267Y21277D1*
X11223Y21262D1*
X11181D1*
X11138Y21277D1*
X11123Y21291D1*
X11109Y21320D1*
X10697Y5439D2*
Y5223D1*
X10712Y5180D1*
X10741Y5152D1*
X10784Y5137D1*
X10812D1*
X10855Y5152D1*
X10884Y5180D1*
X10898Y5223D1*
Y5439D1*
X11163Y5396D2*
X11149Y5424D1*
X11106Y5438D1*
X11077D1*
X11034Y5424D1*
X11005Y5381D1*
X10991Y5309D1*
Y5238D1*
X11005Y5180D1*
X11034Y5152D1*
X11077Y5137D1*
X11091D1*
X11134Y5152D1*
X11163Y5180D1*
X11177Y5223D1*
Y5238D1*
X11163Y5281D1*
X11134Y5309D1*
X11091Y5324D1*
X11077D1*
X11034Y5309D1*
X11005Y5281D1*
X10991Y5238D1*
X11065Y10307D2*
X11266Y10006D1*
Y10307D2*
X11065Y10006D1*
X11358Y10250D2*
X11387Y10264D1*
X11430Y10307D1*
Y10006D1*
M02*
