G04 DipTrace 2.4.0.2*
%INbftdi_Top.gbr*%
%MOIN*%
%ADD13C,0.012*%
%ADD14C,0.0118*%
%ADD15C,0.03*%
%ADD16C,0.0236*%
%ADD17C,0.025*%
%ADD18R,0.0512X0.0591*%
%ADD19R,0.0433X0.0394*%
%ADD20R,0.0394X0.0433*%
%ADD21R,0.0591X0.0512*%
%ADD23R,0.0394X0.0394*%
%ADD24R,0.0236X0.0394*%
%ADD25R,0.0354X0.0295*%
%ADD26R,0.0295X0.0354*%
%ADD28R,0.063X0.0118*%
%ADD29R,0.0118X0.063*%
%ADD30R,0.0433X0.0236*%
%ADD32R,0.0906X0.0197*%
%ADD33R,0.0984X0.0787*%
%ADD34R,0.0669X0.0669*%
%ADD35C,0.0669*%
%ADD36R,0.063X0.0551*%
%ADD37C,0.0394*%
%FSLAX44Y44*%
G04*
G70*
G90*
G75*
G01*
%LNTop*%
%LPD*%
X6937Y4937D2*
D13*
X7437Y5437D1*
Y6312D1*
X6687Y7062D1*
Y7812D1*
X5687Y8812D1*
Y14313D1*
X6064Y14690D1*
X8255D1*
D14*
X8630D1*
X7937Y21937D2*
D13*
X8437Y21437D1*
Y20626D1*
X9312Y19751D1*
X10625D1*
X11366Y19010D1*
Y16423D1*
D14*
Y16048D1*
X7937Y20937D2*
D13*
X8187Y20687D1*
Y20439D1*
X9125Y19501D1*
X10500D1*
X11169Y18832D1*
Y16423D1*
D14*
Y16048D1*
X6937Y21937D2*
D13*
X7437Y21437D1*
Y20564D1*
X7750Y20251D1*
X8000D1*
X9000Y19251D1*
X10375D1*
X10972Y18653D1*
Y16423D1*
D14*
Y16048D1*
X6937Y20937D2*
D13*
Y20439D1*
X7375Y20001D1*
X7875D1*
X8875Y19001D1*
X10250D1*
X10776Y18475D1*
Y16423D1*
D14*
Y16048D1*
X5937Y21937D2*
D13*
X6437Y21437D1*
Y20501D1*
X7187Y19751D1*
X7750D1*
X8750Y18751D1*
X10125D1*
X10579Y18297D1*
Y16423D1*
D14*
Y16048D1*
X5937Y20937D2*
D13*
Y20564D1*
X7000Y19501D1*
X7625D1*
X8625Y18501D1*
X10000D1*
X10382Y18119D1*
Y16423D1*
D14*
Y16048D1*
X4937Y21937D2*
D13*
X5437Y21437D1*
Y20626D1*
X6812Y19251D1*
X7500D1*
X8500Y18251D1*
X9875D1*
X10185Y17941D1*
Y16423D1*
D14*
Y16048D1*
X4937Y20937D2*
D13*
X5062Y20812D1*
Y20501D1*
X6562Y19001D1*
X7375D1*
X8375Y18001D1*
X9812D1*
X9988Y17825D1*
Y16423D1*
D14*
Y16048D1*
X16937Y14252D2*
D13*
X16935Y14250D1*
X16062D1*
X16000Y14312D1*
X14937D1*
X14893Y14268D1*
Y13969D1*
Y14268D2*
X14878Y14253D1*
X14834Y14296D1*
X12312D1*
D14*
X11937D1*
X16937Y14567D2*
D13*
X16067D1*
X16000Y14500D1*
X14937D1*
X14893Y14544D1*
Y14875D1*
Y14544D2*
X14842Y14493D1*
X12312D1*
D14*
X11937D1*
X10579Y12741D2*
Y12142D1*
D13*
X10312Y11875D1*
Y7312D1*
X10937Y6687D1*
X12750D1*
X12815Y6623D1*
X13249D1*
X10776Y12741D2*
D14*
Y12026D1*
D13*
X10562Y11813D1*
Y7437D1*
X11062Y6937D1*
X13563D1*
X13750Y6750D1*
Y6437D1*
X13562Y6249D1*
X13249D1*
X15125Y6625D2*
X15123Y6623D1*
X14312D1*
Y7126D1*
X14125Y7312D1*
Y7250D1*
X12688Y6250D2*
Y6375D1*
X12250D1*
X12188Y6437D1*
X10812D1*
X10062Y7187D1*
Y11938D1*
X10382Y12257D1*
D14*
Y12741D1*
X15562Y14875D2*
D13*
X15884Y15197D1*
X16937D1*
X13625Y15562D2*
X13125D1*
Y15563D1*
X9375Y16938D2*
X9398Y16915D1*
Y16596D1*
Y16423D1*
D14*
Y16048D1*
X16976Y16319D2*
D13*
X19142D1*
Y12815D2*
Y16319D1*
Y12815D2*
X16976D1*
X7562Y11188D2*
Y11750D1*
Y12313D1*
X7437Y12438D1*
Y13063D1*
X9988Y12741D2*
D14*
Y13116D1*
D13*
Y13312D1*
X9312D1*
X9005D1*
D14*
X8630D1*
X11366Y12741D2*
X11375Y12732D1*
D13*
Y12250D1*
X11647Y11978D1*
Y11585D1*
X11375Y12750D2*
Y13313D1*
X11169D1*
Y13116D1*
D14*
Y12741D1*
Y13313D2*
D13*
X10185D1*
Y13116D1*
D14*
Y12741D1*
Y13313D2*
D13*
X9988Y13312D1*
X8630Y13509D2*
D14*
X9005D1*
D13*
X9241D1*
X9312Y13438D1*
Y13312D1*
X7437Y13063D2*
X7875D1*
X8124Y13312D1*
X8255D1*
D14*
X8630D1*
X11375Y13313D2*
D13*
Y13903D1*
X11562D1*
D14*
X11937D1*
X9398Y16596D2*
D13*
X9430Y16563D1*
X9594D1*
Y16423D1*
D14*
Y16048D1*
X8875Y10000D2*
D15*
Y10625D1*
X14062Y13812D2*
D13*
Y13186D1*
Y13062D1*
Y12437D1*
X13125Y15563D2*
X12813D1*
X12530Y15281D1*
X12312D1*
D14*
X11937D1*
X11562D1*
D13*
X11375D1*
Y15084D1*
X11562D1*
D14*
X11937D1*
X11375Y13903D2*
D13*
Y14887D1*
Y15084D1*
X11937Y14887D2*
X11375D1*
X14312Y6249D2*
X13999D1*
X13875Y6125D1*
Y5625D1*
X14156Y5343D1*
Y5092D1*
X9375Y16938D2*
Y17438D1*
X14625Y13250D2*
Y13186D1*
X14062D1*
X8231Y12313D2*
X8562D1*
X8688Y12187D1*
X8999D1*
X9201Y12389D1*
Y12438D1*
D14*
Y12741D1*
X8231Y11750D2*
D13*
X8562D1*
X8749Y11937D1*
X9062D1*
X9398Y12273D1*
Y12366D1*
D14*
Y12741D1*
X13496Y10718D2*
D13*
X13466Y10688D1*
X13125D1*
X12938Y10875D1*
Y13000D1*
X12429Y13509D1*
X12312D1*
D14*
X11937D1*
X13496Y10718D2*
D13*
X13509Y10731D1*
X14250D1*
X12000Y9812D2*
X12437D1*
X12625Y10000D1*
Y13000D1*
X12313Y13312D1*
D14*
X11937D1*
X12018Y9062D2*
D13*
X12000Y9081D1*
Y9812D1*
X13314Y13812D2*
X13251Y13875D1*
X13000D1*
X12775Y14099D1*
X12312D1*
D14*
X11937D1*
X6562Y13813D2*
D13*
X6669Y13706D1*
X8255D1*
D14*
X8630D1*
X7437Y13811D2*
D13*
X7435Y13813D1*
X6562D1*
X16937Y13937D2*
X16905Y13969D1*
X15641D1*
X16375Y10750D2*
D15*
X16378Y10752D1*
Y11563D1*
Y11873D1*
X15641Y12610D1*
Y13622D1*
D16*
Y13969D1*
X15125Y5877D2*
D13*
X15123Y5875D1*
X14312D1*
X7937Y5937D2*
Y6312D1*
X7000Y7250D1*
Y7875D1*
X5937Y8937D1*
Y14188D1*
X6242Y14493D1*
X8255D1*
D14*
X8630D1*
X5937Y5937D2*
D13*
X5749Y6125D1*
Y7625D1*
X4937Y8437D1*
Y14751D1*
X5467Y15281D1*
X8255D1*
D14*
X8630D1*
X4937Y5937D2*
D13*
Y7437D1*
X4437Y7937D1*
Y15063D1*
X5249Y15876D1*
X7875D1*
X9687Y15063D2*
D14*
X9791Y15167D1*
Y16048D1*
X6937Y5937D2*
D13*
Y6375D1*
X6374Y6937D1*
Y7750D1*
X5437Y8687D1*
Y14438D1*
X5886Y14887D1*
X8255D1*
D14*
X8630D1*
X4937Y4937D2*
D13*
X5437Y5437D1*
Y7437D1*
X4687Y8187D1*
Y14938D1*
X5226Y15477D1*
X8255D1*
D14*
X8630D1*
X5937Y4937D2*
D13*
X6437Y5437D1*
Y6375D1*
X6062Y6750D1*
Y7687D1*
X5187Y8562D1*
Y14563D1*
X5707Y15084D1*
X8255D1*
D14*
X8630D1*
X16375Y10199D2*
D15*
Y9125D1*
X15250Y8000D1*
X13875D1*
X13250Y7375D1*
X11187D1*
X11000Y7562D1*
X9500Y8062D2*
X9544Y8018D1*
Y10000D1*
Y10625D1*
D13*
X9562Y10643D1*
Y11813D1*
X9791Y12042D1*
Y12366D1*
D14*
Y12741D1*
X8231Y11188D2*
D15*
X8937D1*
D13*
X9062Y11313D1*
Y11625D1*
X9594Y12157D1*
Y12366D1*
D14*
Y12741D1*
X12562Y16268D2*
D13*
Y15750D1*
X12290Y15477D1*
D14*
X11937D1*
X13487Y5092D2*
D13*
X13249Y5330D1*
Y5875D1*
X8705Y16938D2*
X8750Y16894D1*
Y16626D1*
X8875Y16501D1*
X9062D1*
X9201Y16362D1*
D14*
Y16048D1*
X10978Y11585D2*
D13*
X10972Y11590D1*
Y12366D1*
D14*
Y12741D1*
X10978Y11585D2*
D15*
X10937Y11544D1*
Y11000D1*
Y8500D1*
X11437Y8000D1*
X11875D1*
X13188D1*
X13625Y8437D1*
X14688D1*
X15000Y8750D1*
Y11250D1*
X14625Y11625D1*
X14009D1*
X6562Y13065D2*
D13*
X6374D1*
Y10938D1*
X6937Y10375D1*
X7937D1*
X8231Y10669D1*
Y11188D1*
X9062D2*
D15*
X8231D1*
X14250Y15481D2*
Y16063D1*
X13046Y16268D2*
X12562D1*
X8750Y17438D2*
X8705Y17394D1*
Y16938D1*
X13249Y5875D2*
D13*
X11875D1*
X11813Y5937D1*
X13393Y13062D2*
X13251D1*
X12607Y13706D1*
X12312D1*
D14*
X11937D1*
X13393Y13062D2*
D13*
Y12437D1*
X13457Y12372D1*
Y11625D1*
X13125Y14894D2*
X13106Y14875D1*
X12812D1*
X12627Y14690D1*
X12312D1*
D14*
X11937D1*
X13125Y14894D2*
D13*
X13625D1*
Y14893D1*
X13662Y14930D1*
X14250D1*
D37*
X14125Y7250D3*
X12688Y6250D3*
X7875Y15876D3*
X9687Y15063D3*
X11000Y7562D3*
X9500Y8062D3*
X9062Y11188D3*
X10937Y11000D3*
X14250Y16063D3*
X13046Y16268D3*
X8750Y17438D3*
X11813Y5937D3*
X11875Y8000D3*
X12625Y15251D3*
X9375Y17438D3*
X15625Y9125D3*
Y10063D3*
Y10938D3*
X15438Y11875D3*
X14625Y12500D3*
Y13250D3*
X11688Y19814D3*
X13313Y9062D3*
X14063D3*
X12125Y12375D3*
Y11813D3*
X7000Y12313D3*
Y11188D3*
X8062Y13063D3*
X8750Y12750D3*
X10937Y13750D3*
X9500D3*
X11125Y15063D3*
X18313Y5625D3*
Y10063D3*
Y8000D3*
Y12313D3*
X13688Y16626D3*
X8500Y9437D3*
X6875D3*
X6499Y16876D3*
X4874D3*
X6499Y17938D3*
X4874D3*
X7875Y16626D3*
X11938Y17376D3*
X4166Y22485D2*
D17*
X4668D1*
X5207D2*
X5668D1*
X6207D2*
X6668D1*
X7207D2*
X7668D1*
X8207D2*
X9668D1*
X10207D2*
X19708D1*
X4166Y22236D2*
X4391D1*
X8480D2*
X9391D1*
X10480D2*
X19708D1*
X4166Y21987D2*
X4313D1*
X8558D2*
X9313D1*
X10558D2*
X19708D1*
X4166Y21739D2*
X4348D1*
X8621D2*
X9348D1*
X10527D2*
X19708D1*
X4166Y21490D2*
X4313D1*
X8781D2*
X9512D1*
X10363D2*
X19708D1*
X4166Y21241D2*
X4313D1*
X8789D2*
X9395D1*
X10480D2*
X19708D1*
X4166Y20992D2*
X4313D1*
X8789D2*
X9317D1*
X10558D2*
X19708D1*
X4166Y20744D2*
X4313D1*
X8804D2*
X9344D1*
X10531D2*
X19708D1*
X4166Y20495D2*
X4313D1*
X9054D2*
X9508D1*
X10367D2*
X19708D1*
X4166Y20246D2*
X4833D1*
X9301D2*
X19708D1*
X4166Y19998D2*
X5083D1*
X10863D2*
X19708D1*
X4166Y19749D2*
X5329D1*
X11113D2*
X19708D1*
X4166Y19500D2*
X5579D1*
X11359D2*
X19708D1*
X4166Y19252D2*
X5829D1*
X11609D2*
X19708D1*
X4166Y19003D2*
X6075D1*
X11715D2*
X19708D1*
X4166Y18754D2*
X6325D1*
X11715D2*
X19708D1*
X4166Y18506D2*
X7387D1*
X11715D2*
X19708D1*
X4166Y18257D2*
X7633D1*
X11715D2*
X19708D1*
X4166Y18008D2*
X7883D1*
X11715D2*
X19708D1*
X4166Y17760D2*
X8133D1*
X11715D2*
X19708D1*
X4166Y17511D2*
X8270D1*
X9230D2*
X9637D1*
X11715D2*
X19708D1*
X4166Y17262D2*
X8200D1*
X9211D2*
X9637D1*
X11715D2*
X19708D1*
X4166Y17013D2*
X8200D1*
X9211D2*
X9637D1*
X11715D2*
X19708D1*
X4166Y16765D2*
X8200D1*
X9277D2*
X9637D1*
X11715D2*
X19708D1*
X4166Y16516D2*
X8200D1*
X11715D2*
X12075D1*
X13461D2*
X14137D1*
X14362D2*
X19708D1*
X4166Y16267D2*
X7606D1*
X8144D2*
X8626D1*
X11715D2*
X12075D1*
X13531D2*
X13813D1*
X14691D2*
X19708D1*
X4166Y16019D2*
X4907D1*
X8340D2*
X8852D1*
X11715D2*
X12075D1*
X13461D2*
X13766D1*
X14734D2*
X19708D1*
X4166Y15770D2*
X4661D1*
X12910D2*
X13782D1*
X14718D2*
X17649D1*
X18273D2*
X19708D1*
X4166Y15521D2*
X4411D1*
X12820D2*
X13782D1*
X14718D2*
X17504D1*
X18418D2*
X19708D1*
X10140Y15273D2*
X11333D1*
X15301D2*
X17524D1*
X18398D2*
X19708D1*
X10172Y15024D2*
X12477D1*
X15301D2*
X16196D1*
X17679D2*
X17766D1*
X18152D2*
X19708D1*
X10074Y14775D2*
X11333D1*
X17679D2*
X19708D1*
X9234Y14527D2*
X11333D1*
X17679D2*
X19708D1*
X9234Y14278D2*
X11333D1*
X17679D2*
X19708D1*
X9234Y14029D2*
X11333D1*
X18281D2*
X19708D1*
X9234Y13781D2*
X11333D1*
X13859D2*
X14485D1*
X18422D2*
X19708D1*
X9234Y13532D2*
X11333D1*
X13859D2*
X14485D1*
X16082D2*
X17528D1*
X18394D2*
X19708D1*
X7148Y13283D2*
X8852D1*
X13898D2*
X15200D1*
X16082D2*
X17793D1*
X18129D2*
X19708D1*
X7148Y13034D2*
X8852D1*
X13898D2*
X15200D1*
X16082D2*
X19708D1*
X7148Y12786D2*
X8852D1*
X11320D2*
X12274D1*
X13898D2*
X15200D1*
X16082D2*
X19708D1*
X6722Y12537D2*
X7723D1*
X11320D2*
X12274D1*
X13898D2*
X15208D1*
X16324D2*
X19708D1*
X6722Y12288D2*
X7723D1*
X11324D2*
X12274D1*
X13898D2*
X15352D1*
X16574D2*
X19708D1*
X6722Y12040D2*
X7723D1*
X11484D2*
X12274D1*
X14668D2*
X15598D1*
X16922D2*
X19708D1*
X6722Y11791D2*
X7723D1*
X11484D2*
X12274D1*
X15070D2*
X15833D1*
X16922D2*
X19708D1*
X6722Y11542D2*
X7723D1*
X11484D2*
X12274D1*
X15320D2*
X15833D1*
X16922D2*
X19708D1*
X6722Y11294D2*
X7723D1*
X11484D2*
X12274D1*
X15437D2*
X15833D1*
X16922D2*
X19708D1*
X6750Y11045D2*
X7723D1*
X15441D2*
X15833D1*
X16922D2*
X19708D1*
X7000Y10796D2*
X7723D1*
X15441D2*
X15907D1*
X16843D2*
X19708D1*
X8558Y10548D2*
X9040D1*
X15441D2*
X15907D1*
X16843D2*
X19708D1*
X6285Y10299D2*
X6528D1*
X8343D2*
X9040D1*
X15441D2*
X15907D1*
X16843D2*
X19708D1*
X6285Y10050D2*
X9040D1*
X14101D2*
X14559D1*
X15441D2*
X15907D1*
X16843D2*
X19708D1*
X6285Y9802D2*
X9040D1*
X14101D2*
X14559D1*
X15441D2*
X15907D1*
X16843D2*
X19708D1*
X6285Y9553D2*
X9040D1*
X12656D2*
X12891D1*
X14101D2*
X14559D1*
X15441D2*
X15934D1*
X16816D2*
X19708D1*
X6285Y9304D2*
X9106D1*
X12605D2*
X12891D1*
X14101D2*
X14559D1*
X15441D2*
X15934D1*
X16816D2*
X19708D1*
X6304Y9055D2*
X9106D1*
X11379D2*
X11512D1*
X12523D2*
X14559D1*
X15441D2*
X15696D1*
X16808D2*
X19708D1*
X6551Y8807D2*
X9106D1*
X11379D2*
X11512D1*
X12523D2*
X13411D1*
X16668D2*
X19708D1*
X6801Y8558D2*
X9106D1*
X11492D2*
X13133D1*
X16422D2*
X19708D1*
X7051Y8309D2*
X9086D1*
X16172D2*
X19708D1*
X7293Y8061D2*
X9012D1*
X15922D2*
X19708D1*
X7347Y7812D2*
X9086D1*
X15676D2*
X19708D1*
X4166Y7563D2*
X4325D1*
X7347D2*
X9711D1*
X14488D2*
X19708D1*
X4166Y7315D2*
X4575D1*
X7418D2*
X9711D1*
X14609D2*
X19708D1*
X4166Y7066D2*
X4586D1*
X7668D2*
X9735D1*
X15711D2*
X19708D1*
X4166Y6817D2*
X4586D1*
X7918D2*
X9950D1*
X15711D2*
X19708D1*
X4166Y6569D2*
X4586D1*
X8164D2*
X10196D1*
X15711D2*
X19708D1*
X4166Y6320D2*
X4450D1*
X8422D2*
X9450D1*
X15711D2*
X19708D1*
X4166Y6071D2*
X4329D1*
X8547D2*
X9329D1*
X10547D2*
X11344D1*
X15711D2*
X19708D1*
X4166Y5823D2*
X4325D1*
X8551D2*
X9325D1*
X10551D2*
X11340D1*
X15711D2*
X19708D1*
X4166Y5574D2*
X4434D1*
X8437D2*
X9434D1*
X10437D2*
X11504D1*
X15711D2*
X19708D1*
X4166Y5325D2*
X4313D1*
X8418D2*
X9454D1*
X10418D2*
X12899D1*
X13992D2*
X19708D1*
X4166Y5076D2*
X4313D1*
X8547D2*
X9329D1*
X10547D2*
X12981D1*
X13992D2*
X19708D1*
X4166Y4828D2*
X4313D1*
X8551D2*
X9321D1*
X10551D2*
X12981D1*
X13992D2*
X19708D1*
X4166Y4579D2*
X4313D1*
X8441D2*
X9430D1*
X10441D2*
X19708D1*
X4166Y4330D2*
X19708D1*
X15934Y11003D2*
X15857D1*
Y11811D1*
X15347Y12317D1*
X15274Y12417D1*
X15229Y12557D1*
X15226Y13110D1*
Y13505D1*
X14510Y13507D1*
Y13972D1*
X13838Y13971D1*
X13835Y13525D1*
X13874Y13524D1*
X13870Y12600D1*
X13874Y12649D1*
Y12067D1*
X14421D1*
Y12040D1*
X14625D1*
X14748Y12021D1*
X14879Y11954D1*
X15294Y11544D1*
X15368Y11443D1*
X15412Y11304D1*
X15415Y10750D1*
Y8754D1*
X15960Y9296D1*
X15961Y9785D1*
X15933Y9786D1*
X15937Y10611D1*
X15933Y10713D1*
Y11006D1*
X12500Y9270D2*
Y8601D1*
X11537D1*
Y9269D1*
X11420Y9272D1*
X11424Y10353D1*
X11420Y10302D1*
Y11126D1*
X11399Y11000D1*
X11382Y10876D1*
X11353Y10808D1*
X11352Y8675D1*
X11609Y8415D1*
X11824Y8459D1*
X11949Y8456D1*
X12078Y8413D1*
X13020Y8415D1*
X13332Y8731D1*
X13432Y8805D1*
X13572Y8849D1*
X14125Y8852D1*
X14520D1*
X14585Y8921D1*
Y10254D1*
X14075Y10250D1*
Y9272D1*
X12916D1*
Y9854D1*
X12855Y9770D1*
X12664Y9580D1*
X12579Y9478D1*
Y9272D1*
X12497D1*
X7997Y13383D2*
Y13290D1*
X7118D1*
X7122Y12711D1*
Y12544D1*
X6696D1*
X6699Y11315D1*
Y11069D1*
X7071Y10701D1*
X7800Y10700D1*
X7750Y10726D1*
X7754Y11649D1*
X7750Y11913D1*
X7754Y12212D1*
X7750Y12476D1*
Y12775D1*
X8713D1*
Y12599D1*
X8792Y12543D1*
X8877Y12536D1*
Y13321D1*
X9525Y13317D1*
X9771Y13321D1*
X9918Y13317D1*
X10115Y13321D1*
X10706D1*
X11100D1*
X11296D1*
X11297Y12050D1*
X11459Y12047D1*
Y11261D1*
X12299Y11258D1*
X12300Y12863D1*
X12177Y12989D1*
X11357Y12988D1*
X11361Y13636D1*
X11357Y13882D1*
X11361Y14030D1*
X11357Y14275D1*
X11361Y14423D1*
X11357Y14669D1*
X11361Y14817D1*
X11357Y15014D1*
X12496Y15015D1*
X12585Y15106D1*
X12517Y15153D1*
X11357D1*
Y15470D1*
X11042Y15472D1*
X10796Y15468D1*
X10648Y15472D1*
X10403Y15468D1*
X10255Y15472D1*
X10111Y15468D1*
X10115Y15240D1*
X10148Y15089D1*
X10132Y14940D1*
X10083Y14825D1*
X10005Y14728D1*
X9904Y14655D1*
X9787Y14612D1*
X9663Y14602D1*
X9540Y14625D1*
X9429Y14681D1*
X9336Y14764D1*
X9268Y14869D1*
X9232Y14988D1*
X9228Y15112D1*
X9258Y15233D1*
X9319Y15342D1*
X9407Y15430D1*
X9465Y15463D1*
X9208Y15468D1*
X9206Y15153D1*
X9210Y14908D1*
X9206Y14760D1*
X9210Y14514D1*
X9206Y14366D1*
X9210Y14120D1*
X9206Y13972D1*
X9210Y13727D1*
X9206Y13579D1*
X9210Y13382D1*
X7993Y13381D1*
X9187Y17287D2*
Y16802D1*
X9292Y16730D1*
X9394Y16628D1*
X9667D1*
X9663Y17298D1*
Y17677D1*
X9144Y17676D1*
X9187Y17587D1*
X9211Y17438D1*
X9187Y17297D1*
X9210Y15468D2*
X9206Y14957D1*
X9210Y14711D1*
X9206Y14563D1*
X9210Y14317D1*
X9206Y14169D1*
X9210Y13923D1*
X9206Y13775D1*
X9210Y13530D1*
X9199Y13321D1*
X9722Y13317D1*
X9967Y13321D1*
X10380D2*
X10903Y13317D1*
X11148Y13321D1*
X11357Y13382D1*
Y13632D1*
X10524Y20813D2*
X10485Y20694D1*
X10423Y20586D1*
X10340Y20493D1*
X10239Y20419D1*
X10126Y20368D1*
X10004Y20341D1*
X9879Y20340D1*
X9757Y20365D1*
X9642Y20415D1*
X9541Y20487D1*
X9456Y20579D1*
X9392Y20686D1*
X9352Y20805D1*
X9338Y20928D1*
X9349Y21053D1*
X9385Y21172D1*
X9446Y21281D1*
X9528Y21375D1*
X9606Y21434D1*
X9541Y21487D1*
X9456Y21579D1*
X9392Y21686D1*
X9352Y21805D1*
X9338Y21928D1*
X9349Y22053D1*
X9385Y22172D1*
X9446Y22281D1*
X9528Y22375D1*
X9627Y22450D1*
X9740Y22503D1*
X9862Y22532D1*
X9987Y22535D1*
X10109Y22511D1*
X10224Y22463D1*
X10327Y22392D1*
X10413Y22302D1*
X10478Y22195D1*
X10520Y22078D1*
X10537Y21937D1*
X10524Y21813D1*
X10485Y21694D1*
X10423Y21586D1*
X10340Y21493D1*
X10268Y21440D1*
X10327Y21392D1*
X10413Y21302D1*
X10478Y21195D1*
X10520Y21078D1*
X10537Y20937D1*
X10524Y20813D1*
X8524Y5813D2*
X8485Y5694D1*
X8423Y5586D1*
X8340Y5493D1*
X8266Y5434D1*
X8327Y5392D1*
X8413Y5302D1*
X8478Y5195D1*
X8520Y5078D1*
X8537Y4937D1*
X8524Y4813D1*
X8485Y4694D1*
X8423Y4586D1*
X8340Y4493D1*
X8239Y4419D1*
X8126Y4368D1*
X8004Y4341D1*
X7879Y4340D1*
X7757Y4365D1*
X7642Y4415D1*
X7541Y4487D1*
X7438Y4609D1*
X7340Y4493D1*
X7239Y4419D1*
X7126Y4368D1*
X7004Y4341D1*
X6879Y4340D1*
X6757Y4365D1*
X6642Y4415D1*
X6541Y4487D1*
X6438Y4609D1*
X6340Y4493D1*
X6239Y4419D1*
X6126Y4368D1*
X6004Y4341D1*
X5879Y4340D1*
X5757Y4365D1*
X5642Y4415D1*
X5537Y4494D1*
Y4337D1*
X4337D1*
Y5537D1*
X4490D1*
X4392Y5686D1*
X4352Y5805D1*
X4338Y5928D1*
X4349Y6053D1*
X4385Y6172D1*
X4446Y6281D1*
X4528Y6375D1*
X4612Y6439D1*
Y7300D1*
X4205Y7711D1*
X4141Y7733D1*
Y4141D1*
X19733D1*
Y22733D1*
X4141D1*
Y15198D1*
X4207Y15293D1*
X5020Y16105D1*
X5123Y16175D1*
X5249Y16201D1*
X7550D1*
X7594Y16243D1*
X7703Y16304D1*
X7824Y16335D1*
X7948Y16332D1*
X8067Y16295D1*
X8173Y16228D1*
X8256Y16136D1*
X8312Y16024D1*
X8336Y15876D1*
X8326Y15802D1*
X8877Y15800D1*
X8875Y16176D1*
X8753Y16200D1*
X8645Y16271D1*
X8518Y16399D1*
X8464Y16476D1*
X8224D1*
Y17400D1*
X8290D1*
X8291Y17488D1*
X8320Y17609D1*
X8361Y17680D1*
X8267Y17694D1*
X8145Y17771D1*
X7242Y18674D1*
X6562Y18676D1*
X6440Y18700D1*
X6332Y18771D1*
X4830Y20275D1*
X4662Y20337D1*
X4337D1*
Y21537D1*
X4490D1*
X4392Y21686D1*
X4352Y21805D1*
X4338Y21928D1*
X4349Y22053D1*
X4385Y22172D1*
X4446Y22281D1*
X4528Y22375D1*
X4627Y22450D1*
X4740Y22503D1*
X4862Y22532D1*
X4987Y22535D1*
X5109Y22511D1*
X5224Y22463D1*
X5327Y22392D1*
X5413Y22302D1*
X5435Y22265D1*
X5528Y22375D1*
X5627Y22450D1*
X5740Y22503D1*
X5862Y22532D1*
X5987Y22535D1*
X6109Y22511D1*
X6224Y22463D1*
X6327Y22392D1*
X6413Y22302D1*
X6435Y22265D1*
X6528Y22375D1*
X6627Y22450D1*
X6740Y22503D1*
X6862Y22532D1*
X6987Y22535D1*
X7109Y22511D1*
X7224Y22463D1*
X7327Y22392D1*
X7413Y22302D1*
X7435Y22265D1*
X7528Y22375D1*
X7627Y22450D1*
X7740Y22503D1*
X7862Y22532D1*
X7987Y22535D1*
X8109Y22511D1*
X8224Y22463D1*
X8327Y22392D1*
X8413Y22302D1*
X8478Y22195D1*
X8520Y22078D1*
X8537Y21937D1*
X8522Y21809D1*
X8667Y21667D1*
X8736Y21564D1*
X8762Y21437D1*
Y20761D1*
X9449Y20074D1*
X10625Y20076D1*
X10747Y20052D1*
X10855Y19981D1*
X11596Y19240D1*
X11665Y19137D1*
X11691Y19010D1*
X11690Y15804D1*
X12097Y15801D1*
X12100Y16161D1*
Y16749D1*
X13024D1*
Y16730D1*
X13119Y16724D1*
X13238Y16687D1*
X13344Y16620D1*
X13427Y16528D1*
X13483Y16416D1*
X13507Y16268D1*
X13491Y16144D1*
X13441Y16030D1*
X13363Y15933D1*
X13262Y15860D1*
X13145Y15817D1*
X13025Y15807D1*
X13024Y15786D1*
X12887D1*
X12863Y15628D1*
X12792Y15520D1*
X12516Y15245D1*
X12517Y15153D1*
X12663Y15166D1*
Y15375D1*
X13587Y15371D1*
X13807Y15374D1*
X13808Y15893D1*
X13820D1*
X13795Y15988D1*
X13791Y16112D1*
X13821Y16233D1*
X13882Y16342D1*
X13970Y16430D1*
X14078Y16492D1*
X14199Y16522D1*
X14324Y16519D1*
X14443Y16483D1*
X14548Y16416D1*
X14632Y16323D1*
X14687Y16212D1*
X14712Y16063D1*
X14695Y15940D1*
X14675Y15893D1*
X14692D1*
Y15338D1*
X15276Y15336D1*
Y14825D1*
X15871Y14824D1*
X15942Y14867D1*
X16066Y14892D1*
X16219Y14894D1*
Y15245D1*
X17559D1*
X17540Y15297D1*
X17519Y15419D1*
X17532Y15543D1*
X17580Y15658D1*
X17658Y15756D1*
X17760Y15827D1*
X17878Y15868D1*
X18002Y15873D1*
X18123Y15844D1*
X18232Y15783D1*
X18318Y15693D1*
X18377Y15583D1*
X18403Y15433D1*
X18385Y15310D1*
X18334Y15196D1*
X18253Y15102D1*
X18149Y15033D1*
X18030Y14997D1*
X17905Y14995D1*
X17785Y15028D1*
X17676Y15096D1*
X17655Y14995D1*
X17651Y14519D1*
X17655Y14115D1*
X17658Y14023D1*
X17760Y14095D1*
X17878Y14135D1*
X18002Y14141D1*
X18123Y14112D1*
X18232Y14050D1*
X18318Y13961D1*
X18377Y13851D1*
X18403Y13701D1*
X18385Y13578D1*
X18334Y13464D1*
X18253Y13369D1*
X18149Y13301D1*
X18030Y13264D1*
X17905Y13262D1*
X17785Y13295D1*
X17679Y13360D1*
X17595Y13453D1*
X17540Y13568D1*
X17405Y13574D1*
X16219D1*
Y13648D1*
X16057Y13644D1*
X16056Y12782D1*
X16712Y12123D1*
X16898D1*
Y11003D1*
X16816D1*
X16814Y10338D1*
X16818Y10236D1*
Y9786D1*
X16790D1*
Y9125D1*
X16772Y9002D1*
X16704Y8872D1*
X16315Y8478D1*
X15544Y7706D1*
X15444Y7633D1*
X15304Y7588D1*
X14750Y7585D1*
X14442D1*
X14507Y7510D1*
X14562Y7398D1*
X14580Y7311D1*
X14605Y7266D1*
X14636Y7146D1*
X15686D1*
X15682Y6104D1*
X15686Y6022D1*
Y5356D1*
X14565D1*
Y5493D1*
X13969Y5491D1*
Y4630D1*
X13006D1*
Y5119D1*
X12956Y5189D1*
X12924Y5330D1*
Y5490D1*
X12768Y5491D1*
Y5550D1*
X12065D1*
X11912Y5486D1*
X11788Y5476D1*
X11665Y5499D1*
X11554Y5555D1*
X11461Y5638D1*
X11394Y5743D1*
X11357Y5862D1*
X11353Y5986D1*
X11385Y6111D1*
X10812Y6112D1*
X10690Y6136D1*
X10583Y6207D1*
X9833Y6957D1*
X9763Y7061D1*
X9737Y7187D1*
Y7652D1*
X9645Y7616D1*
X9567Y7604D1*
X9475Y7601D1*
X9353Y7625D1*
X9241Y7680D1*
X9148Y7763D1*
X9081Y7868D1*
X9044Y7987D1*
X9041Y8112D1*
X9071Y8233D1*
X9130Y8338D1*
X9129Y9538D1*
X9063D1*
X9066Y10462D1*
X9063Y10413D1*
Y10730D1*
X9038Y10727D1*
X8915Y10750D1*
X8870Y10772D1*
X8715Y10773D1*
X8713Y10726D1*
X8553D1*
X8556Y10669D1*
X8533Y10547D1*
X8461Y10440D1*
X8167Y10145D1*
X8064Y10076D1*
X7937Y10050D1*
X6937D1*
X6815Y10074D1*
X6707Y10145D1*
X6263Y10590D1*
X6262Y9075D1*
X7229Y8105D1*
X7299Y8002D1*
X7324Y7875D1*
Y7387D1*
X8169Y6539D1*
X8228Y6461D1*
X8327Y6392D1*
X8413Y6302D1*
X8478Y6195D1*
X8520Y6078D1*
X8537Y5937D1*
X8524Y5813D1*
X10524Y4813D2*
X10485Y4694D1*
X10423Y4586D1*
X10340Y4493D1*
X10239Y4419D1*
X10126Y4368D1*
X10004Y4341D1*
X9879Y4340D1*
X9757Y4365D1*
X9642Y4415D1*
X9541Y4487D1*
X9456Y4579D1*
X9392Y4686D1*
X9352Y4805D1*
X9338Y4928D1*
X9349Y5053D1*
X9385Y5172D1*
X9446Y5281D1*
X9528Y5375D1*
X9606Y5434D1*
X9541Y5487D1*
X9456Y5579D1*
X9392Y5686D1*
X9352Y5805D1*
X9338Y5928D1*
X9349Y6053D1*
X9385Y6172D1*
X9446Y6281D1*
X9528Y6375D1*
X9627Y6450D1*
X9740Y6503D1*
X9862Y6532D1*
X9987Y6535D1*
X10109Y6511D1*
X10224Y6463D1*
X10327Y6392D1*
X10413Y6302D1*
X10478Y6195D1*
X10520Y6078D1*
X10537Y5937D1*
X10524Y5813D1*
X10485Y5694D1*
X10423Y5586D1*
X10340Y5493D1*
X10268Y5440D1*
X10327Y5392D1*
X10413Y5302D1*
X10478Y5195D1*
X10520Y5078D1*
X10537Y4937D1*
X10524Y4813D1*
D18*
X17126Y11563D3*
X16378D3*
D19*
X12688Y9062D3*
X12018D3*
D20*
X14250Y10062D3*
Y10731D3*
D21*
X7437Y13063D3*
Y13811D3*
D19*
X7562Y11750D3*
X8231D3*
X7562Y12313D3*
X8231D3*
D20*
X13625Y15562D3*
Y14893D3*
X13125Y15563D3*
Y14894D3*
D19*
X14062Y13062D3*
X13393D3*
X14062Y12437D3*
X13393D3*
X8875Y10625D3*
X9544D3*
X8875Y10000D3*
X9544D3*
D20*
X12562Y16937D3*
Y16268D3*
D19*
X9375Y16938D3*
X8705D3*
X7562Y11188D3*
X8231D3*
X11647Y11585D3*
X10978D3*
X14156Y5092D3*
X13487D3*
D23*
X15562Y14875D3*
D24*
X14893D3*
Y13969D3*
X15641D3*
D25*
X16375Y10750D3*
Y10199D3*
X14250Y15481D3*
Y14930D3*
D26*
X14009Y11625D3*
X13457D3*
D28*
X11937Y13312D3*
Y13509D3*
Y13706D3*
Y13903D3*
Y14099D3*
Y14296D3*
Y14493D3*
Y14690D3*
Y14887D3*
Y15084D3*
Y15281D3*
Y15477D3*
D29*
X11366Y16048D3*
X11169D3*
X10972D3*
X10776D3*
X10579D3*
X10382D3*
X10185D3*
X9988D3*
X9791D3*
X9594D3*
X9398D3*
X9201D3*
D28*
X8630Y15477D3*
Y15281D3*
Y15084D3*
Y14887D3*
Y14690D3*
Y14493D3*
Y14296D3*
Y14099D3*
Y13903D3*
Y13706D3*
Y13509D3*
Y13312D3*
D29*
X9201Y12741D3*
X9398D3*
X9594D3*
X9791D3*
X9988D3*
X10185D3*
X10382D3*
X10579D3*
X10776D3*
X10972D3*
X11169D3*
X11366D3*
D30*
X14312Y5875D3*
Y6249D3*
Y6623D3*
X13249D3*
Y6249D3*
Y5875D3*
D32*
X16937Y13937D3*
Y14252D3*
Y14567D3*
Y14882D3*
Y15197D3*
D33*
X16976Y12815D3*
Y16319D3*
X19142Y12815D3*
Y16319D3*
D18*
X14062Y13812D3*
X13314D3*
D21*
X6562Y13813D3*
Y13065D3*
X15125Y6625D3*
Y5877D3*
D34*
X4937Y20937D3*
D35*
Y21937D3*
X5937Y20937D3*
Y21937D3*
X6937Y20937D3*
Y21937D3*
X7937Y20937D3*
Y21937D3*
X8937Y20937D3*
Y21937D3*
X9937Y20937D3*
Y21937D3*
D34*
X4937Y4937D3*
D35*
Y5937D3*
X5937Y4937D3*
Y5937D3*
X6937Y4937D3*
Y5937D3*
X7937Y4937D3*
Y5937D3*
X8937Y4937D3*
Y5937D3*
X9937Y4937D3*
Y5937D3*
D36*
X12000Y9812D3*
X13496D3*
Y10718D3*
X12000D3*
M02*
