G04 DipTrace 2.4.0.2*
%INbftdi_Bottom.gbr*%
%MOIN*%
%ADD13C,0.012*%
%ADD15C,0.03*%
%ADD17C,0.025*%
%ADD34R,0.0669X0.0669*%
%ADD35C,0.0669*%
%ADD37C,0.0394*%
%FSLAX44Y44*%
G04*
G70*
G90*
G75*
G01*
%LNBottom*%
%LPD*%
X14125Y7250D2*
D13*
X13125Y6250D1*
X12688D1*
X7875Y15876D2*
Y15813D1*
X8625Y15063D1*
X9687D1*
X11000Y7562D2*
D15*
X10500Y8062D1*
X9500D1*
X10937Y11000D2*
X10749Y11188D1*
X10073D1*
X9062D1*
X14250Y16063D2*
X13250D1*
X13046Y16268D1*
X12142D1*
X11938Y16063D1*
X10562D1*
X9125D1*
X8750Y16438D1*
Y17438D1*
X10073Y11188D2*
Y13824D1*
X10562Y14313D1*
Y16063D1*
X11813Y5937D2*
D13*
Y8000D1*
X11875D1*
D37*
X14125Y7250D3*
X12688Y6250D3*
X7875Y15876D3*
X9687Y15063D3*
X11000Y7562D3*
X9500Y8062D3*
X9062Y11188D3*
X10937Y11000D3*
X14250Y16063D3*
X13046Y16268D3*
X8750Y17438D3*
X11813Y5937D3*
X11875Y8000D3*
X12625Y15251D3*
X9375Y17438D3*
X15625Y9125D3*
Y10063D3*
Y10938D3*
X15438Y11875D3*
X14625Y12500D3*
Y13250D3*
X11688Y19814D3*
X13313Y9062D3*
X14063D3*
X12125Y12375D3*
Y11813D3*
X7000Y12313D3*
Y11188D3*
X8062Y13063D3*
X8750Y12750D3*
X10937Y13750D3*
X9500D3*
X11125Y15063D3*
X18313Y5625D3*
Y10063D3*
Y8000D3*
Y12313D3*
X13688Y16626D3*
X8500Y9437D3*
X6875D3*
X6499Y16876D3*
X4874D3*
X6499Y17938D3*
X4874D3*
X7875Y16626D3*
X11938Y17376D3*
X4166Y22485D2*
D17*
X4668D1*
X5207D2*
X5668D1*
X6207D2*
X6668D1*
X7207D2*
X7668D1*
X8207D2*
X9668D1*
X10207D2*
X19708D1*
X4166Y22236D2*
X4391D1*
X8480D2*
X9391D1*
X10480D2*
X19708D1*
X4166Y21987D2*
X4313D1*
X8558D2*
X9313D1*
X10558D2*
X19708D1*
X4166Y21739D2*
X4348D1*
X8527D2*
X9348D1*
X10527D2*
X19708D1*
X4166Y21490D2*
X4313D1*
X8363D2*
X9512D1*
X10363D2*
X19708D1*
X4166Y21241D2*
X4313D1*
X8480D2*
X9395D1*
X10480D2*
X19708D1*
X4166Y20992D2*
X4313D1*
X8558D2*
X9317D1*
X10558D2*
X19708D1*
X4166Y20744D2*
X4313D1*
X8531D2*
X9344D1*
X10531D2*
X19708D1*
X4166Y20495D2*
X4313D1*
X6367D2*
X6508D1*
X7367D2*
X7508D1*
X8367D2*
X9508D1*
X10367D2*
X19708D1*
X4166Y20246D2*
X19708D1*
X4166Y19998D2*
X19708D1*
X4166Y19749D2*
X19708D1*
X4166Y19500D2*
X19708D1*
X4166Y19252D2*
X19708D1*
X4166Y19003D2*
X19708D1*
X4166Y18754D2*
X19708D1*
X4166Y18506D2*
X19708D1*
X4166Y18257D2*
X19708D1*
X4166Y18008D2*
X19708D1*
X4166Y17760D2*
X8395D1*
X9105D2*
X19708D1*
X4166Y17511D2*
X8270D1*
X9230D2*
X19708D1*
X4166Y17262D2*
X8297D1*
X9203D2*
X19708D1*
X4166Y17013D2*
X8309D1*
X9191D2*
X19708D1*
X4166Y16765D2*
X8309D1*
X9191D2*
X19708D1*
X4166Y16516D2*
X8309D1*
X9285D2*
X11778D1*
X13461D2*
X14137D1*
X14362D2*
X19708D1*
X4166Y16267D2*
X7606D1*
X8144D2*
X8348D1*
X14691D2*
X19708D1*
X4166Y16019D2*
X7411D1*
X8340D2*
X8559D1*
X14734D2*
X19708D1*
X4166Y15770D2*
X7399D1*
X8402D2*
X8805D1*
X12258D2*
X12930D1*
X14633D2*
X17649D1*
X18273D2*
X19708D1*
X4166Y15521D2*
X7555D1*
X8652D2*
X9606D1*
X9768D2*
X10122D1*
X11004D2*
X17504D1*
X18418D2*
X19708D1*
X4166Y15273D2*
X7930D1*
X11004D2*
X17524D1*
X18398D2*
X19708D1*
X4166Y15024D2*
X8180D1*
X11004D2*
X17770D1*
X18152D2*
X19708D1*
X4166Y14775D2*
X8450D1*
X11004D2*
X19708D1*
X4166Y14527D2*
X10122D1*
X11004D2*
X19708D1*
X4166Y14278D2*
X9915D1*
X11000D2*
X19708D1*
X4166Y14029D2*
X9688D1*
X10890D2*
X17641D1*
X18281D2*
X19708D1*
X4166Y13781D2*
X9633D1*
X10640D2*
X17501D1*
X18422D2*
X19708D1*
X4166Y13532D2*
X9633D1*
X10511D2*
X17528D1*
X18394D2*
X19708D1*
X4166Y13283D2*
X9633D1*
X10511D2*
X17793D1*
X18129D2*
X19708D1*
X4166Y13034D2*
X9633D1*
X10511D2*
X19708D1*
X4166Y12786D2*
X9633D1*
X10511D2*
X19708D1*
X4166Y12537D2*
X9633D1*
X10511D2*
X19708D1*
X4166Y12288D2*
X9633D1*
X10511D2*
X19708D1*
X4166Y12040D2*
X9633D1*
X10511D2*
X19708D1*
X4166Y11791D2*
X9633D1*
X10511D2*
X19708D1*
X4166Y11542D2*
X8743D1*
X10988D2*
X19708D1*
X4166Y11294D2*
X8586D1*
X11320D2*
X19708D1*
X4166Y11045D2*
X8598D1*
X11422D2*
X19708D1*
X4166Y10796D2*
X8793D1*
X11379D2*
X19708D1*
X4166Y10548D2*
X10817D1*
X11054D2*
X19708D1*
X4166Y10299D2*
X19708D1*
X4166Y10050D2*
X19708D1*
X4166Y9802D2*
X19708D1*
X4166Y9553D2*
X19708D1*
X4166Y9304D2*
X19708D1*
X4166Y9055D2*
X19708D1*
X4166Y8807D2*
X19708D1*
X4166Y8558D2*
X19708D1*
X4166Y8309D2*
X9086D1*
X10863D2*
X11508D1*
X12242D2*
X19708D1*
X4166Y8061D2*
X9012D1*
X11113D2*
X11391D1*
X12359D2*
X19708D1*
X4166Y7812D2*
X9086D1*
X12320D2*
X19708D1*
X4166Y7563D2*
X10387D1*
X12164D2*
X13762D1*
X14488D2*
X19708D1*
X4166Y7315D2*
X10586D1*
X12164D2*
X13645D1*
X14609D2*
X19708D1*
X4166Y7066D2*
X11461D1*
X12164D2*
X13458D1*
X14574D2*
X19708D1*
X4166Y6817D2*
X11461D1*
X12164D2*
X13208D1*
X14312D2*
X19708D1*
X4166Y6569D2*
X11461D1*
X12164D2*
X12329D1*
X13929D2*
X19708D1*
X4166Y6320D2*
X4450D1*
X8422D2*
X9450D1*
X10422D2*
X11461D1*
X13679D2*
X19708D1*
X4166Y6071D2*
X4329D1*
X8547D2*
X9329D1*
X10547D2*
X11344D1*
X13429D2*
X19708D1*
X4166Y5823D2*
X4325D1*
X8551D2*
X9325D1*
X10551D2*
X11340D1*
X12285D2*
X12489D1*
X12886D2*
X19708D1*
X4166Y5574D2*
X4434D1*
X8437D2*
X9434D1*
X10437D2*
X11504D1*
X12121D2*
X19708D1*
X4166Y5325D2*
X4313D1*
X8418D2*
X9454D1*
X10418D2*
X19708D1*
X4166Y5076D2*
X4313D1*
X8547D2*
X9329D1*
X10547D2*
X19708D1*
X4166Y4828D2*
X4313D1*
X8551D2*
X9321D1*
X10551D2*
X19708D1*
X4166Y4579D2*
X4313D1*
X8441D2*
X9430D1*
X10441D2*
X19708D1*
X4166Y4330D2*
X19708D1*
X18385Y13578D2*
X18334Y13464D1*
X18253Y13369D1*
X18149Y13301D1*
X18030Y13264D1*
X17905Y13262D1*
X17785Y13295D1*
X17679Y13360D1*
X17595Y13453D1*
X17540Y13564D1*
X17519Y13687D1*
X17532Y13811D1*
X17580Y13926D1*
X17658Y14023D1*
X17760Y14095D1*
X17878Y14135D1*
X18002Y14141D1*
X18123Y14112D1*
X18232Y14050D1*
X18318Y13961D1*
X18377Y13851D1*
X18403Y13701D1*
X18385Y13578D1*
Y15310D2*
X18334Y15196D1*
X18253Y15102D1*
X18149Y15033D1*
X18030Y14997D1*
X17905Y14995D1*
X17785Y15028D1*
X17679Y15093D1*
X17595Y15185D1*
X17540Y15297D1*
X17519Y15419D1*
X17532Y15543D1*
X17580Y15658D1*
X17658Y15756D1*
X17760Y15827D1*
X17878Y15868D1*
X18002Y15873D1*
X18123Y15844D1*
X18232Y15783D1*
X18318Y15693D1*
X18377Y15583D1*
X18403Y15433D1*
X18385Y15310D1*
X4462Y21537D2*
X4490D1*
X4392Y21686D1*
X4352Y21805D1*
X4338Y21928D1*
X4349Y22053D1*
X4385Y22172D1*
X4446Y22281D1*
X4528Y22375D1*
X4627Y22450D1*
X4740Y22503D1*
X4862Y22532D1*
X4987Y22535D1*
X5109Y22511D1*
X5224Y22463D1*
X5327Y22392D1*
X5413Y22302D1*
X5435Y22265D1*
X5528Y22375D1*
X5627Y22450D1*
X5740Y22503D1*
X5862Y22532D1*
X5987Y22535D1*
X6109Y22511D1*
X6224Y22463D1*
X6327Y22392D1*
X6413Y22302D1*
X6435Y22265D1*
X6528Y22375D1*
X6627Y22450D1*
X6740Y22503D1*
X6862Y22532D1*
X6987Y22535D1*
X7109Y22511D1*
X7224Y22463D1*
X7327Y22392D1*
X7413Y22302D1*
X7435Y22265D1*
X7528Y22375D1*
X7627Y22450D1*
X7740Y22503D1*
X7862Y22532D1*
X7987Y22535D1*
X8109Y22511D1*
X8224Y22463D1*
X8327Y22392D1*
X8413Y22302D1*
X8478Y22195D1*
X8520Y22078D1*
X8537Y21937D1*
X8524Y21813D1*
X8485Y21694D1*
X8423Y21586D1*
X8340Y21493D1*
X8268Y21440D1*
X8327Y21392D1*
X8413Y21302D1*
X8478Y21195D1*
X8520Y21078D1*
X8537Y20937D1*
X8524Y20813D1*
X8485Y20694D1*
X8423Y20586D1*
X8340Y20493D1*
X8239Y20419D1*
X8126Y20368D1*
X8004Y20341D1*
X7879Y20340D1*
X7757Y20365D1*
X7642Y20415D1*
X7541Y20487D1*
X7438Y20609D1*
X7340Y20493D1*
X7239Y20419D1*
X7126Y20368D1*
X7004Y20341D1*
X6879Y20340D1*
X6757Y20365D1*
X6642Y20415D1*
X6541Y20487D1*
X6438Y20609D1*
X6340Y20493D1*
X6239Y20419D1*
X6126Y20368D1*
X6004Y20341D1*
X5879Y20340D1*
X5757Y20365D1*
X5642Y20415D1*
X5538Y20490D1*
X5537Y20337D1*
X4337D1*
Y21537D1*
X4462D1*
X10524Y20813D2*
X10485Y20694D1*
X10423Y20586D1*
X10340Y20493D1*
X10239Y20419D1*
X10126Y20368D1*
X10004Y20341D1*
X9879Y20340D1*
X9757Y20365D1*
X9642Y20415D1*
X9541Y20487D1*
X9456Y20579D1*
X9392Y20686D1*
X9352Y20805D1*
X9338Y20928D1*
X9349Y21053D1*
X9385Y21172D1*
X9446Y21281D1*
X9528Y21375D1*
X9606Y21434D1*
X9541Y21487D1*
X9456Y21579D1*
X9392Y21686D1*
X9352Y21805D1*
X9338Y21928D1*
X9349Y22053D1*
X9385Y22172D1*
X9446Y22281D1*
X9528Y22375D1*
X9627Y22450D1*
X9740Y22503D1*
X9862Y22532D1*
X9987Y22535D1*
X10109Y22511D1*
X10224Y22463D1*
X10327Y22392D1*
X10413Y22302D1*
X10478Y22195D1*
X10520Y22078D1*
X10537Y21937D1*
X10524Y21813D1*
X10485Y21694D1*
X10423Y21586D1*
X10340Y21493D1*
X10268Y21440D1*
X10327Y21392D1*
X10413Y21302D1*
X10478Y21195D1*
X10520Y21078D1*
X10537Y20937D1*
X10524Y20813D1*
X4462Y5537D2*
X4490D1*
X4392Y5686D1*
X4352Y5805D1*
X4338Y5928D1*
X4349Y6053D1*
X4385Y6172D1*
X4446Y6281D1*
X4528Y6375D1*
X4627Y6450D1*
X4740Y6503D1*
X4862Y6532D1*
X4987Y6535D1*
X5109Y6511D1*
X5224Y6463D1*
X5327Y6392D1*
X5413Y6302D1*
X5435Y6265D1*
X5528Y6375D1*
X5627Y6450D1*
X5740Y6503D1*
X5862Y6532D1*
X5987Y6535D1*
X6109Y6511D1*
X6224Y6463D1*
X6327Y6392D1*
X6413Y6302D1*
X6435Y6265D1*
X6528Y6375D1*
X6627Y6450D1*
X6740Y6503D1*
X6862Y6532D1*
X6987Y6535D1*
X7109Y6511D1*
X7224Y6463D1*
X7327Y6392D1*
X7413Y6302D1*
X7435Y6265D1*
X7528Y6375D1*
X7627Y6450D1*
X7740Y6503D1*
X7862Y6532D1*
X7987Y6535D1*
X8109Y6511D1*
X8224Y6463D1*
X8327Y6392D1*
X8413Y6302D1*
X8478Y6195D1*
X8520Y6078D1*
X8537Y5937D1*
X8524Y5813D1*
X8485Y5694D1*
X8423Y5586D1*
X8340Y5493D1*
X8268Y5440D1*
X8327Y5392D1*
X8413Y5302D1*
X8478Y5195D1*
X8520Y5078D1*
X8537Y4937D1*
X8524Y4813D1*
X8485Y4694D1*
X8423Y4586D1*
X8340Y4493D1*
X8239Y4419D1*
X8126Y4368D1*
X8004Y4341D1*
X7879Y4340D1*
X7757Y4365D1*
X7642Y4415D1*
X7541Y4487D1*
X7438Y4609D1*
X7340Y4493D1*
X7239Y4419D1*
X7126Y4368D1*
X7004Y4341D1*
X6879Y4340D1*
X6757Y4365D1*
X6642Y4415D1*
X6541Y4487D1*
X6438Y4609D1*
X6340Y4493D1*
X6239Y4419D1*
X6126Y4368D1*
X6004Y4341D1*
X5879Y4340D1*
X5757Y4365D1*
X5642Y4415D1*
X5538Y4490D1*
X5537Y4337D1*
X4337D1*
Y5537D1*
X4462D1*
X10524Y4813D2*
X10485Y4694D1*
X10423Y4586D1*
X10340Y4493D1*
X10239Y4419D1*
X10126Y4368D1*
X10004Y4341D1*
X9879Y4340D1*
X9757Y4365D1*
X9642Y4415D1*
X9541Y4487D1*
X9456Y4579D1*
X9392Y4686D1*
X9352Y4805D1*
X9338Y4928D1*
X9349Y5053D1*
X9385Y5172D1*
X9446Y5281D1*
X9528Y5375D1*
X9606Y5434D1*
X9541Y5487D1*
X9456Y5579D1*
X9392Y5686D1*
X9352Y5805D1*
X9338Y5928D1*
X9349Y6053D1*
X9385Y6172D1*
X9446Y6281D1*
X9528Y6375D1*
X9627Y6450D1*
X9740Y6503D1*
X9862Y6532D1*
X9987Y6535D1*
X10109Y6511D1*
X10224Y6463D1*
X10327Y6392D1*
X10413Y6302D1*
X10478Y6195D1*
X10520Y6078D1*
X10537Y5937D1*
X10524Y5813D1*
X10485Y5694D1*
X10423Y5586D1*
X10340Y5493D1*
X10268Y5440D1*
X10327Y5392D1*
X10413Y5302D1*
X10478Y5195D1*
X10520Y5078D1*
X10537Y4937D1*
X10524Y4813D1*
X14126Y6791D2*
X13355Y6020D1*
X13252Y5950D1*
X13125Y5925D1*
X13012D1*
X12904Y5842D1*
X12787Y5799D1*
X12663Y5789D1*
X12541Y5812D1*
X12429Y5867D1*
X12336Y5950D1*
X12269Y6055D1*
X12232Y6174D1*
X12228Y6299D1*
X12258Y6420D1*
X12319Y6528D1*
X12407Y6617D1*
X12516Y6678D1*
X12637Y6709D1*
X12761Y6706D1*
X12880Y6669D1*
X12999Y6588D1*
X13514Y7098D1*
X13666Y7250D1*
Y7299D1*
X13696Y7420D1*
X13757Y7529D1*
X13845Y7617D1*
X13953Y7678D1*
X14074Y7709D1*
X14199Y7706D1*
X14318Y7669D1*
X14423Y7602D1*
X14507Y7510D1*
X14562Y7398D1*
X14587Y7250D1*
X14570Y7126D1*
X14521Y7012D1*
X14443Y6915D1*
X14342Y6842D1*
X14225Y6799D1*
X14128Y6791D1*
X8334Y15814D2*
X8759Y15388D1*
X9363D1*
X9407Y15430D1*
X9515Y15492D1*
X9636Y15522D1*
X9761Y15519D1*
X9880Y15483D1*
X9985Y15416D1*
X10069Y15323D1*
X10124Y15212D1*
X10148Y15093D1*
X10147Y15645D1*
X9187Y15648D1*
X9125D1*
X9002Y15667D1*
X8872Y15734D1*
X8456Y16145D1*
X8382Y16245D1*
X8338Y16385D1*
X8335Y16938D1*
X8331Y17244D1*
X8294Y17363D1*
X8291Y17488D1*
X8320Y17609D1*
X8382Y17717D1*
X8470Y17805D1*
X8578Y17867D1*
X8699Y17897D1*
X8823Y17894D1*
X8943Y17858D1*
X9048Y17791D1*
X9131Y17699D1*
X9187Y17587D1*
X9211Y17438D1*
X9195Y17315D1*
X9165Y17247D1*
Y16606D1*
X9294Y16480D1*
X10687Y16478D1*
X11769D1*
X11849Y16561D1*
X11949Y16635D1*
X12089Y16679D1*
X12642Y16683D1*
X12841D1*
X12995Y16727D1*
X13119Y16724D1*
X13238Y16687D1*
X13344Y16620D1*
X13427Y16528D1*
X13453Y16476D1*
X14051Y16478D1*
X14199Y16522D1*
X14324Y16519D1*
X14443Y16483D1*
X14548Y16416D1*
X14632Y16323D1*
X14687Y16212D1*
X14712Y16063D1*
X14695Y15940D1*
X14646Y15825D1*
X14568Y15728D1*
X14467Y15655D1*
X14350Y15612D1*
X14226Y15602D1*
X14103Y15625D1*
X14058Y15648D1*
X13250D1*
X13127Y15667D1*
X12997Y15734D1*
X12893Y15833D1*
X12796Y15853D1*
X12315D1*
X12231Y15770D1*
X12131Y15696D1*
X11991Y15652D1*
X11438Y15648D1*
X10981D1*
X10977Y14688D1*
Y14313D1*
X10959Y14190D1*
X10891Y14060D1*
X10488Y13652D1*
Y11601D1*
X10749Y11603D1*
X10872Y11584D1*
X11003Y11516D1*
X11090Y11434D1*
X11130Y11419D1*
X11235Y11352D1*
X11319Y11260D1*
X11375Y11148D1*
X11399Y11000D1*
X11382Y10876D1*
X11333Y10762D1*
X11255Y10664D1*
X11154Y10592D1*
X11037Y10549D1*
X10913Y10538D1*
X10790Y10562D1*
X10679Y10617D1*
X10586Y10700D1*
X10538Y10776D1*
X10073Y10773D1*
X9265D1*
X9162Y10737D1*
X9038Y10727D1*
X8915Y10750D1*
X8803Y10805D1*
X8711Y10888D1*
X8643Y10993D1*
X8607Y11112D1*
X8603Y11237D1*
X8633Y11358D1*
X8694Y11466D1*
X8782Y11555D1*
X8890Y11616D1*
X9011Y11647D1*
X9136Y11644D1*
X9265Y11601D1*
X9660Y11603D1*
X9658Y13824D1*
X9677Y13947D1*
X9744Y14077D1*
X10147Y14485D1*
Y15028D1*
X10132Y14940D1*
X10083Y14825D1*
X10005Y14728D1*
X9904Y14655D1*
X9787Y14612D1*
X9663Y14602D1*
X9540Y14625D1*
X9429Y14681D1*
X9362Y14740D1*
X8625Y14738D1*
X8503Y14762D1*
X8395Y14833D1*
X7812Y15416D1*
X7728Y15438D1*
X7616Y15493D1*
X7523Y15576D1*
X7456Y15681D1*
X7419Y15800D1*
X7415Y15925D1*
X7445Y16046D1*
X7506Y16154D1*
X7594Y16243D1*
X7703Y16304D1*
X7824Y16335D1*
X7948Y16332D1*
X8067Y16295D1*
X8173Y16228D1*
X8256Y16136D1*
X8312Y16024D1*
X8336Y15876D1*
X8328Y15818D1*
X10566Y7410D2*
X10328Y7647D1*
X9699D1*
X9599Y7611D1*
X9475Y7601D1*
X9353Y7625D1*
X9241Y7680D1*
X9148Y7763D1*
X9081Y7868D1*
X9044Y7987D1*
X9041Y8112D1*
X9071Y8233D1*
X9132Y8341D1*
X9220Y8429D1*
X9328Y8491D1*
X9449Y8521D1*
X9573Y8518D1*
X9702Y8476D1*
X10500Y8477D1*
X10623Y8459D1*
X10753Y8391D1*
X11150Y7999D1*
X11298Y7915D1*
X11381Y7822D1*
X11437Y7711D1*
X11462Y7562D1*
X11445Y7439D1*
X11396Y7324D1*
X11318Y7227D1*
X11216Y7154D1*
X11099Y7111D1*
X10975Y7101D1*
X10853Y7125D1*
X10741Y7180D1*
X10648Y7263D1*
X10581Y7368D1*
X10568Y7409D1*
X11488Y6261D2*
Y7746D1*
X11456Y7805D1*
X11419Y7924D1*
X11416Y8049D1*
X11446Y8170D1*
X11507Y8279D1*
X11595Y8367D1*
X11703Y8428D1*
X11824Y8459D1*
X11949Y8456D1*
X12068Y8419D1*
X12173Y8353D1*
X12257Y8260D1*
X12312Y8149D1*
X12337Y8000D1*
X12320Y7876D1*
X12271Y7762D1*
X12193Y7665D1*
X12139Y7626D1*
X12137Y6262D1*
X12194Y6197D1*
X12250Y6086D1*
X12274Y5937D1*
X12257Y5814D1*
X12208Y5699D1*
X12130Y5602D1*
X12029Y5529D1*
X11912Y5486D1*
X11788Y5476D1*
X11665Y5499D1*
X11554Y5555D1*
X11461Y5638D1*
X11394Y5743D1*
X11357Y5862D1*
X11353Y5986D1*
X11383Y6107D1*
X11444Y6216D1*
X11486Y6257D1*
X4141Y22608D2*
Y4141D1*
X19733D1*
Y22733D1*
X4141D1*
Y22608D1*
D34*
X4937Y20937D3*
D35*
Y21937D3*
X5937Y20937D3*
Y21937D3*
X6937Y20937D3*
Y21937D3*
X7937Y20937D3*
Y21937D3*
X8937Y20937D3*
Y21937D3*
X9937Y20937D3*
Y21937D3*
D34*
X4937Y4937D3*
D35*
Y5937D3*
X5937Y4937D3*
Y5937D3*
X6937Y4937D3*
Y5937D3*
X7937Y4937D3*
Y5937D3*
X8937Y4937D3*
Y5937D3*
X9937Y4937D3*
Y5937D3*
M02*
