M48
INCH
T01C0.0197
T02C0.0354
T03C0.0433
%
T01
X+012625Y+015251
X+013046Y+016268
X+013688Y+016626
X+014250Y+016063
X+011938Y+017376
X+011688Y+019814
X+009375Y+017438
X+008750Y+017438
X+007875Y+016626
X+007875Y+015876
X+006499Y+016876
X+006499Y+017938
X+004874Y+017938
X+004874Y+016876
X+008062Y+013063
X+008750Y+012750
X+009500Y+013750
X+009687Y+015063
X+011125Y+015063
X+010937Y+013750
X+012125Y+012375
X+012125Y+011813
X+010937Y+011000
X+009062Y+011188
X+008500Y+009437
X+006875Y+009437
X+007000Y+011188
X+007000Y+012313
X+009500Y+008062
X+011000Y+007562
X+011875Y+008000
X+013313Y+009062
X+014063Y+009062
X+015625Y+009125
X+015625Y+010063
X+015625Y+010938
X+015438Y+011875
X+014625Y+012500
X+014625Y+013250
X+018313Y+012313
X+018313Y+010063
X+018313Y+008000
X+018313Y+005625
X+014125Y+007250
X+012688Y+006250
X+011813Y+005937
T02
X+017961Y+013701
X+017961Y+015433
T03
X+004937Y+020937
X+005937Y+020937
X+006937Y+020937
X+006937Y+021937
X+005937Y+021937
X+004937Y+021937
X+007937Y+021937
X+008937Y+021937
X+009937Y+021937
X+009937Y+020937
X+008937Y+020937
X+007937Y+020937
X+007937Y+005937
X+008937Y+005937
X+009937Y+005937
X+009937Y+004937
X+008937Y+004937
X+007937Y+004937
X+006937Y+004937
X+005937Y+004937
X+004937Y+004937
X+004937Y+005937
X+005937Y+005937
X+006937Y+005937
T00
M30
